<svg width="477" height="451" viewBox="0 0 477 451" fill="none" xmlns="http://www.w3.org/2000/svg">
<path d="M281.969 364.925L273.68 363.754V323.118L281.969 323.999V364.925Z" fill="#999999" stroke="#263238" stroke-linecap="round" stroke-linejoin="round"/>
<path d="M468.303 343.768L87.3259 303.359V72.3072L468.303 23.0403V343.768Z" fill="white" stroke="#263238" stroke-linecap="round" stroke-linejoin="round"/>
<path d="M471.556 22.6259L84.0518 72.7529C81.3786 73.1052 79.2028 71.7168 79.2028 69.5513V66.0182C79.2028 63.946 81.3786 61.8737 84.0518 61.5007L471.556 6.90819C474.229 6.52483 476.405 8.63849 476.405 11.6225V16.5958C476.431 18.0095 475.959 19.3873 475.073 20.4892C474.187 21.5911 472.942 22.3473 471.556 22.6259Z" fill="#999999" stroke="#263238" stroke-linecap="round" stroke-linejoin="round"/>
<path d="M461.226 12.586L468.002 11.6121" stroke="white" stroke-linecap="round" stroke-linejoin="round"/>
<path d="M443.022 15.197L453.383 13.7153" stroke="white" stroke-linecap="round" stroke-linejoin="round"/>
<path d="M119.393 61.3349L436.909 16.0466" stroke="white" stroke-linecap="round" stroke-linejoin="round"/>
<path d="M87.6264 65.8732L111.198 62.5059" stroke="white" stroke-linecap="round" stroke-linejoin="round"/>
<path d="M315.208 309.514L250.409 303.681V212.161L315.259 212.016L315.208 309.514Z" fill="#7E8AF5"/>
<path opacity="0.8" d="M315.208 309.514L250.409 303.681V212.161L315.259 212.016L315.208 309.514Z" fill="white"/>
<path d="M380.058 315.347L315.208 309.514V212.058L380.058 211.923V315.347Z" fill="#7E8AF5"/>
<path opacity="0.6" d="M380.058 315.347L315.208 309.514V212.058L380.058 211.923V315.347Z" fill="white"/>
<path d="M444.897 321.181L380.058 315.347V211.882L444.897 211.737V321.181Z" fill="#7E8AF5"/>
<path opacity="0.4" d="M444.897 321.181L380.058 315.347V211.882L444.897 211.737V321.181Z" fill="white"/>
<path d="M444.897 211.737L250.409 212.161" stroke="#7F7F7F" stroke-linecap="round" stroke-linejoin="round"/>
<path d="M250.409 225.237L444.949 227.371" stroke="#7F7F7F" stroke-linecap="round" stroke-linejoin="round"/>
<path d="M444.897 243.006L250.409 238.313" stroke="#7F7F7F" stroke-linecap="round" stroke-linejoin="round"/>
<path d="M250.409 251.43L444.949 258.683" stroke="#7F7F7F" stroke-linecap="round" stroke-linejoin="round"/>
<path d="M444.897 274.276L250.409 264.454" stroke="#7F7F7F" stroke-linecap="round" stroke-linejoin="round"/>
<path d="M250.409 277.53L444.949 289.911" stroke="#7F7F7F" stroke-linecap="round" stroke-linejoin="round"/>
<path d="M444.897 305.546L250.409 290.605" stroke="#7F7F7F" stroke-linecap="round" stroke-linejoin="round"/>
<path d="M250.409 303.681L444.949 321.181" stroke="#7F7F7F" stroke-linecap="round" stroke-linejoin="round"/>
<path d="M266.573 305.142V212.12" stroke="#7F7F7F" stroke-linecap="round" stroke-linejoin="round"/>
<path d="M250.409 212.161V303.681" stroke="#7F7F7F" stroke-linecap="round" stroke-linejoin="round"/>
<path d="M298.993 308.053V212.058" stroke="#7F7F7F" stroke-linecap="round" stroke-linejoin="round"/>
<path d="M282.788 212.058V306.561" stroke="#7F7F7F" stroke-linecap="round" stroke-linejoin="round"/>
<path d="M331.423 310.975V211.985" stroke="#7F7F7F" stroke-linecap="round" stroke-linejoin="round"/>
<path d="M315.208 212.058V309.556" stroke="#7F7F7F" stroke-linecap="round" stroke-linejoin="round"/>
<path d="M363.843 313.887V211.913" stroke="#7F7F7F" stroke-linecap="round" stroke-linejoin="round"/>
<path d="M347.627 211.944V312.446" stroke="#7F7F7F" stroke-linecap="round" stroke-linejoin="round"/>
<path d="M396.262 316.808V211.84" stroke="#7F7F7F" stroke-linecap="round" stroke-linejoin="round"/>
<path d="M380.058 211.882V315.347" stroke="#7F7F7F" stroke-linecap="round" stroke-linejoin="round"/>
<path d="M428.693 319.72V211.768" stroke="#7F7F7F" stroke-linecap="round" stroke-linejoin="round"/>
<path d="M412.478 211.809V318.269" stroke="#7F7F7F" stroke-linecap="round" stroke-linejoin="round"/>
<path d="M444.897 211.737V321.181" stroke="#7F7F7F" stroke-linecap="round" stroke-linejoin="round"/>
<path d="M250.409 212.161V303.681L444.949 321.181V211.737L250.409 212.161Z" stroke="#263238" stroke-linecap="round" stroke-linejoin="round"/>
<path d="M258.47 304.012L253.601 303.577V277.333L258.47 277.643V304.012Z" fill="#263238"/>
<path d="M263.33 304.458L258.47 304.013V264.475L263.33 264.723V304.458Z" fill="#7E8AF5"/>
<path d="M274.675 305.473L269.816 305.038V258.413L274.675 258.621V305.473Z" fill="#263238"/>
<path d="M279.545 305.909L274.675 305.473V251.896L279.545 252.072V305.909Z" fill="#7E8AF5"/>
<path d="M290.89 306.924L286.031 306.489V265.853L290.89 266.101V306.924Z" fill="#263238"/>
<path d="M295.749 307.38L290.89 306.945V259.284L295.749 259.491V307.38Z" fill="#7E8AF5"/>
<path d="M307.105 308.416L302.236 307.981V280.441L307.105 280.752V308.416Z" fill="#263238" stroke="#263238" stroke-linecap="round" stroke-linejoin="round"/>
<path d="M311.965 308.81L307.105 308.374V275.219L311.965 275.499V308.81Z" fill="#7E8AF5" stroke="#7E8AF5" stroke-linecap="round" stroke-linejoin="round"/>
<path d="M323.31 309.825L318.451 309.39V262.216L323.31 262.433V309.825Z" fill="#263238"/>
<path d="M328.18 310.26L323.31 309.825V271.365L328.18 271.624V310.26Z" fill="#7E8AF5"/>
<path d="M339.515 311.276L334.655 310.84V269.935L339.515 270.184V311.276Z" fill="#263238"/>
<path d="M344.384 311.711L339.525 311.276V263.159L344.384 263.376V311.711Z" fill="#7E8AF5"/>
<path d="M355.74 312.726L350.87 312.291V261.149L355.74 261.356V312.726Z" fill="#263238"/>
<path d="M360.6 313.161L355.74 312.726V265.179L360.6 265.407V313.161Z" fill="#7E8AF5"/>
<path d="M371.945 314.177L367.086 313.742V250.746L371.945 250.912V314.177Z" fill="#263238"/>
<path d="M376.815 314.632L371.945 314.187V243.421L376.815 243.555V314.632Z" fill="#7E8AF5"/>
<path d="M388.212 315.668L383.352 315.233V255.906L388.212 256.082V315.668Z" fill="#263238"/>
<path d="M393.019 252.621V316.073L388.212 315.669V252.466L393.019 252.621Z" fill="#7E8AF5"/>
<path d="M404.375 317.088L399.505 316.653V248.477L404.375 248.622V317.088Z" fill="#263238"/>
<path d="M409.234 317.523L404.375 317.088V250.031L409.234 250.176V317.523Z" fill="#7E8AF5"/>
<path d="M420.58 318.539L415.72 318.103V238.997L420.58 239.1V318.539Z" fill="#263238"/>
<path d="M425.45 318.974L420.58 318.539V234.738L425.45 234.821V318.974Z" fill="#7E8AF5"/>
<path d="M436.795 319.989L431.925 319.554V226.771L436.795 226.822V319.989Z" fill="#263238"/>
<path d="M441.654 320.424L436.795 319.989V222.896H441.654V320.424Z" fill="#7E8AF5"/>
<path d="M316.586 261.117L302.484 260.496C301.713 260.5 300.967 260.217 300.392 259.702C299.818 259.187 299.456 258.476 299.376 257.709V248.715C299.408 248.342 299.515 247.979 299.689 247.648C299.864 247.316 300.103 247.023 300.393 246.786C300.683 246.548 301.017 246.371 301.376 246.265C301.735 246.158 302.112 246.125 302.484 246.166L316.586 246.591C317.361 246.573 318.115 246.851 318.692 247.369C319.27 247.886 319.628 248.605 319.694 249.378V258.558C319.666 258.933 319.562 259.299 319.389 259.633C319.216 259.967 318.977 260.262 318.686 260.501C318.396 260.741 318.06 260.918 317.699 261.024C317.338 261.13 316.959 261.162 316.586 261.117Z" fill="white" stroke="#263238" stroke-linecap="round" stroke-linejoin="round"/>
<path d="M303.437 257.056C302.96 256.989 302.524 256.746 302.217 256.374C301.91 256.001 301.754 255.528 301.78 255.046V254.538H303.23V255.16C303.23 255.668 303.531 255.896 304.018 255.916C304.505 255.937 304.805 255.73 304.805 255.201C304.805 254.673 304.525 254.165 303.5 253.45C302.256 252.57 301.821 251.896 301.821 250.995C301.804 250.767 301.833 250.537 301.905 250.32C301.977 250.103 302.092 249.903 302.242 249.73C302.393 249.558 302.576 249.417 302.781 249.316C302.986 249.214 303.209 249.155 303.437 249.14V248.425H304.681V249.14C305.156 249.205 305.589 249.447 305.893 249.818C306.197 250.189 306.348 250.661 306.318 251.14V251.43H304.878V251.109C304.89 251.006 304.878 250.901 304.843 250.803C304.809 250.705 304.752 250.617 304.679 250.544C304.605 250.471 304.515 250.416 304.417 250.383C304.318 250.35 304.214 250.339 304.111 250.352C303.624 250.352 303.355 250.549 303.355 251.026C303.355 251.503 303.634 251.989 304.66 252.725C305.903 253.627 306.339 254.29 306.339 255.243C306.358 255.478 306.331 255.714 306.258 255.938C306.184 256.162 306.067 256.369 305.913 256.546C305.758 256.724 305.569 256.869 305.358 256.973C305.146 257.076 304.916 257.136 304.681 257.149V257.978H303.437V257.056Z" fill="#263238"/>
<path d="M314.887 254.258V248.819L311.509 248.705V254.124L309.095 254.041C310.742 255.895 311.561 256.828 313.239 258.693L317.332 254.341L314.887 254.258Z" fill="#999999" stroke="#263238" stroke-linecap="round" stroke-linejoin="round"/>
<path d="M406.561 240.033L392.45 239.712C391.653 239.713 390.887 239.408 390.308 238.86C389.73 238.313 389.384 237.564 389.341 236.769V226.978C389.376 226.188 389.723 225.444 390.306 224.91C390.889 224.376 391.66 224.095 392.45 224.128L406.561 224.253C407.359 224.252 408.127 224.558 408.706 225.108C409.285 225.657 409.63 226.409 409.67 227.206V237.152C409.659 237.547 409.57 237.935 409.407 238.295C409.244 238.655 409.011 238.978 408.722 239.247C408.432 239.515 408.092 239.723 407.721 239.858C407.35 239.993 406.956 240.052 406.561 240.033Z" fill="white" stroke="#263238" stroke-linecap="round" stroke-linejoin="round"/>
<path d="M393.392 235.94C392.899 235.854 392.456 235.586 392.151 235.188C391.846 234.791 391.701 234.294 391.745 233.795V233.205H393.185V233.889C393.174 233.996 393.187 234.105 393.223 234.207C393.259 234.309 393.317 234.401 393.394 234.478C393.47 234.554 393.563 234.613 393.665 234.649C393.767 234.685 393.875 234.698 393.983 234.686C394.091 234.702 394.201 234.693 394.305 234.658C394.409 234.624 394.503 234.565 394.579 234.487C394.656 234.41 394.713 234.315 394.746 234.211C394.78 234.107 394.788 233.996 394.77 233.889C394.77 233.246 394.491 232.78 393.465 232.024C392.222 231.091 391.786 230.366 391.786 229.392C391.736 228.906 391.874 228.419 392.174 228.033C392.473 227.647 392.909 227.392 393.392 227.32V226.563H394.646V227.351C395.138 227.43 395.581 227.694 395.885 228.088C396.189 228.483 396.332 228.979 396.283 229.475V229.723H394.843V229.371C394.859 229.265 394.851 229.156 394.819 229.054C394.787 228.951 394.732 228.857 394.658 228.779C394.584 228.701 394.493 228.641 394.392 228.604C394.291 228.566 394.183 228.552 394.076 228.563C393.972 228.549 393.867 228.56 393.767 228.594C393.668 228.627 393.578 228.683 393.504 228.757C393.43 228.832 393.374 228.922 393.34 229.021C393.306 229.12 393.296 229.226 393.31 229.33C393.31 229.92 393.589 230.366 394.615 231.143C395.869 232.075 396.304 232.801 396.304 233.826C396.346 234.318 396.197 234.808 395.888 235.193C395.58 235.579 395.135 235.831 394.646 235.899V236.79H393.392V235.94Z" fill="#263238"/>
<path d="M401.474 231.547V237.432L404.852 237.505V231.599H407.266L403.121 226.646L399.029 231.475L401.474 231.547Z" fill="#999999" stroke="#263238" stroke-linecap="round" stroke-linejoin="round"/>
<path d="M345.493 159.144C349.822 160.072 354.247 160.479 358.672 160.356C383.591 159.682 406.219 140.97 406.333 116.528C406.406 93.102 382.834 75.2188 358.672 78.6794V119.523C354.307 132.744 349.914 145.95 345.493 159.144Z" fill="#7E8AF5" stroke="#263238" stroke-linecap="round" stroke-linejoin="round"/>
<path d="M358.672 119.523V78.6794C335.412 81.0625 310.669 99.3084 311.011 122.507C311.301 140.007 326.884 155.88 345.452 159.144C349.907 145.944 354.314 132.737 358.672 119.523Z" fill="#999999" stroke="#263238" stroke-linecap="round" stroke-linejoin="round"/>
<path d="M341.39 102.852C341.36 102.484 341.253 102.127 341.076 101.804C340.9 101.48 340.657 101.198 340.364 100.974C340.071 100.75 339.734 100.591 339.375 100.505C339.017 100.42 338.644 100.411 338.282 100.479C337.503 100.493 336.757 100.792 336.184 101.319C335.611 101.846 335.252 102.564 335.173 103.339V104.976C335.205 105.343 335.313 105.7 335.49 106.023C335.667 106.346 335.91 106.629 336.202 106.853C336.494 107.077 336.83 107.238 337.189 107.325C337.547 107.412 337.919 107.424 338.282 107.359C339.06 107.345 339.806 107.047 340.379 106.52C340.952 105.992 341.311 105.274 341.39 104.499" stroke="#263238" stroke-linecap="round" stroke-linejoin="round"/>
<path d="M332.739 134.35V139.644C332.761 139.89 332.834 140.129 332.952 140.346C333.069 140.563 333.23 140.754 333.424 140.907C333.618 141.06 333.841 141.172 334.079 141.236C334.317 141.301 334.566 141.316 334.811 141.281V141.281C335.321 141.285 335.815 141.099 336.198 140.761C336.58 140.422 336.824 139.955 336.883 139.447V126.113C336.907 125.767 337.056 125.442 337.302 125.198C337.548 124.954 337.874 124.808 338.22 124.786C338.39 124.751 338.566 124.751 338.737 124.789C338.907 124.826 339.067 124.899 339.207 125.002C339.347 125.106 339.464 125.239 339.549 125.391C339.634 125.543 339.686 125.711 339.701 125.885V139.354C339.723 139.601 339.794 139.841 339.911 140.059C340.029 140.277 340.189 140.469 340.383 140.623C340.577 140.777 340.8 140.89 341.039 140.956C341.278 141.021 341.528 141.036 341.773 141.001C342.286 141.005 342.781 140.818 343.164 140.477C343.546 140.137 343.789 139.666 343.846 139.157V126.227" stroke="#263238" stroke-linecap="round" stroke-linejoin="round"/>
<path d="M332.739 130.878V132.433" stroke="#263238" stroke-linecap="round" stroke-linejoin="round"/>
<path d="M343.825 124.341V113.835C343.843 113.669 343.922 113.516 344.046 113.405C344.171 113.294 344.332 113.233 344.498 113.234V113.234C344.576 113.22 344.656 113.224 344.733 113.243C344.81 113.263 344.882 113.298 344.944 113.346C345.007 113.395 345.058 113.456 345.096 113.526C345.133 113.596 345.155 113.673 345.162 113.752V119.968C345.18 120.347 345.347 120.702 345.627 120.958C345.906 121.214 346.275 121.35 346.654 121.336C347.093 121.368 347.527 121.228 347.866 120.946C348.204 120.664 348.42 120.261 348.467 119.823V112.332C348.467 110.364 346.591 108.903 344.27 109.068L332.293 109.939C329.972 110.115 328.149 111.814 328.149 113.752V121.004C328.17 121.38 328.339 121.732 328.618 121.984C328.897 122.236 329.265 122.368 329.641 122.351C330.077 122.386 330.511 122.25 330.849 121.972C331.187 121.694 331.404 121.295 331.454 120.859V114.643C331.472 114.476 331.55 114.322 331.674 114.209C331.798 114.096 331.96 114.033 332.127 114.031V114.031C332.205 114.02 332.285 114.024 332.361 114.044C332.437 114.064 332.508 114.1 332.57 114.148C332.632 114.197 332.684 114.257 332.721 114.326C332.759 114.395 332.783 114.471 332.79 114.549V129.304" stroke="#263238" stroke-linecap="round" stroke-linejoin="round"/>
<path d="M381.923 100.873C382.14 102.178 382.461 104.064 382.461 104.064L375.063 104.613C375.063 104.613 375.747 100.469 375.799 100.158C375.922 99.4187 376.275 98.7369 376.806 98.2089C377.338 97.6808 378.022 97.3333 378.762 97.2153C379.474 97.1947 380.168 97.4352 380.714 97.8915C381.26 98.3477 381.62 98.9881 381.726 99.6916" stroke="#263238" stroke-linecap="round" stroke-linejoin="round"/>
<path d="M388.315 117.305V109.566C388.315 107.494 386.43 106.012 384.119 106.178" stroke="#263238" stroke-linecap="round" stroke-linejoin="round"/>
<path d="M383.674 129.687V127.097L386.036 126.962C385.093 120.631 384.617 117.461 383.674 111.151C383.686 110.982 383.761 110.824 383.884 110.708C384.006 110.591 384.168 110.524 384.337 110.519C384.416 110.507 384.497 110.512 384.575 110.534C384.652 110.555 384.724 110.592 384.787 110.643C384.849 110.693 384.9 110.757 384.937 110.828C384.973 110.899 384.995 110.978 385 111.058V117.492C385.011 117.878 385.174 118.243 385.453 118.509C385.733 118.775 386.106 118.92 386.492 118.912" stroke="#263238" stroke-linecap="round" stroke-linejoin="round"/>
<path d="M383.674 133.034V131.241" stroke="#263238" stroke-linecap="round" stroke-linejoin="round"/>
<path d="M371.769 125.812C371.655 126.579 371.603 126.962 371.489 127.729L373.851 127.594V137.727C373.869 137.978 373.938 138.222 374.053 138.445C374.168 138.669 374.327 138.866 374.521 139.026C374.715 139.186 374.939 139.305 375.18 139.375C375.421 139.446 375.674 139.467 375.924 139.437C376.444 139.439 376.946 139.245 377.33 138.893C377.714 138.542 377.952 138.059 377.996 137.541V127.366L379.529 127.283V137.458C379.547 137.708 379.616 137.953 379.731 138.176C379.846 138.399 380.005 138.597 380.199 138.757C380.393 138.917 380.617 139.035 380.858 139.106C381.099 139.177 381.352 139.198 381.601 139.167C382.123 139.169 382.627 138.974 383.011 138.62C383.395 138.267 383.632 137.781 383.674 137.261V134.837" stroke="#263238" stroke-linecap="round" stroke-linejoin="round"/>
<path d="M380.534 106.437L373.406 106.955C372.353 106.991 371.35 107.412 370.587 108.138C369.823 108.863 369.352 109.843 369.261 110.892V118.445C369.275 118.819 369.432 119.173 369.7 119.434C369.969 119.695 370.327 119.842 370.701 119.844C371.147 119.878 371.589 119.736 371.93 119.447C372.272 119.158 372.485 118.746 372.525 118.3V111.876C372.54 111.708 372.616 111.552 372.738 111.435C372.86 111.319 373.02 111.251 373.188 111.244V111.244C373.268 111.233 373.349 111.238 373.426 111.259C373.503 111.28 373.576 111.317 373.638 111.368C373.7 111.419 373.751 111.482 373.788 111.553C373.825 111.625 373.846 111.703 373.851 111.783L372.245 122.662" stroke="#263238" stroke-linecap="round" stroke-linejoin="round"/>
<path d="M423.709 112.798L418.445 113.14C417.992 113.203 417.53 113.17 417.089 113.044C416.649 112.919 416.239 112.703 415.887 112.411C415.534 112.118 415.246 111.756 415.041 111.347C414.836 110.937 414.718 110.489 414.695 110.032V105.338C414.76 104.375 415.179 103.47 415.872 102.797C416.564 102.124 417.481 101.73 418.445 101.691L423.709 101.298C424.162 101.234 424.624 101.265 425.065 101.39C425.505 101.515 425.915 101.731 426.267 102.024C426.619 102.316 426.906 102.68 427.11 103.09C427.314 103.5 427.429 103.948 427.449 104.406V109.182C427.385 110.142 426.967 111.043 426.276 111.711C425.585 112.38 424.67 112.767 423.709 112.798Z" fill="#999999" stroke="#263238" stroke-linecap="round" stroke-linejoin="round"/>
<path d="M436.422 109.255L433.21 109.473V108.074C434.443 105.349 435.054 103.992 436.318 101.256L438.152 101.122V107.742H438.94V109.141H438.152V110.923L436.463 111.037L436.422 109.255ZM436.422 107.856V104.043C435.769 105.618 435.438 106.406 434.774 107.97L436.422 107.856Z" fill="#263238"/>
<path d="M439.686 108.447V107.67L441.271 107.566V108.447C441.271 109.151 441.613 109.379 442.151 109.338C442.69 109.296 443.022 109.027 443.022 108.302V106.095C443.022 105.39 442.68 105.142 442.151 105.183C441.623 105.225 441.271 105.504 441.271 106.219V106.302L439.686 106.416C439.81 104.209 439.872 103.111 439.986 100.914L444.421 100.583V101.992L441.488 102.199C441.437 103.142 441.405 103.619 441.354 104.561C441.51 104.317 441.724 104.114 441.977 103.971C442.23 103.828 442.514 103.75 442.804 103.743C444.037 103.66 444.669 104.416 444.669 105.867V108.095C444.7 108.438 444.658 108.784 444.545 109.109C444.432 109.435 444.251 109.733 444.013 109.983C443.776 110.233 443.488 110.429 443.169 110.559C442.85 110.689 442.506 110.75 442.162 110.737C441.839 110.804 441.504 110.792 441.187 110.704C440.869 110.616 440.577 110.453 440.334 110.229C440.092 110.005 439.907 109.726 439.794 109.416C439.681 109.107 439.644 108.774 439.686 108.447Z" fill="#263238"/>
<path d="M445.757 104.458V101.992C445.74 101.77 445.769 101.548 445.843 101.338C445.918 101.129 446.036 100.938 446.189 100.777C446.343 100.617 446.529 100.491 446.735 100.407C446.941 100.324 447.162 100.285 447.384 100.293C447.592 100.246 447.808 100.251 448.015 100.305C448.221 100.36 448.411 100.463 448.569 100.606C448.727 100.749 448.849 100.928 448.924 101.127C448.999 101.327 449.025 101.542 449 101.753V104.23C449.02 104.451 448.992 104.673 448.918 104.882C448.845 105.092 448.728 105.283 448.575 105.444C448.422 105.604 448.237 105.731 448.032 105.814C447.826 105.898 447.606 105.937 447.384 105.929C447.174 105.975 446.957 105.97 446.749 105.915C446.542 105.86 446.351 105.756 446.192 105.612C446.033 105.468 445.91 105.288 445.835 105.088C445.759 104.887 445.732 104.671 445.757 104.458ZM447.933 104.375V101.764C447.933 101.329 447.715 101.163 447.384 101.184C447.052 101.204 446.824 101.412 446.824 101.847V104.458C446.824 104.893 447.032 105.059 447.384 105.038C447.736 105.017 447.933 104.81 447.933 104.375ZM451.259 100.147L452.295 100.075C450.637 104.157 449.808 106.198 448.151 110.26L447.115 110.332C448.772 106.271 449.601 104.24 451.259 100.158V100.147ZM450.451 108.664V106.188C450.431 105.968 450.459 105.745 450.533 105.537C450.606 105.328 450.723 105.137 450.876 104.977C451.029 104.817 451.215 104.692 451.42 104.61C451.625 104.527 451.846 104.489 452.067 104.499C452.277 104.451 452.496 104.454 452.704 104.508C452.912 104.562 453.105 104.666 453.265 104.81C453.424 104.955 453.547 105.136 453.622 105.338C453.696 105.54 453.721 105.757 453.694 105.97V108.447C453.712 108.668 453.682 108.89 453.608 109.099C453.533 109.308 453.415 109.498 453.261 109.658C453.107 109.818 452.921 109.943 452.716 110.025C452.51 110.107 452.289 110.145 452.067 110.136C451.858 110.182 451.641 110.178 451.434 110.123C451.227 110.068 451.036 109.964 450.877 109.819C450.719 109.675 450.597 109.495 450.523 109.294C450.449 109.093 450.424 108.877 450.451 108.664ZM452.627 108.592V105.97C452.627 105.535 452.409 105.369 452.067 105.39C451.725 105.411 451.518 105.608 451.518 106.053V108.664C451.518 109.11 451.725 109.276 452.067 109.255C452.409 109.234 452.627 109.037 452.627 108.592Z" fill="#263238"/>
<path d="M423.709 129.635L418.445 129.905C417.987 129.958 417.523 129.916 417.082 129.782C416.641 129.649 416.232 129.426 415.88 129.128C415.528 128.829 415.242 128.462 415.038 128.049C414.834 127.635 414.717 127.184 414.695 126.724V121.989C414.759 121.031 415.18 120.131 415.874 119.468C416.568 118.805 417.485 118.425 418.445 118.404L423.709 118.083C424.166 118.026 424.63 118.065 425.071 118.197C425.512 118.329 425.922 118.551 426.273 118.849C426.624 119.147 426.91 119.514 427.113 119.928C427.315 120.342 427.43 120.793 427.449 121.253V126.061C427.387 127.017 426.968 127.915 426.275 128.577C425.583 129.239 424.667 129.616 423.709 129.635Z" fill="#7E8AF5" stroke="#263238" stroke-linecap="round" stroke-linejoin="round"/>
<path d="M433.562 125.802V125.025L435.158 124.942V125.812C435.158 126.517 435.489 126.745 436.028 126.724C436.567 126.703 436.898 126.423 436.898 125.688V123.491C436.898 122.797 436.567 122.548 436.028 122.579C435.489 122.611 435.158 122.89 435.158 123.616V123.698L433.562 123.781L433.873 118.311L438.308 118.041V119.45L435.375 119.616C435.313 120.559 435.293 121.025 435.23 121.958C435.387 121.715 435.601 121.515 435.855 121.375C436.108 121.236 436.392 121.162 436.681 121.16C437.924 121.087 438.546 121.854 438.546 123.294V125.512C438.58 125.853 438.539 126.198 438.426 126.522C438.313 126.846 438.131 127.141 437.892 127.388C437.654 127.634 437.364 127.826 437.044 127.949C436.724 128.073 436.381 128.125 436.039 128.102C435.715 128.169 435.379 128.158 435.06 128.069C434.742 127.98 434.449 127.817 434.206 127.591C433.964 127.366 433.779 127.086 433.667 126.775C433.555 126.463 433.519 126.13 433.562 125.802Z" fill="#263238"/>
<path d="M439.686 125.47V124.703L441.271 124.61V125.501C441.271 126.195 441.613 126.434 442.152 126.402C442.69 126.371 443.022 126.112 443.022 125.366V123.159C443.022 122.455 442.68 122.206 442.152 122.237C441.623 122.268 441.271 122.548 441.271 123.273V123.356L439.686 123.45C439.81 121.243 439.872 120.144 439.986 117.948L444.421 117.678V119.088L441.488 119.253C441.437 120.196 441.406 120.673 441.354 121.616C441.51 121.372 441.724 121.171 441.977 121.032C442.231 120.893 442.515 120.819 442.804 120.818C444.037 120.745 444.669 121.512 444.669 122.963V125.19C444.703 125.533 444.662 125.878 444.549 126.203C444.436 126.528 444.255 126.825 444.016 127.073C443.778 127.321 443.489 127.514 443.169 127.64C442.849 127.766 442.505 127.821 442.162 127.801C441.835 127.87 441.496 127.859 441.175 127.768C440.853 127.678 440.558 127.511 440.315 127.282C440.072 127.053 439.888 126.769 439.778 126.453C439.668 126.138 439.637 125.8 439.686 125.47Z" fill="#263238"/>
<path d="M445.757 121.595V119.129C445.738 118.908 445.766 118.686 445.84 118.477C445.914 118.267 446.032 118.077 446.186 117.917C446.341 117.758 446.528 117.634 446.734 117.554C446.941 117.473 447.162 117.438 447.384 117.451C447.594 117.406 447.811 117.412 448.018 117.469C448.225 117.525 448.415 117.63 448.574 117.775C448.732 117.92 448.853 118.101 448.927 118.302C449.001 118.503 449.026 118.719 449 118.932V121.409C449.02 121.628 448.992 121.849 448.919 122.057C448.845 122.265 448.728 122.455 448.574 122.613C448.421 122.771 448.235 122.895 448.03 122.975C447.824 123.055 447.604 123.09 447.384 123.077C447.174 123.121 446.956 123.114 446.749 123.058C446.542 123.001 446.351 122.896 446.192 122.752C446.033 122.607 445.911 122.427 445.835 122.226C445.76 122.025 445.733 121.808 445.757 121.595ZM447.933 121.543V118.932C447.933 118.487 447.715 118.321 447.384 118.342C447.052 118.362 446.824 118.559 446.824 118.994V121.605C446.824 122.041 447.032 122.217 447.384 122.196C447.736 122.175 447.933 121.978 447.933 121.543ZM451.259 117.399L452.295 117.337C450.637 121.398 449.808 123.429 448.151 127.47L447.115 127.522C448.772 123.45 449.601 121.419 451.259 117.357V117.399ZM450.451 125.905V123.429C450.431 123.209 450.459 122.988 450.532 122.78C450.606 122.572 450.723 122.383 450.877 122.225C451.03 122.066 451.216 121.943 451.421 121.863C451.627 121.783 451.847 121.748 452.067 121.761C452.278 121.716 452.497 121.723 452.705 121.78C452.913 121.837 453.105 121.943 453.264 122.089C453.423 122.235 453.545 122.416 453.62 122.619C453.694 122.821 453.72 123.039 453.694 123.253V125.74C453.714 125.96 453.686 126.182 453.612 126.391C453.537 126.599 453.419 126.79 453.264 126.948C453.11 127.107 452.923 127.23 452.716 127.309C452.509 127.388 452.288 127.422 452.067 127.408C451.852 127.452 451.629 127.444 451.418 127.384C451.206 127.323 451.013 127.212 450.854 127.06C450.695 126.908 450.575 126.72 450.505 126.512C450.434 126.303 450.416 126.081 450.451 125.864V125.905ZM452.627 125.905V123.284C452.627 122.849 452.409 122.673 452.067 122.693C451.725 122.714 451.518 122.911 451.518 123.346V125.967C451.518 126.403 451.725 126.579 452.067 126.558C452.409 126.537 452.627 126.258 452.627 125.822V125.905Z" fill="#263238"/>
<path d="M169.593 183.295L104.753 184.798V78.3375L169.593 70.8672V183.295Z" fill="#7E8AF5"/>
<path opacity="0.8" d="M169.593 183.295L104.753 184.798V78.3375L169.593 70.8672V183.295Z" fill="white"/>
<path d="M234.484 181.803L169.593 183.295V70.8673L234.443 63.397L234.484 181.803Z" fill="#7E8AF5"/>
<path opacity="0.6" d="M234.484 181.803L169.593 183.295V70.8673L234.443 63.397L234.484 181.803Z" fill="white"/>
<path d="M299.334 180.311L234.484 181.803V63.3969L299.334 55.9265V180.311Z" fill="#7E8AF5"/>
<path opacity="0.4" d="M299.334 180.311L234.484 181.803V63.3969L299.334 55.9265V180.311Z" fill="white"/>
<path d="M299.334 55.9265L104.795 78.3375" stroke="#7F7F7F" stroke-linecap="round" stroke-linejoin="round"/>
<path d="M104.795 93.5476L299.334 73.6958" stroke="#7F7F7F" stroke-linecap="round" stroke-linejoin="round"/>
<path d="M299.334 91.4651L104.795 108.758" stroke="#7F7F7F" stroke-linecap="round" stroke-linejoin="round"/>
<path d="M104.795 123.988L299.334 109.265" stroke="#7F7F7F" stroke-linecap="round" stroke-linejoin="round"/>
<path d="M299.334 127.004L104.795 139.168" stroke="#7F7F7F" stroke-linecap="round" stroke-linejoin="round"/>
<path d="M104.795 154.378L299.334 144.773" stroke="#7F7F7F" stroke-linecap="round" stroke-linejoin="round"/>
<path d="M299.334 162.542L104.795 169.577" stroke="#7F7F7F" stroke-linecap="round" stroke-linejoin="round"/>
<path d="M104.795 184.798L299.334 180.311" stroke="#7F7F7F" stroke-linecap="round" stroke-linejoin="round"/>
<path d="M120.999 184.425V76.4727" stroke="#7F7F7F" stroke-linecap="round" stroke-linejoin="round"/>
<path d="M104.795 78.3376V184.798" stroke="#7F7F7F" stroke-linecap="round" stroke-linejoin="round"/>
<path d="M153.43 183.668V72.7322" stroke="#7F7F7F" stroke-linecap="round" stroke-linejoin="round"/>
<path d="M137.215 74.5972V184.083" stroke="#7F7F7F" stroke-linecap="round" stroke-linejoin="round"/>
<path d="M185.849 182.922V69.0022" stroke="#7F7F7F" stroke-linecap="round" stroke-linejoin="round"/>
<path d="M169.593 70.8672V183.295" stroke="#7F7F7F" stroke-linecap="round" stroke-linejoin="round"/>
<path d="M218.29 182.176V65.262" stroke="#7F7F7F" stroke-linecap="round" stroke-linejoin="round"/>
<path d="M202.065 67.1372V182.549" stroke="#7F7F7F" stroke-linecap="round" stroke-linejoin="round"/>
<path d="M250.699 181.43V61.532" stroke="#7F7F7F" stroke-linecap="round" stroke-linejoin="round"/>
<path d="M234.484 63.397V181.803" stroke="#7F7F7F" stroke-linecap="round" stroke-linejoin="round"/>
<path d="M283.119 180.684V57.802" stroke="#7F7F7F" stroke-linecap="round" stroke-linejoin="round"/>
<path d="M266.904 59.6667V181.057" stroke="#7F7F7F" stroke-linecap="round" stroke-linejoin="round"/>
<path d="M299.334 55.9265V180.311" stroke="#7F7F7F" stroke-linecap="round" stroke-linejoin="round"/>
<path d="M104.795 78.3375V184.798L299.334 180.311V55.9783L104.795 78.3375Z" stroke="#263238" stroke-linecap="round" stroke-linejoin="round"/>
<path d="M104.795 169.577H105.955" stroke="#263238" stroke-linecap="round" stroke-linejoin="round"/>
<path d="M107.934 169.474L118.855 169.08" stroke="#263238" stroke-linecap="round" stroke-linejoin="round" stroke-dasharray="1.71 1.71"/>
<path d="M119.86 169.038H121.01L121.828 168.23" stroke="#263238" stroke-linecap="round" stroke-linejoin="round"/>
<path d="M123.445 166.583C128.304 161.765 130.697 159.33 135.588 154.429" stroke="#263238" stroke-linecap="round" stroke-linejoin="round" stroke-dasharray="1.98 1.98"/>
<path d="M136.438 153.611L137.256 152.782C137.588 153.072 137.753 153.228 138.075 153.528" stroke="#263238" stroke-linecap="round" stroke-linejoin="round"/>
<path d="M139.328 154.709L143.856 158.853" stroke="#263238" stroke-linecap="round" stroke-linejoin="round" stroke-dasharray="1.58 1.58"/>
<path d="M144.498 159.485L145.317 160.252C145.472 159.817 145.545 159.599 145.69 159.164" stroke="#263238" stroke-linecap="round" stroke-linejoin="round"/>
<path d="M146.353 157.144C148.902 149.601 150.176 145.809 152.725 138.183" stroke="#263238" stroke-linecap="round" stroke-linejoin="round" stroke-dasharray="1.83 1.83"/>
<path d="M153.015 137.23C153.171 136.784 153.243 136.567 153.388 136.132L154.538 136.059" stroke="#263238" stroke-linecap="round" stroke-linejoin="round"/>
<path d="M156.517 135.935L159.408 135.759" stroke="#263238" stroke-linecap="round" stroke-linejoin="round" stroke-dasharray="1.67 1.67"/>
<path d="M160.372 135.697L161.532 135.624L162.05 134.588" stroke="#263238" stroke-linecap="round" stroke-linejoin="round"/>
<path d="M163.065 132.516L168.619 121.118" stroke="#263238" stroke-linecap="round" stroke-linejoin="round" stroke-dasharray="1.95 1.95"/>
<path d="M169.116 120.113L169.634 119.077L170.795 118.984" stroke="#263238" stroke-linecap="round" stroke-linejoin="round"/>
<path d="M172.784 118.808L183.694 117.979" stroke="#263238" stroke-linecap="round" stroke-linejoin="round" stroke-dasharray="1.71 1.71"/>
<path d="M184.689 117.917L185.849 117.824L186.668 116.943" stroke="#263238" stroke-linecap="round" stroke-linejoin="round"/>
<path d="M187.963 115.544L192.491 110.623" stroke="#263238" stroke-linecap="round" stroke-linejoin="round" stroke-dasharray="1.58 1.58"/>
<path d="M193.133 109.918L193.952 109.017L195.112 108.924" stroke="#263238" stroke-linecap="round" stroke-linejoin="round"/>
<path d="M197.423 108.737L210.167 107.701C212.757 104.831 214.052 103.401 216.643 100.51" stroke="#263238" stroke-linecap="round" stroke-linejoin="round" stroke-dasharray="1.99 1.99"/>
<path d="M217.451 99.5882C217.782 99.2152 217.948 99.039 218.269 98.666L219.088 99.4431" stroke="#263238" stroke-linecap="round" stroke-linejoin="round"/>
<path d="M220.715 100.966C225.564 105.566 227.967 107.887 232.858 112.57" stroke="#263238" stroke-linecap="round" stroke-linejoin="round" stroke-dasharray="1.98 1.98"/>
<path d="M233.666 113.358L234.484 114.146C234.816 113.783 234.971 113.596 235.303 113.223" stroke="#263238" stroke-linecap="round" stroke-linejoin="round"/>
<path d="M236.598 111.773C238.411 109.7 239.313 108.727 241.126 106.675" stroke="#263238" stroke-linecap="round" stroke-linejoin="round" stroke-dasharray="1.58 1.58"/>
<path d="M241.768 105.95L242.587 105.017L243.747 104.924" stroke="#263238" stroke-linecap="round" stroke-linejoin="round"/>
<path d="M245.975 104.738L258.802 103.701C262.045 99.9818 263.661 98.1168 266.904 94.3765L272.737 93.8584" stroke="#263238" stroke-linecap="round" stroke-linejoin="round" stroke-dasharray="1.93 1.93"/>
<path d="M273.857 93.734L275.017 93.6304L275.535 92.47" stroke="#263238" stroke-linecap="round" stroke-linejoin="round"/>
<path d="M276.54 90.2011C278.757 85.2071 279.876 82.6997 282.094 77.6746" stroke="#263238" stroke-linecap="round" stroke-linejoin="round" stroke-dasharray="1.95 1.95"/>
<path d="M282.601 76.5243L283.119 75.3535" stroke="#263238" stroke-linecap="round" stroke-linejoin="round"/>
<path d="M104.795 154.378L120.999 153.58C127.485 150.171 130.729 148.451 137.215 144.959L145.317 144.503C148.56 138.028 150.187 134.764 153.43 128.206C156.673 124.807 158.289 123.108 161.532 119.668C164.775 113.037 166.391 109.701 169.634 102.987C176.12 105.629 179.363 106.965 185.849 109.69C189.092 112.674 190.709 114.177 193.952 117.212C200.438 110.167 203.681 106.603 210.167 99.3913C213.41 92.4598 215.026 89.0302 218.269 81.964C224.755 87.9838 227.998 91.0403 234.484 97.2259C237.727 103.712 239.344 106.965 242.587 113.534L258.802 112.301C262.045 108.613 263.661 106.758 266.904 102.976C270.147 92.3044 271.774 86.9373 275.017 76.1411C278.25 68.8261 279.876 65.148 283.119 57.7605" stroke="#263238" stroke-linecap="round" stroke-linejoin="round"/>
<path d="M135.878 197.397C135.545 197.512 135.194 197.568 134.842 197.563C134.528 197.602 134.21 197.568 133.911 197.465C133.612 197.362 133.341 197.192 133.118 196.968C132.895 196.744 132.726 196.472 132.625 196.173C132.523 195.874 132.491 195.555 132.531 195.242V190.3C132.495 189.984 132.529 189.664 132.632 189.362C132.734 189.061 132.901 188.787 133.122 188.558C133.343 188.329 133.612 188.152 133.909 188.039C134.206 187.927 134.525 187.881 134.842 187.906C135.155 187.866 135.474 187.898 135.773 187.999C136.072 188.101 136.344 188.27 136.568 188.493C136.792 188.716 136.962 188.987 137.065 189.286C137.168 189.585 137.202 189.903 137.163 190.217V195.148C137.182 195.694 137.034 196.233 136.738 196.692C136.842 196.879 137.028 196.91 137.308 196.9H137.536V198.236H137.142C136.866 198.269 136.587 198.203 136.356 198.049C136.124 197.895 135.955 197.664 135.878 197.397ZM135.66 195.325V190.217C135.66 189.543 135.35 189.294 134.863 189.305C134.376 189.315 134.075 189.574 134.075 190.248V195.345C134.075 196.019 134.386 196.267 134.863 196.257C135.339 196.247 135.66 195.967 135.66 195.294V195.325Z" fill="#263238"/>
<path d="M140.354 190.196H138.758V189.16C140.053 189.16 140.509 188.859 140.831 187.937H141.867V197.345H140.333L140.354 190.196Z" fill="#263238"/>
<path d="M200.293 196.63C199.961 196.753 199.61 196.816 199.257 196.817C198.934 196.843 198.609 196.797 198.307 196.681C198.004 196.564 197.732 196.382 197.51 196.146C197.288 195.91 197.122 195.627 197.024 195.318C196.927 195.009 196.9 194.682 196.946 194.361V189.18C196.902 188.857 196.929 188.527 197.026 188.215C197.124 187.903 197.288 187.616 197.509 187.375C197.729 187.133 198 186.944 198.302 186.819C198.604 186.694 198.93 186.637 199.257 186.652C200.759 186.652 201.578 187.512 201.578 189.098V194.278C201.605 194.851 201.457 195.419 201.153 195.905C201.256 196.102 201.443 196.133 201.723 196.122H201.961V197.552H201.557C201.27 197.581 200.982 197.503 200.748 197.333C200.515 197.163 200.353 196.913 200.293 196.63ZM200.075 194.423V189.035C200.075 188.331 199.764 188.061 199.277 188.072C198.79 188.082 198.49 188.362 198.49 189.108V194.444C198.49 195.148 198.801 195.407 199.277 195.407C199.754 195.407 200.075 195.128 200.075 194.444V194.423Z" fill="#263238"/>
<path d="M202.603 195.563C202.591 194.9 202.721 194.242 202.986 193.634C203.25 193.026 203.643 192.482 204.137 192.04C205.297 190.776 205.629 189.968 205.629 189.087C205.629 188.206 205.328 187.958 204.841 187.968C204.354 187.979 204.043 188.258 204.043 189.004V190.04H202.603V189.077C202.603 187.492 203.38 186.569 204.883 186.549C206.385 186.528 207.162 187.409 207.162 188.994C207.162 190.175 206.686 191.232 205.266 192.786C204.354 193.822 204.116 194.288 204.116 194.972V195.19H207.017V196.609L202.603 196.661V195.563Z" fill="#263238"/>
<path d="M265.184 195.863C264.854 195.994 264.503 196.061 264.148 196.06C262.646 196.06 261.827 195.138 261.827 193.48V188.03C261.827 186.373 262.646 185.409 264.148 185.378C265.65 185.347 266.469 186.29 266.469 187.947V193.408C266.492 194.008 266.341 194.601 266.034 195.117C266.148 195.325 266.324 195.356 266.604 195.345H266.842V196.827H266.438C266.146 196.852 265.856 196.767 265.624 196.589C265.392 196.41 265.235 196.152 265.184 195.863ZM264.956 193.542V187.875C264.956 187.129 264.656 186.839 264.169 186.839C263.682 186.839 263.381 187.139 263.381 187.875V193.542C263.381 194.278 263.682 194.579 264.169 194.579C264.656 194.579 264.915 194.278 264.915 193.542H264.956Z" fill="#263238"/>
<path d="M267.412 193.408V192.558H268.852V193.48C268.852 194.216 269.153 194.516 269.639 194.516C270.126 194.516 270.437 194.247 270.437 193.325V192.475C270.437 191.512 270.126 191.159 269.401 191.17H268.893V189.678H269.443C270.012 189.678 270.365 189.398 270.365 188.559V187.802C270.365 187.056 270.044 186.766 269.598 186.766C269.153 186.766 268.862 187.067 268.862 187.751V188.434H267.422V187.885C267.422 186.217 268.199 185.274 269.65 185.254C271.1 185.233 271.888 186.114 271.888 187.782V188.227C271.888 189.346 271.556 190.04 270.852 190.351C271.67 190.662 271.971 191.387 271.971 192.475V193.408C271.971 195.076 271.194 195.998 269.691 196.008C268.189 196.019 267.412 195.097 267.412 193.408Z" fill="#263238"/>
<path d="M163.501 136.971C163.501 136.971 148.073 123.719 158.32 114.964C158.32 114.964 163.262 99.4224 179.498 101.609C195.734 103.795 187.601 94.6045 187.601 94.6045C187.601 94.6045 196.801 99.4224 192.574 103.142C193.844 103.202 195.106 102.906 196.217 102.287C197.329 101.668 198.245 100.752 198.863 99.64C198.863 99.64 201.692 104.675 196.407 106.893C196.407 106.893 203.318 108.644 201.474 112.591C201.474 112.591 196.563 109.98 195.257 119.844C193.952 129.708 178.327 128.268 178.327 128.268L163.501 136.971Z" fill="#263238" stroke="#263238" stroke-linecap="round" stroke-linejoin="round"/>
<path d="M164.485 140.255C164.485 139.748 160.817 150.927 167.79 149.984C171.095 149.539 166.391 140.255 166.391 140.255H164.485Z" fill="#263238" stroke="#263238" stroke-linecap="round" stroke-linejoin="round"/>
<path d="M198.5 110.042C198.5 110.042 194.356 109.379 193.537 114.187" stroke="#7F7F7F" stroke-linecap="round" stroke-linejoin="round"/>
<path d="M188.688 108.892C187.051 111.027 187.601 114.197 187.601 114.197" stroke="#7F7F7F" stroke-linecap="round" stroke-linejoin="round"/>
<path d="M197.33 103.142C195.813 105.215 193.61 106.684 191.113 107.287" stroke="#7F7F7F" stroke-linecap="round" stroke-linejoin="round"/>
<path d="M178.296 108.675C178.296 108.675 184.948 107.359 184.067 114.197" stroke="#7F7F7F" stroke-linecap="round" stroke-linejoin="round"/>
<path d="M210.913 273.976C210.913 273.976 216.435 302.8 210.913 331.044C205.391 359.289 201.982 449.99 201.982 449.99H167.614V269.468L209.183 268.008L210.913 273.976Z" fill="#999999"/>
<path opacity="0.2" d="M190.491 312.654C190.491 312.654 188.999 322.621 196.449 320.103C203.899 317.586 209.069 318.456 202.852 324.092C196.636 329.729 188.015 338.266 186.637 369.142C185.259 400.018 183.125 449.959 183.125 449.959H168.153L165.045 335.282L178.649 315.254L184.979 312.623L190.491 312.654Z" fill="black"/>
<path d="M210.913 273.976C210.913 273.976 216.435 302.8 210.913 331.044C205.391 359.289 201.982 449.99 201.982 449.99H167.614V269.468L209.183 268.008L210.913 273.976Z" stroke="#263238" stroke-linecap="round" stroke-linejoin="round"/>
<path d="M206.769 320.207C206.769 320.207 199.07 318.57 190.491 328.092" stroke="#263238" stroke-linecap="round" stroke-linejoin="round"/>
<path d="M195.382 277.219C195.382 277.219 195.029 309.338 190.885 321.523C186.741 333.707 180.524 390.88 181.218 450H145.69C145.69 450 143.618 343.208 142.219 327.439C140.82 311.669 133.588 314.311 143.597 269.479H196.843L195.382 277.219Z" fill="#999999" stroke="#263238" stroke-linecap="round" stroke-linejoin="round"/>
<path d="M188.647 284.098C191.382 283.912 193.879 283.694 196.148 283.466L196.449 288.761C194.087 288.999 191.476 289.227 188.647 289.414V284.098Z" fill="#263238"/>
<path d="M200.013 283.031C204.303 282.523 207.411 281.995 209.089 281.695L209.804 286.927C207.856 287.279 204.52 287.828 200.013 288.367V283.031Z" fill="#263238"/>
<path d="M141.701 288.253L142.509 283.073C148.332 283.725 153.906 284.16 159.222 284.409L158.869 289.662C153.45 289.372 147.71 288.937 141.701 288.253Z" fill="#263238"/>
<path d="M163.262 284.585C171.365 284.844 178.68 284.699 185.021 284.357V289.662C181.001 289.87 176.587 290.004 171.841 290.004C169.044 290.004 166.122 289.952 163.097 289.849L163.262 284.585Z" fill="#263238"/>
<path d="M262.003 227.952L270.748 222.678C270.748 222.678 274.426 213.042 279.037 210.421C283.648 207.799 288.238 205.385 289.398 206.038C290.559 206.691 289.17 208.887 286.176 211.073C284.311 212.441 289.74 210.12 296.703 206.929C300.847 205.002 305.634 202.318 306.37 203.479C309.074 207.696 295.242 213.063 295.242 213.063C295.242 213.063 299.987 212.835 298.143 216.337C298.143 216.337 298.837 219.621 297.221 220.72L295.387 222.958C294.633 225.167 293.177 227.07 291.242 228.376C287.07 230.7 282.427 232.049 277.659 232.324L266.158 240.375L262.003 227.952Z" fill="white" stroke="#263238" stroke-linecap="round" stroke-linejoin="round"/>
<path d="M292.382 213.488C292.382 213.488 282.601 215.456 283.119 217.632C283.637 219.808 286.673 218.274 286.673 218.274C286.673 218.274 283.441 219.373 283.793 220.575C284.145 221.776 286.435 221.756 286.435 221.756C286.435 221.756 283.441 222.44 283.793 223.828C284.145 225.216 286.134 225.693 287.782 225.475C289.429 225.258 290.693 224.698 291.16 225.527C291.626 226.356 286.663 225.03 283.793 227.061" stroke="#263238" stroke-linecap="round" stroke-linejoin="round"/>
<path d="M284.601 211.84C284.448 213.055 283.94 214.197 283.14 215.125C281.949 216.223 282.985 219.942 278.612 223.994" stroke="#263238" stroke-linecap="round" stroke-linejoin="round"/>
<path d="M294.537 217.259L289.098 217.912" stroke="#263238" stroke-linecap="round" stroke-linejoin="round"/>
<path d="M294.102 221.362L289.098 221.777" stroke="#263238" stroke-linecap="round" stroke-linejoin="round"/>
<path d="M241.292 233.515C248.886 231.443 258.066 225.776 262.48 222.844C262.735 222.668 263.029 222.56 263.336 222.529C263.644 222.499 263.954 222.546 264.238 222.667C264.522 222.788 264.771 222.978 264.962 223.221C265.153 223.464 265.279 223.751 265.329 224.056C265.827 228.066 267.402 234.893 272.706 236.748C280.301 239.421 273.048 243.545 268.22 244.933C263.392 246.322 228.848 263.065 218.487 260.775C208.126 258.486 204.676 256.828 199.837 246.819C194.998 236.81 197.413 188.528 197.413 188.528L211.918 184.912C211.918 184.912 215.71 188.31 217.554 211.073C219.399 233.837 222.435 236.686 222.435 236.686C222.435 236.686 231.646 229.879 229.231 236.458C229.211 236.458 238.681 234.22 241.292 233.515Z" fill="#7E8AF5" stroke="#263238" stroke-linecap="round" stroke-linejoin="round"/>
<path d="M224.372 240.364C224.372 240.364 220.632 252.86 217.813 251.906C214.995 250.953 215.741 247.544 220.404 240.364" stroke="#263238" stroke-linecap="round" stroke-linejoin="round"/>
<path d="M211.949 184.912C205.225 178.519 195.371 172.105 175.012 170.79C154.652 169.474 126.315 174.406 125.279 182.29C124.243 190.175 135.982 232.438 135.982 270.297C135.982 275.882 136.676 282.119 148.415 282.119C160.154 282.119 214.011 286.057 214.726 273.25C215.441 260.444 211.97 247.638 213.006 229.247C214.042 210.856 217.13 189.844 211.949 184.912Z" fill="#7E8AF5" stroke="#263238" stroke-linecap="round" stroke-linejoin="round"/>
<path d="M130.998 176.83C130.998 176.83 122.543 179.348 120.699 192.051C118.855 204.753 110.804 233.422 113.799 234.085C116.793 234.749 106.66 239.774 110.338 247.223C114.016 254.673 130.594 278.742 140.261 276.12C149.928 273.499 149.461 258.6 146.477 255.978C143.493 253.357 133.329 247.855 133.329 247.855C133.329 247.855 136.313 246.104 132.635 242.82C128.957 239.535 135.298 244.478 137.235 233.402C139.535 220.274 147.596 201.438 142.758 190.061" fill="#7E8AF5"/>
<path d="M130.998 176.83C130.998 176.83 122.543 179.348 120.699 192.051C118.855 204.753 110.804 233.422 113.799 234.085C116.793 234.749 106.66 239.774 110.338 247.223C114.016 254.673 130.594 278.742 140.261 276.12C149.928 273.499 149.461 258.6 146.477 255.978C143.493 253.357 133.329 247.855 133.329 247.855C133.329 247.855 136.313 246.104 132.635 242.82C128.957 239.535 135.298 244.478 137.235 233.402C139.535 220.274 147.596 201.438 142.758 190.061" stroke="#263238" stroke-linecap="round" stroke-linejoin="round"/>
<path d="M131.516 236.033C131.516 236.033 118.399 232.925 114.938 238.219C111.478 243.514 120.388 237.132 128.936 239.318" stroke="#263238" stroke-linecap="round" stroke-linejoin="round"/>
<path d="M150.498 260.993C148.425 259.512 143.483 256.942 140.261 259.957C137.039 262.972 129.33 264.765 129.786 267.065C130.242 269.365 133.122 270.028 138.303 267.51C143.483 264.993 139.204 268.163 140.136 273.199C141.069 278.234 141.825 282.814 145.877 281.954C145.877 281.954 146.239 284.14 149.928 283.156C149.928 283.156 152.684 285.414 157.056 283.415C157.056 283.415 159.481 285.891 163.045 281.622C166.609 277.353 164.413 276.296 164.413 276.296C164.413 276.296 162.807 271.354 159.232 276.296C159.232 276.296 159.854 270.183 156.248 266.35C154.461 264.43 152.539 262.64 150.498 260.993Z" fill="white" stroke="#263238" stroke-linecap="round" stroke-linejoin="round"/>
<path d="M147.431 280.441C147.431 280.441 153.264 276.721 152 274.535C150.736 272.349 146.011 276.939 146.011 276.939C146.011 276.939 146.705 275.758 145.327 273.945" stroke="#263238" stroke-linecap="round" stroke-linejoin="round"/>
<path d="M151.648 281.674C151.648 281.674 160.465 278.928 158.444 276.296C156.652 273.976 152.86 276.638 152.86 276.638" stroke="#263238" stroke-linecap="round" stroke-linejoin="round"/>
<path d="M163.376 277.219C163.376 277.219 162.444 279.85 158.31 282.399" stroke="#263238" stroke-linecap="round" stroke-linejoin="round"/>
<path d="M148.747 269.469C149.994 271.392 151.733 272.948 153.782 273.976" stroke="#263238" stroke-linecap="round" stroke-linejoin="round"/>
<path d="M131.516 246.819C131.516 246.819 124.097 243.203 118.399 245.99" stroke="#263238" stroke-linecap="round" stroke-linejoin="round"/>
<path d="M187.611 177.524L181.684 175.39L175.012 177.524C175.012 177.524 179.498 184.259 181.311 184.58C181.311 184.58 187.808 235.018 189.859 258.569C191.911 282.119 191.237 284.295 191.237 284.295L200.21 291.641L206.769 282.378C206.769 282.378 203.318 245.338 198.832 223.32C196.051 209.859 191.766 196.753 186.057 184.249C186.057 184.249 188.699 180.861 187.611 177.524Z" fill="#7E8AF5"/>
<path opacity="0.3" d="M187.611 177.524L181.684 175.39L175.012 177.524C175.012 177.524 179.498 184.259 181.311 184.58C181.311 184.58 187.808 235.018 189.859 258.569C191.911 282.119 191.237 284.295 191.237 284.295L200.21 291.641L206.769 282.378C206.769 282.378 203.318 245.338 198.832 223.32C196.051 209.859 191.766 196.753 186.057 184.249C186.057 184.249 188.699 180.861 187.611 177.524Z" fill="black"/>
<path d="M187.611 177.524L181.684 175.39L175.012 177.524C175.012 177.524 179.498 184.259 181.311 184.58C181.311 184.58 187.808 235.018 189.859 258.569C191.911 282.119 191.237 284.295 191.237 284.295L200.21 291.641L206.769 282.378C206.769 282.378 203.318 245.338 198.832 223.32C196.051 209.859 191.766 196.753 186.057 184.249C186.057 184.249 188.699 180.861 187.611 177.524Z" stroke="#263238" stroke-linecap="round" stroke-linejoin="round"/>
<path d="M188.316 160.252C188.316 160.252 187.145 167.826 190.056 173.017C190.056 173.017 183.757 175.773 181.052 176.126C178.348 176.478 164.475 168.21 164.475 168.21C166.288 159.506 166.936 150.601 166.402 141.727C165.511 127.118 182.078 150.855 182.078 150.855L190.046 158.108L188.316 160.252Z" fill="white"/>
<path d="M190.885 160.947C190.885 160.947 191.051 165.868 184.067 165.702C177.084 165.537 170.142 155.155 168.971 152.564C167.801 149.974 166.412 137.79 166.412 137.79L184.026 142.742L192.574 160.252L190.885 160.947Z" fill="#263238" stroke="#263238" stroke-linecap="round" stroke-linejoin="round"/>
<path d="M188.316 160.252C188.316 160.252 187.145 167.826 190.056 173.017C190.056 173.017 183.757 175.773 181.052 176.126C178.348 176.478 164.475 168.21 164.475 168.21C166.288 159.506 166.936 150.601 166.402 141.727C165.511 127.118 182.078 150.855 182.078 150.855L190.046 158.108L188.316 160.252Z" stroke="#263238" stroke-linecap="round" stroke-linejoin="round"/>
<path d="M189.051 169.256C189.051 169.256 185.601 175.172 181.684 175.39C177.768 175.607 164.651 162.957 161.895 164.884C160.177 166.181 158.924 167.998 158.32 170.064L170.049 183.958C170.049 183.958 178.638 176.623 182.088 176.84C185.539 177.058 192.957 183.958 192.957 183.958V173.898C192.957 173.898 190.678 166.966 189.051 169.256Z" fill="#7E8AF5" stroke="#263238" stroke-linecap="round" stroke-linejoin="round"/>
<path d="M194.056 116.135C194.056 116.135 198.884 130.298 197.931 133.904C197.931 133.904 202.427 160.75 191.714 162.915C183.259 164.594 174.898 156.47 171.707 152.906C170.839 151.931 170.173 150.794 169.748 149.56L167.676 143.488C167.676 143.488 163.459 143.799 160.89 138.142C158.32 132.485 163.553 126.993 167.604 135.562C167.604 135.562 170.774 126.9 170.536 123.419C170.298 119.937 174.867 120.787 175.81 117.347C175.81 117.326 186.647 119.077 194.056 116.135Z" fill="white"/>
<path d="M194.056 116.135C194.056 116.135 198.884 130.298 197.931 133.904C197.931 133.904 202.427 160.75 191.714 162.915C183.259 164.594 174.898 156.47 171.707 152.906C170.839 151.931 170.173 150.794 169.748 149.56L167.676 143.488C167.676 143.488 163.459 143.799 160.89 138.142C158.32 132.485 163.553 126.993 167.604 135.562C167.604 135.562 170.774 126.9 170.536 123.419C170.298 119.937 174.867 120.787 175.81 117.347C175.81 117.326 186.647 119.077 194.056 116.135Z" stroke="#263238" stroke-linecap="round" stroke-linejoin="round"/>
<path d="M193.537 136.349L199.257 143.55C199.39 143.722 199.481 143.924 199.52 144.139C199.559 144.353 199.546 144.574 199.482 144.782C199.418 144.99 199.305 145.18 199.152 145.336C198.999 145.491 198.811 145.607 198.604 145.674L194.542 147.104" fill="white"/>
<path d="M193.537 136.349L199.257 143.55C199.39 143.722 199.481 143.924 199.52 144.139C199.559 144.353 199.546 144.574 199.482 144.782C199.418 144.99 199.305 145.18 199.152 145.336C198.999 145.491 198.811 145.607 198.604 145.674L194.542 147.104" stroke="#263238" stroke-linecap="round" stroke-linejoin="round"/>
<path d="M185.218 149.984C185.218 149.984 186.989 153.631 192.916 150.409" stroke="#263238" stroke-linecap="round" stroke-linejoin="round"/>
<path d="M192.564 136.059C192.74 139.644 190.978 142.628 188.637 142.732C186.295 142.835 184.254 140.017 184.078 136.443C183.902 132.868 185.663 131.832 188.005 131.728C190.346 131.625 192.387 132.474 192.564 136.059Z" stroke="#263238" stroke-linecap="round" stroke-linejoin="round"/>
<path d="M203.349 135.251C203.526 138.836 202.116 141.81 200.241 141.892C198.366 141.975 196.635 139.147 196.459 135.562C196.283 131.977 197.713 130.972 199.63 130.879C201.547 130.785 203.173 131.666 203.349 135.251Z" fill="white" stroke="#263238" stroke-linecap="round" stroke-linejoin="round"/>
<path d="M184.099 130.848C184.099 130.848 186.647 127.118 191.165 129.967" stroke="#263238" stroke-linecap="round" stroke-linejoin="round"/>
<path d="M196.532 129.956C197.336 129.035 198.434 128.42 199.64 128.216" stroke="#263238" stroke-linecap="round" stroke-linejoin="round"/>
<path d="M184.098 136.422C182.603 136.84 181.068 137.104 179.519 137.209C176.006 136.867 166.433 132.215 166.433 132.215" stroke="#263238" stroke-linecap="round" stroke-linejoin="round"/>
<path d="M196.408 134.971L192.74 135.603" stroke="#263238" stroke-linecap="round" stroke-linejoin="round"/>
<path d="M190.502 136.494C190.398 137.603 189.735 138.442 189.01 138.38C188.284 138.318 187.797 137.344 187.891 136.308C187.984 135.272 188.668 134.36 189.383 134.422C190.098 134.484 190.605 135.386 190.502 136.494Z" fill="#263238"/>
<path d="M199.433 135.282C199.329 136.318 198.832 137.199 198.314 137.147C197.796 137.095 197.464 136.204 197.568 135.127C197.672 134.049 198.159 133.22 198.677 133.262C199.195 133.303 199.526 134.215 199.433 135.282Z" fill="#263238"/>
<path d="M158.496 260.081C160.309 255.398 172.484 256.175 172.484 256.175" stroke="#263238" stroke-linecap="round" stroke-linejoin="round"/>
<path d="M187.538 262.444C174.639 265.552 160.6 267.78 158.745 263.397" stroke="#263238" stroke-linecap="round" stroke-linejoin="round"/>
<path d="M209.804 256.175C209.804 256.175 208.457 256.61 206.209 257.305" stroke="#263238" stroke-linecap="round" stroke-linejoin="round"/>
<path d="M474.83 449.99H19.7508V389.398C19.7508 389.398 107.934 355.206 221.792 355.206C360.599 355.258 474.83 449.99 474.83 449.99Z" fill="#7E8AF5" stroke="#263238" stroke-linecap="round" stroke-linejoin="round"/>
<path opacity="0.2" d="M287.326 372.157L233.604 364.915L178.959 374.147L232.682 381.399L287.326 372.157Z" fill="black"/>
<path d="M280.747 371.649L230.827 364.915L180.047 373.494L229.967 380.228L280.747 371.649Z" fill="white" stroke="#263238" stroke-linecap="round" stroke-linejoin="round"/>
<path d="M287.326 369.629L237.406 362.894L186.626 371.473L236.546 378.208L287.326 369.629Z" fill="white" stroke="#263238" stroke-linecap="round" stroke-linejoin="round"/>
<path opacity="0.2" d="M184.761 406.919C194.232 406.919 201.909 405.351 201.909 403.416C201.909 401.482 194.232 399.914 184.761 399.914C175.291 399.914 167.614 401.482 167.614 403.416C167.614 405.351 175.291 406.919 184.761 406.919Z" fill="black"/>
<path d="M194.677 402.463C194.677 403.437 189.144 404.225 182.306 404.225C175.468 404.225 169.945 403.437 169.945 402.463V379.255C169.945 378.281 175.478 377.493 182.306 377.493C189.134 377.493 194.677 378.281 194.677 379.255V402.463Z" fill="white" stroke="#263238" stroke-linecap="round" stroke-linejoin="round"/>
<path d="M194.677 379.255C194.677 380.228 189.144 381.016 182.306 381.016C175.468 381.016 169.945 380.228 169.945 379.255C169.945 378.281 175.478 377.493 182.306 377.493C189.134 377.493 194.677 378.281 194.677 379.255Z" fill="white" stroke="#263238" stroke-linecap="round" stroke-linejoin="round"/>
<path d="M193.185 400.267C192.858 400.274 192.54 400.162 192.288 399.953C192.037 399.743 191.87 399.45 191.817 399.127C191.794 398.951 191.807 398.772 191.854 398.601C191.901 398.43 191.982 398.27 192.092 398.131C192.203 397.992 192.34 397.877 192.495 397.791C192.651 397.706 192.822 397.653 192.999 397.635C193.309 397.635 200.811 396.475 200.811 389.719C200.811 388.02 200.355 386.87 199.464 386.29C197.796 385.254 194.677 386.062 193.713 386.445C193.376 386.579 193 386.579 192.662 386.444C192.325 386.309 192.052 386.05 191.9 385.72C191.834 385.558 191.801 385.384 191.803 385.208C191.805 385.033 191.843 384.86 191.913 384.699C191.984 384.539 192.086 384.394 192.214 384.274C192.341 384.154 192.492 384.061 192.657 384C193.185 383.793 197.837 382.073 201.008 384.104C202.717 385.202 203.588 387.088 203.588 389.719C203.588 396.972 196.915 399.78 193.382 400.256L193.185 400.267Z" fill="white" stroke="#263238" stroke-linecap="round" stroke-linejoin="round"/>
<path d="M210.954 385.16C210.136 385.948 209.576 386.694 209.721 386.839C209.866 386.984 210.654 386.445 211.483 385.658C212.312 384.87 212.861 384.124 212.716 383.99C212.571 383.855 211.783 384.383 210.954 385.16Z" fill="#263238" stroke="#263238" stroke-linecap="round" stroke-linejoin="round"/>
<path d="M215.41 378.042C212.022 381.265 210.074 384.632 211.058 385.564C212.042 386.497 215.596 384.653 218.984 381.42L240.815 360.646C244.203 357.424 246.151 354.046 245.167 353.114C244.182 352.181 240.639 354.025 237.251 357.258L215.41 378.042Z" fill="#7E8AF5" stroke="#263238" stroke-linecap="round" stroke-linejoin="round"/>
<path d="M237.613 363.703L236.712 364.563C236.08 364.055 235.458 363.526 234.857 362.936C234.256 362.345 233.676 361.765 233.148 361.174L234.049 360.314C234.578 360.905 235.148 361.496 235.759 362.076C236.37 362.656 236.992 363.195 237.613 363.703Z" fill="#263238" stroke="#263238" stroke-linecap="round" stroke-linejoin="round"/>
<path d="M242.483 353.455C242.483 353.455 240.97 352.523 237.51 355.072C234.049 357.621 230.827 362.024 229.221 361.879" stroke="#263238" stroke-linecap="round" stroke-linejoin="round"/>
<path d="M200.438 396.35C200.438 396.35 202.956 390.268 202.956 387.16C202.956 384.052 209.504 373.577 214.353 371.732C219.202 369.888 235.531 362.19 236.722 365.309C237.914 368.427 230.568 372.292 229.024 373.017C227.307 374.095 225.691 375.326 224.196 376.695C224.196 376.695 231.666 375.203 232.485 372.841C233.303 370.479 235.593 367.329 236.836 369.349C238.08 371.37 237.51 376.509 235.572 380.456V383.119C235.572 383.119 237.696 386.228 235.386 388.807L233.604 390.641C233.604 390.641 236.712 393.75 232.485 396.34C232.485 396.34 234.422 399.096 230.941 401.842C230.941 401.842 223.605 405.333 218.974 406.432C214.342 407.53 210.291 414.151 210.291 414.151L200.438 396.35Z" fill="white" stroke="#263238" stroke-linecap="round" stroke-linejoin="round"/>
<path d="M58.5635 291.03L70.6653 264.019L62.8738 241.39L62.0967 215.436L83.4198 203.479L102.246 200.308L109.923 204.753L113.115 212.151C113.115 212.151 122.688 231.506 121.207 235.225C119.725 238.945 118.627 242.478 118.627 242.478C118.627 242.478 123.144 252.528 125.817 255.719C128.49 258.911 120.202 256.973 119.228 262.723C118.254 268.474 119.414 283.736 112.306 284.43C105.199 285.124 100.909 282.917 100.257 288.916C99.6038 294.915 92.3096 310.146 92.3096 310.146L58.5635 291.03Z" fill="white" stroke="#263238" stroke-linecap="round" stroke-linejoin="round"/>
<path d="M117.932 183.047C116.896 179.565 106.919 184.404 105.883 191.864C105.883 191.864 104.608 180.467 101.313 179.379C98.4329 178.436 94.4543 183.606 95.8945 189.74C95.8945 189.74 85.1293 184.083 81.6583 185.399C79.0888 186.373 78.1874 191.387 83.7306 195.76C83.7306 195.76 50.0778 188.279 52.0464 217.591C52.0464 217.591 33.5415 231.381 67.7745 270.556C67.7745 270.556 75.8976 268.754 78.1356 267.448C79.4307 266.692 90.258 258.123 90.258 258.123C87.1497 257.014 81.7412 253.844 80.27 250.021C78.405 245.182 80.902 239.401 85.4505 238.624C88.1755 238.157 89.7193 239.37 91.6671 241.545C91.6671 241.545 87.1808 235.878 87.4606 233.681C87.8128 230.936 94.589 228.024 95.0863 225.299C95.3142 224.014 92.2992 221.486 93.097 220.419C97.1585 215 116.565 221.279 114.576 203.313C112.586 185.347 119.383 187.927 117.932 183.047Z" fill="#263238" stroke="#263238" stroke-linecap="round" stroke-linejoin="round"/>
<path d="M117.218 241.069C117.218 242.488 116.938 243.649 116.482 243.659C116.026 243.669 115.643 242.53 115.601 241.11C115.56 239.691 115.881 238.53 116.327 238.52C116.772 238.509 117.176 239.67 117.218 241.069Z" fill="#263238"/>
<path d="M113.819 235.971C113.819 235.971 115 232.334 117.373 232.096" stroke="#263238" stroke-linecap="round" stroke-linejoin="round"/>
<path d="M88.3931 207.986C100.018 208.908 90.4032 191.843 90.4032 191.843" stroke="#7F7F7F" stroke-linecap="round" stroke-linejoin="round"/>
<path d="M58.9054 215.974C58.9054 215.974 68.0542 202.671 84.9013 207.323" stroke="#7F7F7F" stroke-linecap="round" stroke-linejoin="round"/>
<path d="M104.318 200.36C105.458 206.266 104.318 214.161 90.745 215.114" stroke="#7F7F7F" stroke-linecap="round" stroke-linejoin="round"/>
<path d="M101.997 193.802C102.468 194.698 102.876 195.626 103.22 196.578" stroke="#7F7F7F" stroke-linecap="round" stroke-linejoin="round"/>
<path d="M114.555 449.99C114.555 449.99 125.04 342.007 112.607 321.626C100.174 301.246 63.0084 277.333 49.7152 287.694C3.58761 323.812 3.43219 354.657 0.5 449.969L114.555 449.99Z" fill="#263238" stroke="#263238" stroke-linecap="round" stroke-linejoin="round"/>
<path d="M104.432 317.741C104.432 317.741 119.093 321.595 127.226 343.643C134.718 363.879 148.332 390.558 157.419 403.852C158.137 404.871 159.129 405.667 160.281 406.147C161.432 406.627 162.695 406.773 163.925 406.566C167.925 405.934 175.551 405.447 182.855 401.479C189.621 397.801 195.599 393.77 203.121 394.869C210.644 395.967 215.358 402.961 214.146 413.063C212.985 422.699 169.665 447.762 144.084 447.762C123.217 447.762 104.142 390.486 97.7699 373.411C91.3978 356.336 84.746 318.87 104.432 317.741Z" fill="#263238" stroke="#263238" stroke-linecap="round" stroke-linejoin="round"/>
<path d="M96.713 320.041C98.621 318.63 100.911 317.828 103.282 317.741" stroke="#7F7F7F" stroke-linecap="round" stroke-linejoin="round"/>
<path d="M91.605 328.102C92.0043 326.735 92.5497 325.415 93.2317 324.165" stroke="#7F7F7F" stroke-linecap="round" stroke-linejoin="round"/>
<path d="M113.032 409.54C106.836 397.836 101.355 385.767 96.6198 373.4C92.6515 362.76 88.5692 344.213 90.8176 331.479" stroke="#7F7F7F" stroke-linecap="round" stroke-linejoin="round"/>
<path d="M103.945 313.918C103.945 313.918 109.737 305.473 103.945 298.49C98.1532 291.507 71.7221 276.421 61.8376 280.14C61.0921 280.385 60.4038 280.778 59.8143 281.296C59.2247 281.814 58.7461 282.445 58.4073 283.153C58.0684 283.861 57.8764 284.63 57.8427 285.414C57.809 286.198 57.9344 286.98 58.2113 287.714C58.2113 287.714 78.0838 288.585 103.945 313.918Z" fill="#263238" stroke="#263238" stroke-linecap="round" stroke-linejoin="round"/>
<path d="M100.733 311.524C101.552 312.291 102.381 313.078 103.209 313.897" stroke="#7F7F7F" stroke-linecap="round" stroke-linejoin="round"/>
<path d="M64.9978 289.269C71.8672 291.341 82.9743 296.221 96.1846 307.483" stroke="#7F7F7F" stroke-linecap="round" stroke-linejoin="round"/>
<path d="M57.5067 287.694C58.6713 287.782 59.8279 287.955 60.9673 288.212" stroke="#7F7F7F" stroke-linecap="round" stroke-linejoin="round"/>
<path d="M163.19 420.761C163.19 420.761 163.19 414.71 160.009 413.052C156.828 411.395 159.429 420.761 156.248 428.48" stroke="#7F7F7F" stroke-linecap="round" stroke-linejoin="round"/>
<path d="M129.609 354.678C129.609 354.678 132.22 354.947 134.531 380.28" stroke="#7F7F7F" stroke-linecap="round" stroke-linejoin="round"/>
<path d="M90.2063 258.061L92.4236 258.475C92.4969 261.593 93.2352 264.659 94.589 267.469C96.6613 271.323 99.6038 272.059 106.515 279.56C112.959 286.544 115.923 281.995 116.296 281.342C115.947 282.165 115.392 282.883 114.684 283.428C113.976 283.973 113.139 284.325 112.255 284.451C105.157 285.145 100.857 282.938 100.205 288.937C99.065 284.295 95.3558 278.711 92.4236 271.727C90.6421 267.403 89.8833 262.726 90.2063 258.061Z" fill="#263238" stroke="#263238" stroke-linecap="round" stroke-linejoin="round"/>
<path opacity="0.3" d="M93.2317 253.699C94.0502 248.923 89.0873 239.193 91.6879 241.452C94.2885 243.711 97.6766 252.041 101.728 255.212C105.779 258.382 105.396 265.811 111.187 262.692C113.712 261.286 116.684 260.914 119.476 261.656C119.345 261.99 119.251 262.338 119.197 262.692C118.233 268.474 119.383 283.705 112.275 284.399C110.228 284.551 108.173 284.596 106.121 284.534C102.101 280.327 96.3608 274.079 94.1642 270.453C90.6104 264.64 92.4235 258.475 93.2317 253.699Z" fill="#263238"/>
<path d="M117.881 267.51C117.881 267.51 114.244 265.925 114.316 263.646" stroke="#263238" stroke-linecap="round" stroke-linejoin="round"/>
</svg>
