<svg width="375" height="276" viewBox="0 0 375 276" fill="none" xmlns="http://www.w3.org/2000/svg">
<path d="M336.548 256.948H311.773V257.135H336.548V256.948Z" fill="#EBEBEB"/>
<path d="M247.769 258.983H241.269V259.17H247.769V258.983Z" fill="#EBEBEB"/>
<path d="M311.025 250.006H296.67V250.193H311.025V250.006Z" fill="#EBEBEB"/>
<path d="M71.5511 251.263H39.2428V251.45H71.5511V251.263Z" fill="#EBEBEB"/>
<path d="M82.9514 251.263H78.2162V251.45H82.9514V251.263Z" fill="#EBEBEB"/>
<path d="M168.424 254.42H98.3463V254.607H168.424V254.42Z" fill="#EBEBEB"/>
<path d="M177.288 211.549H32.8544C31.7216 211.549 30.6351 211.099 29.8341 210.298C29.0331 209.497 28.583 208.41 28.583 207.277V4.23397C28.5929 3.10762 29.0473 2.03077 29.8472 1.2378C30.6472 0.444838 31.728 -4.31819e-05 32.8544 3.14372e-09H177.288C178.421 3.14373e-09 179.507 0.450018 180.308 1.25106C181.109 2.05209 181.559 3.13853 181.559 4.27137V207.277C181.559 208.41 181.109 209.497 180.308 210.298C179.507 211.099 178.421 211.549 177.288 211.549ZM32.8544 0.149611C31.7718 0.151588 30.7341 0.582537 29.9685 1.34807C29.203 2.11361 28.772 3.15134 28.7701 4.23397V207.277C28.772 208.36 29.203 209.398 29.9685 210.163C30.7341 210.929 31.7718 211.36 32.8544 211.362H177.288C178.371 211.36 179.408 210.929 180.174 210.163C180.94 209.398 181.37 208.36 181.372 207.277V4.23397C181.37 3.15134 180.94 2.11361 180.174 1.34807C179.408 0.582537 178.371 0.151588 177.288 0.149611H32.8544Z" fill="#EBEBEB"/>
<path d="M339.099 211.549H194.65C193.518 211.547 192.433 211.096 191.632 210.296C190.832 209.495 190.381 208.41 190.379 207.277V4.23397C190.391 3.10824 190.846 2.03251 191.645 1.23996C192.445 0.447416 193.525 0.00190625 194.65 0H339.099C340.223 0.00389323 341.3 0.450513 342.097 1.24306C342.893 2.0356 343.346 3.11021 343.355 4.23397V207.277C343.355 208.408 342.907 209.492 342.11 210.292C341.312 211.093 340.229 211.545 339.099 211.549ZM194.65 0.149611C193.568 0.151588 192.53 0.582537 191.764 1.34807C190.999 2.11361 190.568 3.15134 190.566 4.23397V207.277C190.568 208.36 190.999 209.398 191.764 210.163C192.53 210.929 193.568 211.36 194.65 211.362H339.099C340.182 211.36 341.219 210.929 341.985 210.163C342.75 209.398 343.181 208.36 343.183 207.277V4.23397C343.181 3.15134 342.75 2.11361 341.985 1.34807C341.219 0.582537 340.182 0.151588 339.099 0.149611H194.65Z" fill="#EBEBEB"/>
<path d="M374.026 244.912H0V245.099H374.026V244.912Z" fill="#EBEBEB"/>
<path d="M311.75 29.6752H218.401V129.084H311.75V29.6752Z" fill="#EBEBEB"/>
<path d="M306.14 35.2855H224.011V123.473H306.14V35.2855Z" fill="#F5F5F5"/>
<path d="M256.245 123.473H280.931L304.105 35.2855H279.42L256.245 123.473Z" fill="#FAFAFA"/>
<path d="M267.952 35.2855L244.777 123.473H250.762L273.936 35.2855H267.952Z" fill="#FAFAFA"/>
<path d="M312.925 34.3505H217.219L215.199 29.6378H314.944L312.925 34.3505Z" fill="#F5F5F5"/>
<path d="M312.925 37.0809H217.219L215.199 32.3682H314.944L312.925 37.0809Z" fill="#F0F0F0"/>
<path d="M312.925 39.8112H217.219L215.199 35.0985H314.944L312.925 39.8112Z" fill="#E6E6E6"/>
<path d="M312.925 42.5416H217.219L215.199 37.8289H314.944L312.925 42.5416Z" fill="#E0E0E0"/>
<path d="M318.43 23.7357H211.721V30.0193H318.43V23.7357Z" fill="#E0E0E0"/>
<path d="M212.813 86.9908C212.525 86.9908 212.249 86.8766 212.046 86.6731C211.843 86.4697 211.728 86.1938 211.728 85.9062V49.2517C211.728 48.964 211.843 48.6881 212.046 48.4847C212.249 48.2813 212.525 48.167 212.813 48.167C213.101 48.167 213.377 48.2813 213.58 48.4847C213.783 48.6881 213.898 48.964 213.898 49.2517V85.9062C213.898 86.1938 213.783 86.4697 213.58 86.6731C213.377 86.8766 213.101 86.9908 212.813 86.9908Z" fill="#E0E0E0"/>
<path d="M213.202 28.7626H212.417V50.5309H213.202V28.7626Z" fill="#E0E0E0"/>
<path d="M67.7136 27.7527H66.3671V132.757H67.7136V27.7527Z" fill="#E0E0E0"/>
<path d="M151.533 27.7527H150.186V132.757H151.533V27.7527Z" fill="#E0E0E0"/>
<path d="M156.814 34.3505H61.0933L59.0736 29.6378H158.826L156.814 34.3505Z" fill="#F5F5F5"/>
<path d="M156.814 40.8211H61.0933L59.0736 36.1084H158.826L156.814 40.8211Z" fill="#F5F5F5"/>
<path d="M156.814 47.2918H61.0933L59.0736 42.5791H158.826L156.814 47.2918Z" fill="#F5F5F5"/>
<path d="M156.814 53.7624H61.0933L59.0736 49.0497H158.826L156.814 53.7624Z" fill="#F5F5F5"/>
<path d="M156.814 60.233H61.0933L59.0736 55.5203H158.826L156.814 60.233Z" fill="#F5F5F5"/>
<path d="M156.814 66.7037H61.0933L59.0736 61.991H158.826L156.814 66.7037Z" fill="#F5F5F5"/>
<path d="M156.814 73.1743H61.0933L59.0736 68.4616H158.826L156.814 73.1743Z" fill="#F5F5F5"/>
<path d="M156.814 79.645H61.0933L59.0736 74.9323H158.826L156.814 79.645Z" fill="#F5F5F5"/>
<path d="M156.814 86.1156H61.0933L59.0736 81.4029H158.826L156.814 86.1156Z" fill="#F5F5F5"/>
<path d="M156.814 92.5863H61.0933L59.0736 87.8735H158.826L156.814 92.5863Z" fill="#F5F5F5"/>
<path d="M156.814 99.057H61.0933L59.0736 94.3442H158.826L156.814 99.057Z" fill="#F5F5F5"/>
<path d="M156.814 105.52H61.0933L59.0736 100.807H158.826L156.814 105.52Z" fill="#F5F5F5"/>
<path d="M156.814 111.998H61.0933L59.0736 107.278H158.826L156.814 111.998Z" fill="#F5F5F5"/>
<path d="M156.814 118.461H61.0933L59.0736 113.749H158.826L156.814 118.461Z" fill="#F5F5F5"/>
<path d="M156.814 124.932H61.0933L59.0736 120.219H158.826L156.814 124.932Z" fill="#F5F5F5"/>
<path d="M156.814 131.403H61.0933L59.0736 126.69H158.826L156.814 131.403Z" fill="#F5F5F5"/>
<path d="M158.826 131.403H59.0736V134.096H158.826V131.403Z" fill="#E0E0E0"/>
<path d="M162.305 23.7357H55.5952V30.0193H162.305V23.7357Z" fill="#E0E0E0"/>
<path d="M56.6948 86.9908C56.4071 86.9908 56.1312 86.8766 55.9278 86.6731C55.7244 86.4697 55.6101 86.1938 55.6101 85.9062V49.2517C55.6101 48.964 55.7244 48.6881 55.9278 48.4847C56.1312 48.2813 56.4071 48.167 56.6948 48.167C56.9825 48.167 57.2584 48.2813 57.4618 48.4847C57.6652 48.6881 57.7795 48.964 57.7795 49.2517V85.9062C57.7795 86.1938 57.6652 86.4697 57.4618 86.6731C57.2584 86.8766 56.9825 86.9908 56.6948 86.9908Z" fill="#E0E0E0"/>
<path d="M57.0838 28.7626H56.2983V50.5309H57.0838V28.7626Z" fill="#E0E0E0"/>
<path d="M66.8159 200.014C66.7262 200.111 67.2273 200.814 65.1777 200.508C60.1283 199.76 51.3387 197.702 48.8926 192.511C45.3992 185.098 56.231 187.806 55.857 184.013C55.4829 180.22 43.1401 180.879 41.846 175.321C40.5518 169.763 48.9001 172.411 49.0123 169.703C49.1245 166.995 39.4896 168.671 37.5746 162.671C35.6596 156.672 42.9456 161.093 42.1078 158.594C41.27 156.096 33.1312 144.823 37.5522 143.514C41.9731 142.204 49.4611 153.777 52.3636 155.415C55.266 157.053 57.8094 147.605 61.2504 151.6C64.6915 155.595 59.2307 169.553 63.6143 172.254C66.8832 174.273 65.9631 168.715 70.2719 169.755C76.0992 171.162 74.1319 191.83 66.8159 200.014Z" fill="#EBEBEB"/>
<path d="M51.234 169.733C52.7197 169.843 54.1853 170.142 55.5952 170.623C54.6604 169.219 53.6227 167.886 52.4907 166.636C52.4299 166.564 52.3985 166.472 52.4028 166.377C52.4071 166.283 52.4468 166.194 52.5139 166.128C52.581 166.062 52.6706 166.024 52.7648 166.021C52.8589 166.018 52.9507 166.05 53.0219 166.112C55.4618 168.849 57.5501 171.879 59.2382 175.134C60.8315 165.566 56.822 157.18 56.7771 157.121C56.7532 157.055 56.7546 156.982 56.781 156.917C56.8075 156.852 56.8571 156.799 56.9203 156.768C56.9835 156.737 57.0558 156.731 57.1233 156.751C57.1908 156.77 57.2487 156.814 57.2858 156.874C57.3306 156.964 61.602 165.888 59.6646 175.927C60.1807 176.907 60.7043 177.961 61.213 179.091C63.0231 183.118 64.4531 187.305 65.4844 191.598C67.3527 188.074 68.377 184.163 68.4766 180.176C68.4776 180.139 68.4857 180.103 68.5005 180.07C68.5153 180.037 68.5365 180.007 68.5629 179.982C68.5893 179.957 68.6204 179.937 68.6544 179.924C68.6883 179.911 68.7245 179.905 68.7609 179.906C68.7982 179.907 68.835 179.916 68.8691 179.931C68.9032 179.946 68.934 179.968 68.9597 179.995C68.9854 180.022 69.0055 180.054 69.0189 180.089C69.0323 180.123 69.0386 180.161 69.0376 180.198C68.9479 184.474 67.799 188.661 65.6938 192.384C67.6027 200.832 68.2405 209.518 67.5864 218.154C67.5836 218.203 67.571 218.251 67.5495 218.296C67.528 218.34 67.498 218.38 67.4612 218.412C67.4243 218.445 67.3814 218.47 67.3349 218.486C67.2883 218.502 67.2391 218.509 67.1899 218.506H67.1451C67.0545 218.489 66.9735 218.439 66.9181 218.366C66.8626 218.292 66.8369 218.201 66.8458 218.109C67.7659 204.644 65.7612 193.865 62.9784 185.681C61.4342 183.892 59.3208 182.69 56.994 182.278C56.9219 182.263 56.858 182.222 56.815 182.162C56.772 182.103 56.7531 182.029 56.7621 181.956C56.7667 181.919 56.7785 181.884 56.7969 181.852C56.8152 181.82 56.8397 181.793 56.869 181.77C56.8982 181.748 56.9316 181.732 56.9672 181.723C57.0028 181.713 57.0399 181.711 57.0763 181.717C59.1168 182.069 61.0098 183.01 62.5221 184.424C60.9055 179.872 58.7668 175.521 56.1487 171.461C54.571 170.801 52.8953 170.407 51.1891 170.294C51.115 170.288 51.0461 170.253 50.9972 170.198C50.9483 170.142 50.9232 170.069 50.9273 169.995C50.9291 169.957 50.9387 169.92 50.9553 169.886C50.9719 169.852 50.9953 169.822 51.0241 169.797C51.0528 169.773 51.0863 169.754 51.1224 169.743C51.1585 169.732 51.1965 169.729 51.234 169.733Z" fill="#F5F5F5"/>
<path d="M73.309 202.879C77.5056 202.954 84.6719 199.056 87.522 195.271C90.3721 191.486 82.3455 193.775 83.1683 190.783C83.9912 187.791 93.8954 189.998 95.7206 185.666C97.5459 181.335 90.4095 182.338 90.6937 180.123C90.978 177.909 98.3762 178.365 100.748 173.765C103.119 169.164 96.6183 171.745 97.6356 169.838C98.653 167.93 106.814 159.911 103.403 158.243C99.992 156.575 92.3394 164.923 89.7811 165.858C87.2228 166.793 86.6169 161.018 83.2805 163.778C79.9442 166.539 82.4427 178.597 78.5229 180.191C75.5981 181.38 76.8398 175.852 73.4736 177.251C67.5191 179.697 71.581 202.842 73.309 202.879Z" fill="#E0E0E0"/>
<g opacity="0.3">
<path opacity="0.3" d="M73.309 202.879C77.5056 202.954 84.6719 199.056 87.522 195.271C90.3721 191.486 82.3455 193.775 83.1683 190.783C83.9912 187.791 93.8954 189.998 95.7206 185.666C97.5459 181.335 90.4095 182.338 90.6937 180.123C90.978 177.909 98.3762 178.365 100.748 173.765C103.119 169.164 96.6183 171.745 97.6356 169.838C98.653 167.93 106.814 159.911 103.403 158.243C99.992 156.575 92.3394 164.923 89.7811 165.858C87.2228 166.793 86.6169 161.018 83.2805 163.778C79.9442 166.539 82.4427 178.597 78.5229 180.191C75.5981 181.38 76.8398 175.852 73.4736 177.251C67.5191 179.697 71.581 202.842 73.309 202.879Z" fill="#E0E0E0"/>
</g>
<path d="M74.6705 197.845C74.6071 197.821 74.554 197.776 74.5209 197.717C72.9215 194.206 72.2714 190.337 72.6358 186.497C72.6332 186.456 72.6395 186.415 72.6541 186.377C72.6687 186.339 72.6912 186.305 72.7203 186.276C72.7494 186.248 72.7842 186.226 72.8225 186.212C72.8607 186.198 72.9016 186.192 72.9421 186.196C72.9827 186.199 73.0222 186.211 73.0577 186.231C73.0933 186.25 73.1242 186.278 73.1484 186.31C73.1725 186.343 73.1893 186.381 73.1977 186.421C73.206 186.461 73.2057 186.502 73.1968 186.541C72.8834 190.187 73.4664 193.855 74.8949 197.224C76.6294 192.544 78.7669 188.024 81.2832 183.714C80.5352 174.737 85.1581 167.332 85.203 167.257C85.2427 167.194 85.3056 167.15 85.3778 167.134C85.4501 167.118 85.5258 167.131 85.5883 167.171C85.6508 167.21 85.6949 167.273 85.7111 167.345C85.7272 167.418 85.714 167.493 85.6743 167.556C83.0006 172.199 81.6573 177.49 81.7919 182.846C84.808 177.672 88.4072 172.861 92.519 168.506C92.5528 168.467 92.5943 168.436 92.6408 168.413C92.6874 168.391 92.738 168.379 92.7895 168.378C92.841 168.376 92.8923 168.385 92.9402 168.404C92.988 168.423 93.0314 168.452 93.0676 168.489C93.1038 168.525 93.132 168.569 93.1504 168.617C93.1689 168.665 93.1772 168.717 93.1749 168.768C93.1725 168.82 93.1596 168.87 93.1368 168.917C93.114 168.963 93.082 169.004 93.0426 169.037C90.0048 172.233 87.2632 175.699 84.8514 179.39C87.3784 178.438 90.0581 177.957 92.7583 177.969C92.8324 177.973 92.902 178.005 92.9524 178.06C93.0027 178.114 93.0297 178.186 93.0276 178.261C93.0257 178.333 92.9957 178.401 92.944 178.451C92.8923 178.502 92.823 178.53 92.7509 178.53C89.8481 178.505 86.9704 179.068 84.2904 180.183C82.638 182.72 81.115 185.339 79.7273 188.03C80.8542 187.248 82.1375 186.72 83.4884 186.482C84.8393 186.245 86.2258 186.303 87.5519 186.654C87.624 186.673 87.6856 186.72 87.7234 186.784C87.7612 186.849 87.7721 186.925 87.7539 186.998C87.7444 187.033 87.7279 187.067 87.7053 187.096C87.6828 187.125 87.6547 187.149 87.6227 187.167C87.5906 187.185 87.5553 187.197 87.5187 187.201C87.4822 187.206 87.4451 187.202 87.4098 187.192C85.9721 186.822 84.4654 186.812 83.0227 187.161C81.5799 187.511 80.2452 188.21 79.1363 189.197C74.3132 198.758 71.5628 209.23 71.0649 219.927C71.061 220.024 71.0199 220.115 70.9502 220.182C70.8804 220.249 70.7875 220.286 70.6908 220.286C70.5942 220.286 70.5012 220.249 70.4315 220.182C70.3618 220.115 70.3207 220.024 70.3168 219.927C70.6307 212.387 72.099 204.94 74.6705 197.845Z" fill="#F5F5F5"/>
<path d="M61.4823 243.865C57.4802 236.339 54.8471 225.463 54.8471 220.675C54.8665 218.723 55.3148 216.8 56.1602 215.04C57.0056 213.281 58.2275 211.729 59.7394 210.494H80.2434C81.7553 211.729 82.9772 213.281 83.8226 215.04C84.668 216.8 85.1163 218.723 85.1357 220.675C85.1357 225.448 82.5026 236.324 78.5005 243.865H61.4823Z" fill="#F0F0F0"/>
<path d="M183.407 275.814C263.51 275.814 328.447 272.023 328.447 267.346C328.447 262.669 263.51 258.878 183.407 258.878C103.304 258.878 38.3676 262.669 38.3676 267.346C38.3676 272.023 103.304 275.814 183.407 275.814Z" fill="#F5F5F5"/>
<path d="M218.917 48.354H200.964C200.379 48.3665 199.815 48.5743 199.363 48.9445C198.91 49.3146 198.594 49.8257 198.465 50.3962L198.346 50.9573C198.036 52.3491 197.267 53.5964 196.162 54.4986C195.058 55.4008 193.682 55.9055 192.257 55.9318H175.201C173.848 55.962 172.538 55.4559 171.557 54.5239C170.576 53.592 170.004 52.3098 169.965 50.9573V50.3962C169.951 49.842 169.718 49.3158 169.317 48.933C168.916 48.5502 168.38 48.342 167.825 48.354H149.872C146.923 48.4065 144.096 49.5376 141.925 51.5336C139.754 53.5296 138.39 56.252 138.09 59.1858L123.683 224.161C123.531 225.54 123.674 226.936 124.104 228.256C124.533 229.576 125.239 230.789 126.174 231.814C127.109 232.84 128.251 233.654 129.526 234.204C130.8 234.753 132.177 235.025 133.565 235H202.587C205.536 234.946 208.364 233.813 210.535 231.816C212.706 229.819 214.07 227.096 214.369 224.161L228.806 59.1858C228.957 57.8064 228.813 56.4106 228.382 55.0913C227.952 53.7721 227.245 52.5597 226.31 51.5349C225.374 50.5101 224.231 49.6963 222.956 49.1479C221.681 48.5994 220.305 48.3288 218.917 48.354Z" fill="#407BFF"/>
<path opacity="0.7" d="M218.917 48.354H200.964C200.379 48.3665 199.815 48.5743 199.363 48.9445C198.91 49.3146 198.594 49.8257 198.465 50.3962L198.346 50.9573C198.036 52.3491 197.267 53.5964 196.162 54.4986C195.058 55.4008 193.682 55.9055 192.257 55.9318H175.201C173.848 55.962 172.538 55.4559 171.557 54.5239C170.576 53.592 170.004 52.3098 169.965 50.9573V50.3962C169.951 49.842 169.718 49.3158 169.317 48.933C168.916 48.5502 168.38 48.342 167.825 48.354H149.872C146.923 48.4065 144.096 49.5376 141.925 51.5336C139.754 53.5296 138.39 56.252 138.09 59.1858L123.683 224.161C123.531 225.54 123.674 226.936 124.104 228.256C124.533 229.576 125.239 230.789 126.174 231.814C127.109 232.84 128.251 233.654 129.526 234.204C130.8 234.753 132.177 235.025 133.565 235H202.587C205.536 234.946 208.364 233.813 210.535 231.816C212.706 229.819 214.07 227.096 214.369 224.161L228.806 59.1858C228.957 57.8064 228.813 56.4106 228.382 55.0913C227.952 53.7721 227.245 52.5597 226.31 51.5349C225.374 50.5101 224.231 49.6963 222.956 49.1479C221.681 48.5994 220.305 48.3288 218.917 48.354Z" fill="white"/>
<path d="M211.923 124.236H175.268C174.96 124.241 174.654 124.181 174.371 124.058C174.088 123.936 173.834 123.755 173.626 123.528C173.418 123.3 173.261 123.03 173.165 122.737C173.069 122.444 173.036 122.134 173.069 121.828L175.829 90.2673C175.895 89.6149 176.198 89.0093 176.681 88.5654C177.163 88.1214 177.792 87.8699 178.448 87.8586H215.102C215.411 87.8524 215.717 87.9123 216.001 88.034C216.285 88.1558 216.539 88.3368 216.747 88.5648C216.956 88.7928 217.113 89.0626 217.208 89.3562C217.304 89.6498 217.335 89.9604 217.301 90.2673L214.541 121.828C214.474 122.479 214.17 123.084 213.688 123.528C213.206 123.971 212.578 124.223 211.923 124.236Z" fill="white"/>
<path d="M199.73 222.919H138.389C137.623 222.933 136.862 222.784 136.158 222.481C135.454 222.178 134.822 221.728 134.305 221.162C133.789 220.596 133.399 219.926 133.161 219.197C132.924 218.468 132.845 217.697 132.929 216.935C133.095 215.314 133.849 213.811 135.048 212.708C136.247 211.606 137.808 210.98 139.437 210.95H200.777C201.543 210.936 202.304 211.085 203.008 211.388C203.713 211.691 204.344 212.141 204.861 212.707C205.378 213.274 205.768 213.944 206.005 214.673C206.243 215.402 206.322 216.173 206.238 216.935C206.073 218.556 205.32 220.06 204.12 221.163C202.921 222.266 201.359 222.891 199.73 222.919Z" fill="white"/>
<path d="M204.614 79.1812H148.339C147.907 79.1942 147.478 79.1137 147.081 78.9453C146.683 78.7768 146.327 78.5244 146.036 78.2054C145.746 77.8863 145.528 77.5082 145.397 77.0968C145.266 76.6855 145.226 76.2508 145.279 75.8225L145.735 70.5861C145.83 69.6783 146.254 68.8365 146.926 68.2192C147.598 67.6019 148.473 67.2518 149.386 67.2349H205.662C206.091 67.2271 206.518 67.3108 206.912 67.4804C207.307 67.65 207.661 67.9017 207.951 68.2186C208.241 68.5355 208.461 68.9105 208.595 69.3187C208.729 69.7269 208.774 70.1589 208.729 70.5861L208.265 75.8225C208.172 76.7317 207.749 77.5753 207.077 78.1941C206.404 78.8129 205.528 79.1641 204.614 79.1812Z" fill="white"/>
<path d="M216.06 70.4066C216.034 70.66 215.916 70.8952 215.729 71.0675C215.541 71.2399 215.297 71.3374 215.042 71.3416C214.923 71.3434 214.804 71.3197 214.694 71.2722C214.584 71.2247 214.486 71.1544 214.405 71.066C214.325 70.9777 214.264 70.8732 214.227 70.7595C214.189 70.6458 214.177 70.5255 214.189 70.4066C214.215 70.1539 214.333 69.9196 214.521 69.7484C214.709 69.5773 214.953 69.4814 215.207 69.479C215.326 69.4762 215.445 69.4988 215.554 69.5455C215.664 69.5922 215.763 69.6617 215.843 69.7495C215.924 69.8374 215.985 69.9414 216.022 70.0547C216.06 70.168 216.072 70.288 216.06 70.4066Z" fill="white"/>
<path d="M215.813 73.2043C215.789 73.457 215.673 73.6921 215.486 73.8646C215.3 74.0371 215.057 74.1349 214.803 74.1393C214.683 74.1411 214.565 74.1174 214.455 74.0699C214.345 74.0224 214.247 73.9521 214.166 73.8637C214.085 73.7753 214.024 73.6708 213.987 73.5572C213.95 73.4435 213.937 73.3232 213.95 73.2043C213.974 72.9515 214.09 72.7164 214.276 72.5439C214.463 72.3714 214.706 72.2736 214.96 72.2692C215.08 72.2675 215.198 72.2911 215.308 72.3386C215.418 72.3861 215.516 72.4564 215.597 72.5448C215.677 72.6332 215.738 72.7377 215.776 72.8513C215.813 72.965 215.825 73.0853 215.813 73.2043Z" fill="white"/>
<path d="M215.573 75.9945C215.548 76.2479 215.43 76.4831 215.242 76.6554C215.055 76.8278 214.811 76.9253 214.556 76.9295C214.436 76.9313 214.318 76.9076 214.208 76.8601C214.098 76.8126 214 76.7423 213.919 76.6539C213.839 76.5656 213.778 76.4611 213.74 76.3474C213.703 76.2337 213.69 76.1134 213.703 75.9945C213.729 75.7411 213.847 75.5059 214.034 75.3335C214.222 75.1612 214.466 75.0636 214.721 75.0594C214.84 75.0577 214.959 75.0813 215.069 75.1289C215.178 75.1764 215.277 75.2466 215.357 75.335C215.438 75.4234 215.499 75.5279 215.536 75.6416C215.573 75.7553 215.586 75.8755 215.573 75.9945Z" fill="white"/>
<path d="M207.367 176.301H138.898C138.589 176.307 138.283 176.247 137.999 176.125C137.716 176.003 137.461 175.822 137.253 175.594C137.045 175.366 136.888 175.097 136.792 174.803C136.696 174.509 136.665 174.199 136.699 173.892L139.886 137.873C139.951 137.221 140.254 136.615 140.737 136.171C141.219 135.727 141.848 135.476 142.504 135.465H210.95C211.258 135.459 211.564 135.52 211.847 135.642C212.13 135.765 212.383 135.946 212.591 136.174C212.798 136.401 212.954 136.671 213.05 136.964C213.145 137.257 213.176 137.567 213.142 137.873L209.993 173.892C209.927 174.546 209.623 175.152 209.139 175.596C208.655 176.04 208.024 176.291 207.367 176.301Z" fill="white"/>
<path d="M157.734 183.826H136.415C136.34 183.828 136.266 183.813 136.197 183.784C136.128 183.754 136.067 183.71 136.016 183.655C135.966 183.6 135.928 183.534 135.905 183.463C135.882 183.392 135.875 183.317 135.883 183.243C135.898 183.083 135.971 182.935 136.088 182.826C136.206 182.717 136.359 182.655 136.519 182.652H157.839C157.914 182.65 157.989 182.665 158.058 182.694C158.128 182.724 158.19 182.769 158.24 182.825C158.29 182.881 158.328 182.948 158.351 183.02C158.373 183.092 158.38 183.168 158.37 183.243C158.353 183.401 158.28 183.547 158.163 183.655C158.045 183.762 157.893 183.823 157.734 183.826Z" fill="white"/>
<path d="M184.38 183.826H161.497C161.421 183.829 161.346 183.815 161.277 183.786C161.207 183.757 161.145 183.713 161.094 183.658C161.042 183.603 161.004 183.537 160.98 183.465C160.957 183.393 160.949 183.317 160.958 183.243C160.973 183.083 161.046 182.935 161.163 182.826C161.28 182.717 161.434 182.655 161.594 182.652H184.484C184.56 182.65 184.635 182.665 184.704 182.694C184.773 182.724 184.835 182.769 184.886 182.825C184.936 182.881 184.974 182.948 184.996 183.02C185.019 183.092 185.025 183.168 185.015 183.243C184.999 183.401 184.925 183.547 184.808 183.655C184.691 183.762 184.539 183.823 184.38 183.826Z" fill="white"/>
<path d="M150.358 189.025H135.966C135.89 189.027 135.815 189.012 135.745 188.982C135.676 188.952 135.613 188.908 135.562 188.852C135.511 188.796 135.473 188.73 135.45 188.658C135.426 188.586 135.419 188.509 135.427 188.434C135.443 188.275 135.517 188.128 135.634 188.019C135.751 187.91 135.903 187.848 136.063 187.843H150.485C150.561 187.843 150.635 187.858 150.704 187.889C150.773 187.919 150.835 187.963 150.886 188.019C150.937 188.075 150.975 188.14 150.999 188.212C151.023 188.283 151.031 188.359 151.024 188.434C151.007 188.598 150.929 188.75 150.806 188.859C150.683 188.969 150.523 189.028 150.358 189.025Z" fill="white"/>
<path d="M177.767 189.025H154.143C154.068 189.027 153.993 189.012 153.923 188.982C153.853 188.952 153.791 188.908 153.74 188.852C153.689 188.796 153.651 188.73 153.627 188.658C153.604 188.585 153.596 188.509 153.605 188.434C153.621 188.274 153.696 188.125 153.814 188.016C153.933 187.908 154.087 187.846 154.248 187.843H177.864C177.94 187.842 178.015 187.856 178.085 187.886C178.154 187.916 178.217 187.96 178.268 188.016C178.319 188.072 178.357 188.139 178.38 188.211C178.404 188.283 178.411 188.359 178.403 188.434C178.388 188.594 178.315 188.742 178.198 188.851C178.08 188.96 177.927 189.022 177.767 189.025Z" fill="white"/>
<path d="M173.952 194.217H135.509C135.434 194.219 135.359 194.206 135.289 194.176C135.22 194.147 135.157 194.104 135.106 194.048C135.055 193.993 135.017 193.927 134.993 193.855C134.97 193.784 134.962 193.708 134.971 193.633C134.987 193.473 135.062 193.324 135.18 193.215C135.299 193.107 135.453 193.045 135.614 193.042H174.057C174.132 193.042 174.206 193.057 174.275 193.087C174.344 193.118 174.406 193.162 174.457 193.218C174.508 193.274 174.546 193.339 174.57 193.411C174.594 193.482 174.602 193.558 174.595 193.633C174.577 193.792 174.502 193.939 174.383 194.046C174.265 194.153 174.112 194.214 173.952 194.217Z" fill="white"/>
<path d="M180.28 194.217H177.744C177.669 194.219 177.594 194.206 177.524 194.176C177.455 194.147 177.392 194.104 177.341 194.048C177.29 193.993 177.251 193.927 177.228 193.855C177.205 193.784 177.197 193.708 177.206 193.633C177.22 193.474 177.293 193.325 177.411 193.216C177.528 193.107 177.682 193.045 177.842 193.042H180.385C180.46 193.04 180.535 193.055 180.605 193.085C180.674 193.115 180.736 193.159 180.786 193.216C180.837 193.272 180.874 193.338 180.897 193.41C180.919 193.482 180.926 193.558 180.916 193.633C180.9 193.791 180.826 193.938 180.709 194.045C180.592 194.153 180.439 194.214 180.28 194.217Z" fill="white"/>
<path d="M152.999 199.415H135.046C134.97 199.416 134.896 199.4 134.827 199.37C134.758 199.34 134.696 199.295 134.645 199.24C134.594 199.184 134.556 199.118 134.532 199.047C134.508 198.975 134.5 198.899 134.507 198.824C134.524 198.664 134.598 198.516 134.717 198.407C134.835 198.298 134.989 198.236 135.15 198.234H153.104C153.179 198.232 153.254 198.247 153.324 198.276C153.394 198.306 153.456 198.351 153.507 198.407C153.558 198.463 153.596 198.529 153.62 198.601C153.643 198.673 153.651 198.749 153.642 198.824C153.626 198.985 153.551 199.133 153.433 199.242C153.314 199.351 153.16 199.413 152.999 199.415Z" fill="white"/>
<path d="M179.113 199.415H156.762C156.686 199.416 156.612 199.4 156.543 199.37C156.474 199.34 156.412 199.295 156.361 199.24C156.31 199.184 156.272 199.118 156.248 199.047C156.224 198.975 156.216 198.899 156.223 198.824C156.239 198.664 156.314 198.516 156.433 198.407C156.551 198.298 156.705 198.236 156.866 198.234H179.211C179.286 198.232 179.361 198.247 179.431 198.276C179.501 198.306 179.563 198.351 179.614 198.407C179.665 198.463 179.703 198.529 179.727 198.601C179.75 198.673 179.758 198.749 179.749 198.824C179.733 198.983 179.659 199.131 179.542 199.24C179.426 199.348 179.273 199.411 179.113 199.415Z" fill="white"/>
<path d="M156.702 204.607H134.597C134.521 204.609 134.446 204.594 134.377 204.564C134.308 204.534 134.246 204.49 134.196 204.433C134.145 204.377 134.107 204.311 134.085 204.239C134.063 204.167 134.056 204.091 134.066 204.016C134.082 203.858 134.156 203.711 134.273 203.604C134.39 203.496 134.543 203.435 134.702 203.433H156.799C156.874 203.43 156.949 203.443 157.019 203.473C157.089 203.502 157.151 203.545 157.202 203.601C157.253 203.656 157.292 203.722 157.315 203.794C157.339 203.865 157.346 203.941 157.338 204.016C157.323 204.175 157.25 204.324 157.133 204.433C157.015 204.542 156.862 204.604 156.702 204.607Z" fill="white"/>
<path d="M178.261 204.607H160.457C160.382 204.609 160.307 204.594 160.237 204.564C160.168 204.534 160.106 204.49 160.056 204.433C160.005 204.377 159.968 204.311 159.945 204.239C159.923 204.167 159.916 204.091 159.926 204.016C159.942 203.858 160.016 203.711 160.133 203.604C160.25 203.496 160.403 203.435 160.562 203.433H178.365C178.441 203.43 178.516 203.443 178.585 203.473C178.655 203.502 178.717 203.545 178.769 203.601C178.82 203.656 178.858 203.722 178.882 203.794C178.905 203.865 178.913 203.941 178.904 204.016C178.887 204.176 178.813 204.325 178.694 204.434C178.576 204.542 178.422 204.604 178.261 204.607Z" fill="white"/>
<path d="M211.055 121.244C210.99 121.319 210.911 121.38 210.822 121.424C210.733 121.468 210.637 121.493 210.538 121.5C210.439 121.506 210.34 121.493 210.247 121.46C210.153 121.428 210.067 121.377 209.993 121.311L179.375 92.0926C179.236 91.9524 179.158 91.7628 179.158 91.5652C179.158 91.3676 179.236 91.178 179.375 91.0378C179.44 90.9631 179.519 90.9021 179.608 90.8582C179.697 90.8143 179.793 90.7885 179.892 90.7823C179.991 90.776 180.09 90.7894 180.184 90.8217C180.277 90.854 180.363 90.9046 180.437 90.9705L211.055 120.189C211.194 120.33 211.273 120.519 211.273 120.717C211.273 120.914 211.194 121.104 211.055 121.244Z" fill="#407BFF"/>
<path d="M176.667 121.237C176.606 121.157 176.562 121.066 176.537 120.969C176.512 120.872 176.506 120.771 176.521 120.672C176.536 120.573 176.57 120.478 176.622 120.393C176.674 120.307 176.743 120.233 176.824 120.174L192.444 107.405C192.592 107.277 192.785 107.212 192.981 107.224C193.177 107.237 193.36 107.326 193.491 107.472C193.551 107.552 193.594 107.642 193.618 107.738C193.643 107.835 193.648 107.935 193.633 108.033C193.619 108.131 193.585 108.225 193.533 108.31C193.482 108.395 193.414 108.469 193.334 108.527L177.714 121.304C177.566 121.432 177.373 121.497 177.177 121.485C176.981 121.472 176.798 121.383 176.667 121.237Z" fill="#407BFF"/>
<path d="M196.85 104.727C196.79 104.648 196.747 104.557 196.722 104.461C196.698 104.365 196.693 104.265 196.707 104.167C196.722 104.069 196.756 103.974 196.807 103.889C196.859 103.805 196.926 103.731 197.007 103.672L212.656 90.8807C212.804 90.7522 212.997 90.6873 213.193 90.6999C213.389 90.7125 213.572 90.8016 213.703 90.948C213.763 91.0273 213.806 91.1177 213.831 91.2138C213.855 91.31 213.86 91.4101 213.846 91.5083C213.831 91.6065 213.797 91.7007 213.746 91.7856C213.694 91.8705 213.626 91.9443 213.546 92.0028L197.897 104.794C197.748 104.923 197.555 104.988 197.359 104.975C197.164 104.963 196.98 104.874 196.85 104.727Z" fill="#407BFF"/>
<g opacity="0.7">
<path opacity="0.7" d="M211.055 121.244C210.99 121.319 210.911 121.38 210.822 121.424C210.733 121.468 210.637 121.493 210.538 121.5C210.439 121.506 210.34 121.493 210.247 121.46C210.153 121.428 210.067 121.377 209.993 121.311L179.375 92.0926C179.236 91.9524 179.158 91.7628 179.158 91.5652C179.158 91.3676 179.236 91.178 179.375 91.0378C179.44 90.9631 179.519 90.9021 179.608 90.8582C179.697 90.8143 179.793 90.7885 179.892 90.7823C179.991 90.776 180.09 90.7894 180.184 90.8217C180.277 90.854 180.363 90.9046 180.437 90.9705L211.055 120.189C211.194 120.33 211.273 120.519 211.273 120.717C211.273 120.914 211.194 121.104 211.055 121.244Z" fill="white"/>
</g>
<g opacity="0.7">
<path opacity="0.7" d="M176.667 121.237C176.606 121.157 176.562 121.066 176.537 120.969C176.512 120.872 176.506 120.771 176.521 120.672C176.536 120.573 176.57 120.478 176.622 120.393C176.674 120.307 176.743 120.233 176.824 120.174L192.444 107.405C192.592 107.277 192.785 107.212 192.981 107.224C193.177 107.237 193.36 107.326 193.491 107.472C193.551 107.552 193.594 107.642 193.618 107.738C193.643 107.835 193.648 107.935 193.633 108.033C193.619 108.131 193.585 108.225 193.533 108.31C193.482 108.395 193.414 108.469 193.334 108.527L177.714 121.304C177.566 121.432 177.373 121.497 177.177 121.485C176.981 121.472 176.798 121.383 176.667 121.237Z" fill="white"/>
</g>
<g opacity="0.7">
<path opacity="0.7" d="M196.85 104.727C196.79 104.648 196.747 104.557 196.722 104.461C196.698 104.365 196.693 104.265 196.707 104.167C196.722 104.069 196.756 103.974 196.807 103.889C196.859 103.805 196.926 103.731 197.007 103.672L212.656 90.8807C212.804 90.7522 212.997 90.6873 213.193 90.6999C213.389 90.7125 213.572 90.8016 213.703 90.948C213.763 91.0273 213.806 91.1177 213.831 91.2138C213.855 91.31 213.86 91.4101 213.846 91.5083C213.831 91.6065 213.797 91.7007 213.746 91.7856C213.694 91.8705 213.626 91.9443 213.546 92.0028L197.897 104.794C197.748 104.923 197.555 104.988 197.359 104.975C197.164 104.963 196.98 104.874 196.85 104.727Z" fill="white"/>
</g>
<path d="M123.982 44.7633H114.257C113.316 44.7673 112.414 45.1442 111.749 45.8115C111.085 46.4789 110.712 47.3823 110.712 48.3241V58.0487C110.712 58.9931 111.087 59.8988 111.754 60.5665C112.422 61.2343 113.328 61.6094 114.272 61.6094H123.997C124.941 61.6094 125.847 61.2343 126.515 60.5665C127.183 59.8988 127.558 58.9931 127.558 58.0487V48.3241C127.558 47.8552 127.465 47.391 127.285 46.958C127.105 46.525 126.842 46.1318 126.509 45.8009C126.177 45.4701 125.783 45.2081 125.349 45.0301C124.915 44.852 124.451 44.7614 123.982 44.7633ZM119.142 48.2044C120.601 48.2044 121.386 49.3938 121.386 50.8525C121.386 52.3112 120.601 53.5006 119.142 53.5006C117.683 53.5006 116.898 52.3187 116.898 50.8525C116.898 49.3863 117.676 48.2044 119.142 48.2044ZM124.984 58.131H113.292C113.245 58.1311 113.198 58.1219 113.155 58.104C113.111 58.086 113.071 58.0596 113.038 58.0263L113.786 55.9841C114.02 55.3401 114.446 54.7835 115.006 54.3901C115.567 53.9966 116.235 53.7853 116.92 53.7848H121.341C122.027 53.7848 122.697 53.9959 123.259 54.3893C123.821 54.7827 124.248 55.3395 124.483 55.9841L125.231 58.0263C125.199 58.0594 125.161 58.0857 125.118 58.1037C125.076 58.1217 125.03 58.131 124.984 58.131Z" fill="#407BFF"/>
<path opacity="0.7" d="M123.982 44.7633H114.257C113.316 44.7673 112.414 45.1442 111.749 45.8115C111.085 46.4789 110.712 47.3823 110.712 48.3241V58.0487C110.712 58.9931 111.087 59.8988 111.754 60.5665C112.422 61.2343 113.328 61.6094 114.272 61.6094H123.997C124.941 61.6094 125.847 61.2343 126.515 60.5665C127.183 59.8988 127.558 58.9931 127.558 58.0487V48.3241C127.558 47.8552 127.465 47.391 127.285 46.958C127.105 46.525 126.842 46.1318 126.509 45.8009C126.177 45.4701 125.783 45.2081 125.349 45.0301C124.915 44.852 124.451 44.7614 123.982 44.7633ZM119.142 48.2044C120.601 48.2044 121.386 49.3938 121.386 50.8525C121.386 52.3112 120.601 53.5006 119.142 53.5006C117.683 53.5006 116.898 52.3187 116.898 50.8525C116.898 49.3863 117.676 48.2044 119.142 48.2044ZM124.984 58.131H113.292C113.245 58.1311 113.198 58.1219 113.155 58.104C113.111 58.086 113.071 58.0596 113.038 58.0263L113.786 55.9841C114.02 55.3401 114.446 54.7835 115.006 54.3901C115.567 53.9966 116.235 53.7853 116.92 53.7848H121.341C122.027 53.7848 122.697 53.9959 123.259 54.3893C123.821 54.7827 124.248 55.3395 124.483 55.9841L125.231 58.0263C125.199 58.0594 125.161 58.0857 125.118 58.1037C125.076 58.1217 125.03 58.131 124.984 58.131Z" fill="white"/>
<path d="M89.5118 84.6195H82.151C81.5216 84.6185 80.8983 84.7416 80.3166 84.9818C79.7348 85.2219 79.2062 85.5744 78.7608 86.0191C78.3155 86.4638 77.9622 86.9919 77.7211 87.5732C77.48 88.1545 77.356 88.7777 77.356 89.407V96.7679C77.356 98.0396 77.8611 99.2592 78.7604 100.158C79.6596 101.058 80.8792 101.563 82.151 101.563H89.5118C90.1411 101.563 90.7643 101.439 91.3456 101.198C91.927 100.957 92.4551 100.603 92.8997 100.158C93.3444 99.7126 93.6969 99.184 93.937 98.6023C94.1772 98.0206 94.3003 97.3972 94.2993 96.7679V89.407C94.3003 88.7781 94.1771 88.1551 93.9369 87.5738C93.6966 86.9925 93.344 86.4643 92.8993 86.0196C92.4545 85.5748 91.9264 85.2222 91.3451 84.9819C90.7638 84.7417 90.1408 84.6185 89.5118 84.6195ZM85.8314 97.1045C85.8314 97.1045 82.8392 93.8205 82.8392 92.1449C82.8392 91.3424 83.158 90.5728 83.7254 90.0053C84.2929 89.4378 85.0625 89.119 85.865 89.119C86.6675 89.119 87.4372 89.4378 88.0046 90.0053C88.5721 90.5728 88.8909 91.3424 88.8909 92.1449C88.8535 93.8205 85.8314 97.1045 85.8314 97.1045Z" fill="#407BFF"/>
<path d="M85.8314 90.7685C85.557 90.767 85.2885 90.8471 85.0597 90.9986C84.831 91.1501 84.6525 91.3662 84.5468 91.6194C84.4411 91.8725 84.4131 92.1514 84.4663 92.4205C84.5194 92.6897 84.6514 92.937 84.8454 93.131C85.0394 93.3249 85.2866 93.4569 85.5558 93.5101C85.8249 93.5632 86.1038 93.5352 86.357 93.4295C86.6101 93.3238 86.8262 93.1453 86.9777 92.9166C87.1292 92.6879 87.2093 92.4193 87.2078 92.1449C87.2078 91.7799 87.0628 91.4298 86.8047 91.1717C86.5465 90.9135 86.1964 90.7685 85.8314 90.7685Z" fill="#407BFF"/>
<g opacity="0.7">
<path opacity="0.7" d="M89.5118 84.6195H82.151C81.5216 84.6185 80.8983 84.7416 80.3166 84.9818C79.7348 85.2219 79.2062 85.5744 78.7608 86.0191C78.3155 86.4638 77.9622 86.9919 77.7211 87.5732C77.48 88.1545 77.356 88.7777 77.356 89.407V96.7679C77.356 98.0396 77.8611 99.2592 78.7604 100.158C79.6596 101.058 80.8792 101.563 82.151 101.563H89.5118C90.1411 101.563 90.7643 101.439 91.3456 101.198C91.927 100.957 92.4551 100.603 92.8997 100.158C93.3444 99.7126 93.6969 99.184 93.937 98.6023C94.1772 98.0206 94.3003 97.3972 94.2993 96.7679V89.407C94.3003 88.7781 94.1771 88.1551 93.9369 87.5738C93.6966 86.9925 93.344 86.4643 92.8993 86.0196C92.4545 85.5748 91.9264 85.2222 91.3451 84.9819C90.7638 84.7417 90.1408 84.6185 89.5118 84.6195ZM85.8314 97.1045C85.8314 97.1045 82.8392 93.8205 82.8392 92.1449C82.8392 91.3424 83.158 90.5728 83.7254 90.0053C84.2929 89.4378 85.0625 89.119 85.865 89.119C86.6675 89.119 87.4372 89.4378 88.0046 90.0053C88.5721 90.5728 88.8909 91.3424 88.8909 92.1449C88.8535 93.8205 85.8314 97.1045 85.8314 97.1045Z" fill="white"/>
<path opacity="0.7" d="M85.8314 90.7685C85.557 90.767 85.2885 90.8471 85.0597 90.9986C84.831 91.1501 84.6525 91.3662 84.5468 91.6194C84.4411 91.8725 84.4131 92.1514 84.4663 92.4205C84.5194 92.6897 84.6514 92.937 84.8454 93.131C85.0394 93.3249 85.2866 93.4569 85.5558 93.5101C85.8249 93.5632 86.1038 93.5352 86.357 93.4295C86.6101 93.3238 86.8262 93.1453 86.9777 92.9166C87.1292 92.6879 87.2093 92.4193 87.2078 92.1449C87.2078 91.7799 87.0628 91.4298 86.8047 91.1717C86.5465 90.9135 86.1964 90.7685 85.8314 90.7685Z" fill="white"/>
</g>
<path d="M251.121 63.7564L256.05 60.5697L251.121 57.3755V63.7564Z" fill="#407BFF"/>
<path d="M257.472 51.8698H248.076C247.015 51.8698 245.997 52.2915 245.246 53.042C244.496 53.7925 244.074 54.8105 244.074 55.8719V65.2674C244.076 66.3282 244.498 67.345 245.248 68.0951C245.999 68.8452 247.015 69.2675 248.076 69.2695H257.472C258.533 69.2695 259.551 68.8478 260.302 68.0973C261.052 67.3468 261.474 66.3288 261.474 65.2674V55.8719C261.475 55.3461 261.372 54.8252 261.171 54.3392C260.97 53.8532 260.676 53.4116 260.304 53.0398C259.932 52.668 259.49 52.3732 259.004 52.1725C258.518 51.9717 257.998 51.8688 257.472 51.8698ZM252.774 66.8308C251.535 66.8308 250.324 66.4634 249.295 65.7751C248.265 65.0868 247.462 64.1085 246.989 62.964C246.515 61.8195 246.391 60.5602 246.634 59.3454C246.876 58.1307 247.473 57.015 248.349 56.1397C249.226 55.2643 250.342 54.6686 251.557 54.4279C252.772 54.1871 254.031 54.3122 255.175 54.7872C256.319 55.2623 257.296 56.0659 257.984 57.0966C258.671 58.1272 259.037 59.3385 259.035 60.5771C259.034 61.3984 258.871 62.2114 258.556 62.9698C258.241 63.7281 257.78 64.417 257.198 64.997C256.617 65.577 255.927 66.0368 255.168 66.3502C254.409 66.6636 253.595 66.8243 252.774 66.8234V66.8308Z" fill="#407BFF"/>
<g opacity="0.7">
<path opacity="0.7" d="M251.121 63.7563L256.05 60.5696L251.121 57.3754V63.7563Z" fill="white"/>
<path opacity="0.7" d="M257.472 51.8698H248.076C247.015 51.8698 245.997 52.2915 245.246 53.042C244.496 53.7925 244.074 54.8105 244.074 55.8719V65.2674C244.076 66.3282 244.498 67.345 245.248 68.0951C245.999 68.8452 247.015 69.2675 248.076 69.2695H257.472C258.533 69.2695 259.551 68.8478 260.302 68.0973C261.052 67.3468 261.474 66.3288 261.474 65.2674V55.8719C261.475 55.3461 261.372 54.8252 261.171 54.3392C260.97 53.8532 260.676 53.4116 260.304 53.0398C259.932 52.668 259.49 52.3732 259.004 52.1725C258.518 51.9717 257.998 51.8688 257.472 51.8698ZM252.774 66.8308C251.535 66.8308 250.324 66.4634 249.295 65.7751C248.265 65.0868 247.462 64.1085 246.989 62.964C246.515 61.8195 246.391 60.5602 246.634 59.3454C246.876 58.1307 247.473 57.015 248.349 56.1397C249.226 55.2643 250.342 54.6686 251.557 54.4279C252.772 54.1871 254.031 54.3122 255.175 54.7872C256.319 55.2623 257.296 56.0659 257.984 57.0966C258.671 58.1272 259.037 59.3385 259.035 60.5771C259.034 61.3984 258.871 62.2114 258.556 62.9698C258.241 63.7281 257.78 64.417 257.198 64.997C256.617 65.577 255.927 66.0368 255.168 66.3502C254.409 66.6636 253.595 66.8243 252.774 66.8234V66.8308Z" fill="white"/>
</g>
<path d="M266.695 87.9034C266.695 87.7089 266.695 87.5144 266.695 87.3274L267.825 86.699C267.743 86.1642 267.602 85.6399 267.406 85.1356H266.119C265.956 84.7844 265.76 84.4489 265.536 84.1332L266.201 83.0336C265.86 82.6115 265.477 82.2254 265.057 81.8816L263.95 82.5473C263.636 82.3268 263.303 82.1341 262.955 81.9713V80.6772C262.449 80.486 261.925 80.3457 261.391 80.2583L260.763 81.3879C260.576 81.3879 260.382 81.3879 260.187 81.3879C259.993 81.3879 259.806 81.3879 259.611 81.3879L258.983 80.2583C258.449 80.3476 257.926 80.4879 257.419 80.6772V81.9713C257.071 82.1324 256.738 82.3252 256.424 82.5473L255.317 81.8816C254.893 82.2233 254.507 82.6095 254.165 83.0336L254.831 84.1332C254.612 84.4508 254.419 84.7861 254.255 85.1356H252.968C252.773 85.6408 252.63 86.1647 252.542 86.699L253.672 87.3274C253.672 87.5144 253.672 87.7089 253.672 87.9034C253.672 88.0979 253.672 88.2924 253.672 88.4794L252.542 89.1077C252.629 89.6423 252.772 90.1663 252.968 90.6712H254.255C254.419 91.0207 254.612 91.356 254.831 91.6736L254.165 92.7807C254.509 93.2006 254.895 93.5841 255.317 93.9252L256.424 93.2594C256.736 93.4843 257.069 93.6772 257.419 93.8354V95.1296C257.925 95.3224 258.449 95.4627 258.983 95.5485L259.611 94.4189C259.806 94.4189 259.993 94.4189 260.187 94.4189C260.382 94.4189 260.576 94.4189 260.763 94.4189L261.391 95.5485C261.926 95.4647 262.45 95.3242 262.955 95.1296V93.8354C263.304 93.6756 263.637 93.4827 263.95 93.2594L265.057 93.9252C265.475 93.582 265.858 93.1987 266.201 92.7807L265.536 91.6736C265.76 91.3579 265.956 91.0223 266.119 90.6712H267.406C267.603 90.1672 267.743 89.6428 267.825 89.1077L266.695 88.4794C266.68 88.2699 266.695 88.0979 266.695 87.9034ZM260.172 92.3318C259.296 92.3318 258.44 92.0721 257.712 91.5855C256.984 91.0989 256.416 90.4073 256.081 89.5981C255.746 88.7889 255.658 87.8985 255.829 87.0394C256 86.1804 256.421 85.3913 257.041 84.772C257.66 84.1527 258.449 83.7309 259.308 83.56C260.167 83.3891 261.058 83.4768 261.867 83.812C262.676 84.1472 263.368 84.7148 263.854 85.4431C264.341 86.1713 264.601 87.0275 264.601 87.9034C264.601 89.0779 264.134 90.2043 263.304 91.0348C262.473 91.8653 261.347 92.3318 260.172 92.3318Z" fill="#407BFF"/>
<path opacity="0.7" d="M266.695 87.9034C266.695 87.7089 266.695 87.5144 266.695 87.3274L267.825 86.699C267.743 86.1642 267.602 85.6399 267.406 85.1356H266.119C265.956 84.7844 265.76 84.4489 265.536 84.1332L266.201 83.0336C265.86 82.6115 265.477 82.2254 265.057 81.8816L263.95 82.5473C263.636 82.3268 263.303 82.1341 262.955 81.9713V80.6772C262.449 80.486 261.925 80.3457 261.391 80.2583L260.763 81.3879C260.576 81.3879 260.382 81.3879 260.187 81.3879C259.993 81.3879 259.806 81.3879 259.611 81.3879L258.983 80.2583C258.449 80.3476 257.926 80.4879 257.419 80.6772V81.9713C257.071 82.1324 256.738 82.3252 256.424 82.5473L255.317 81.8816C254.893 82.2233 254.507 82.6095 254.165 83.0336L254.831 84.1332C254.612 84.4508 254.419 84.7861 254.255 85.1356H252.968C252.773 85.6408 252.63 86.1647 252.542 86.699L253.672 87.3274C253.672 87.5144 253.672 87.7089 253.672 87.9034C253.672 88.0979 253.672 88.2924 253.672 88.4794L252.542 89.1077C252.629 89.6423 252.772 90.1663 252.968 90.6712H254.255C254.419 91.0207 254.612 91.356 254.831 91.6736L254.165 92.7807C254.509 93.2006 254.895 93.5841 255.317 93.9252L256.424 93.2594C256.736 93.4843 257.069 93.6772 257.419 93.8354V95.1296C257.925 95.3224 258.449 95.4627 258.983 95.5485L259.611 94.4189C259.806 94.4189 259.993 94.4189 260.187 94.4189C260.382 94.4189 260.576 94.4189 260.763 94.4189L261.391 95.5485C261.926 95.4647 262.45 95.3242 262.955 95.1296V93.8354C263.304 93.6756 263.637 93.4827 263.95 93.2594L265.057 93.9252C265.475 93.582 265.858 93.1987 266.201 92.7807L265.536 91.6736C265.76 91.3579 265.956 91.0223 266.119 90.6712H267.406C267.603 90.1672 267.743 89.6428 267.825 89.1077L266.695 88.4794C266.68 88.2699 266.695 88.0979 266.695 87.9034ZM260.172 92.3318C259.296 92.3318 258.44 92.0721 257.712 91.5855C256.984 91.0989 256.416 90.4073 256.081 89.5981C255.746 88.7889 255.658 87.8985 255.829 87.0394C256 86.1804 256.421 85.3913 257.041 84.772C257.66 84.1527 258.449 83.7309 259.308 83.56C260.167 83.3891 261.058 83.4768 261.867 83.812C262.676 84.1472 263.368 84.7148 263.854 85.4431C264.341 86.1713 264.601 87.0275 264.601 87.9034C264.601 89.0779 264.134 90.2043 263.304 91.0348C262.473 91.8653 261.347 92.3318 260.172 92.3318Z" fill="white"/>
<path d="M249.647 110.143C249.647 109.851 249.647 109.567 249.61 109.283L251.3 108.348C251.173 107.545 250.962 106.758 250.672 105.999L248.742 106.036C248.498 105.512 248.208 105.012 247.874 104.54L248.869 102.887C248.36 102.258 247.785 101.683 247.156 101.174L245.503 102.161C245.029 101.833 244.529 101.545 244.007 101.301V99.371C243.251 99.0795 242.466 98.8689 241.665 98.7426L240.73 100.433C240.446 100.433 240.162 100.433 239.87 100.433C239.578 100.433 239.294 100.433 239.01 100.433L238.097 98.7426C237.297 98.8707 236.512 99.0813 235.756 99.371V101.301C235.234 101.545 234.733 101.832 234.26 102.161L232.644 101.174C232.012 101.683 231.436 102.257 230.923 102.887L231.918 104.54C231.587 105.012 231.299 105.513 231.058 106.036L229.128 105.999C228.834 106.757 228.623 107.544 228.5 108.348L230.19 109.283C230.13 109.855 230.13 110.431 230.19 111.003L228.5 111.946C228.624 112.747 228.835 113.532 229.128 114.287L231.058 114.25C231.297 114.774 231.585 115.275 231.918 115.746L230.923 117.399C231.436 118.028 232.012 118.603 232.644 119.112L234.297 118.125C234.769 118.456 235.269 118.744 235.793 118.985V120.915C236.549 121.208 237.334 121.419 238.135 121.543L239.077 119.853C239.649 119.912 240.226 119.912 240.798 119.853L241.733 121.543C242.534 121.421 243.319 121.21 244.074 120.915V118.985C244.598 118.744 245.098 118.456 245.57 118.125L247.223 119.112C247.853 118.602 248.427 118.028 248.936 117.399L247.942 115.746C248.277 115.275 248.567 114.774 248.809 114.25L250.739 114.287C251.029 113.53 251.239 112.746 251.368 111.946L249.677 111.003C249.632 110.711 249.647 110.435 249.647 110.143ZM239.922 113.988C239.162 113.988 238.419 113.762 237.786 113.34C237.154 112.917 236.661 112.317 236.37 111.614C236.079 110.912 236.003 110.139 236.151 109.393C236.3 108.647 236.666 107.962 237.204 107.424C237.741 106.886 238.426 106.52 239.172 106.372C239.918 106.223 240.691 106.3 241.394 106.591C242.096 106.882 242.697 107.374 243.119 108.007C243.542 108.639 243.767 109.382 243.767 110.143C243.767 110.65 243.667 111.152 243.473 111.62C243.278 112.087 242.993 112.512 242.633 112.87C242.274 113.227 241.847 113.51 241.378 113.702C240.909 113.894 240.407 113.991 239.9 113.988H239.922Z" fill="#407BFF"/>
<path opacity="0.7" d="M249.647 110.143C249.647 109.851 249.647 109.567 249.61 109.283L251.3 108.348C251.173 107.545 250.962 106.758 250.672 105.999L248.742 106.036C248.498 105.512 248.208 105.012 247.874 104.54L248.869 102.887C248.36 102.258 247.785 101.683 247.156 101.174L245.503 102.161C245.029 101.833 244.529 101.545 244.007 101.301V99.371C243.251 99.0795 242.466 98.8689 241.665 98.7426L240.73 100.433C240.446 100.433 240.162 100.433 239.87 100.433C239.578 100.433 239.294 100.433 239.01 100.433L238.097 98.7426C237.297 98.8707 236.512 99.0813 235.756 99.371V101.301C235.234 101.545 234.733 101.832 234.26 102.161L232.644 101.174C232.012 101.683 231.436 102.257 230.923 102.887L231.918 104.54C231.587 105.012 231.299 105.513 231.058 106.036L229.128 105.999C228.834 106.757 228.623 107.544 228.5 108.348L230.19 109.283C230.13 109.855 230.13 110.431 230.19 111.003L228.5 111.946C228.624 112.747 228.835 113.532 229.128 114.287L231.058 114.25C231.297 114.774 231.585 115.275 231.918 115.746L230.923 117.399C231.436 118.028 232.012 118.603 232.644 119.112L234.297 118.125C234.769 118.456 235.269 118.744 235.793 118.985V120.915C236.549 121.208 237.334 121.419 238.135 121.543L239.077 119.853C239.649 119.912 240.226 119.912 240.798 119.853L241.733 121.543C242.534 121.421 243.319 121.21 244.074 120.915V118.985C244.598 118.744 245.098 118.456 245.57 118.125L247.223 119.112C247.853 118.602 248.427 118.028 248.936 117.399L247.942 115.746C248.277 115.275 248.567 114.774 248.809 114.25L250.739 114.287C251.029 113.53 251.239 112.746 251.368 111.946L249.677 111.003C249.632 110.711 249.647 110.435 249.647 110.143ZM239.922 113.988C239.162 113.988 238.419 113.762 237.786 113.34C237.154 112.917 236.661 112.317 236.37 111.614C236.079 110.912 236.003 110.139 236.151 109.393C236.3 108.647 236.666 107.962 237.204 107.424C237.741 106.886 238.426 106.52 239.172 106.372C239.918 106.223 240.691 106.3 241.394 106.591C242.096 106.882 242.697 107.374 243.119 108.007C243.542 108.639 243.767 109.382 243.767 110.143C243.767 110.65 243.667 111.152 243.473 111.62C243.278 112.087 242.993 112.512 242.633 112.87C242.274 113.227 241.847 113.51 241.378 113.702C240.909 113.894 240.407 113.991 239.9 113.988H239.922Z" fill="white"/>
<path d="M222.171 66.771V70.6908L218.431 72.6582C218.286 72.7362 218.164 72.8522 218.079 72.9938C217.995 73.1354 217.95 73.2974 217.95 73.4624C217.95 73.6274 217.995 73.7893 218.079 73.9309C218.164 74.0725 218.286 74.1885 218.431 74.2665L222.171 76.2339V80.1537C222.171 80.5723 222.337 80.9738 222.633 81.2698C222.929 81.5658 223.331 81.7321 223.75 81.7321H237.132C237.552 81.7321 237.954 81.566 238.251 81.2702C238.548 80.9744 238.716 80.573 238.718 80.1537V66.771C238.718 66.3504 238.551 65.9471 238.254 65.6497C237.956 65.3523 237.553 65.1852 237.132 65.1852H223.727C223.311 65.1911 222.914 65.361 222.623 65.658C222.332 65.955 222.169 66.355 222.171 66.771Z" fill="#407BFF"/>
<g opacity="0.9">
<path opacity="0.9" d="M226.749 70.8554H234.357C234.605 70.8554 234.843 70.7569 235.018 70.5815C235.193 70.4062 235.292 70.1683 235.292 69.9204C235.292 69.6724 235.193 69.4345 235.018 69.2592C234.843 69.0838 234.605 68.9853 234.357 68.9853H226.749C226.501 68.9853 226.263 69.0838 226.088 69.2592C225.913 69.4345 225.814 69.6724 225.814 69.9204C225.814 70.1683 225.913 70.4062 226.088 70.5815C226.263 70.7569 226.501 70.8554 226.749 70.8554Z" fill="white"/>
<path opacity="0.9" d="M234.357 72.5609H226.749C226.501 72.5609 226.263 72.6594 226.088 72.8348C225.913 73.0101 225.814 73.248 225.814 73.496C225.814 73.744 225.913 73.9818 226.088 74.1572C226.263 74.3325 226.501 74.431 226.749 74.431H234.357C234.605 74.431 234.843 74.3325 235.018 74.1572C235.193 73.9818 235.292 73.744 235.292 73.496C235.292 73.248 235.193 73.0101 235.018 72.8348C234.843 72.6594 234.605 72.5609 234.357 72.5609Z" fill="white"/>
<path opacity="0.9" d="M234.357 76.0693H226.749C226.501 76.0693 226.263 76.1678 226.088 76.3432C225.913 76.5185 225.814 76.7563 225.814 77.0043C225.814 77.2523 225.913 77.4902 226.088 77.6655C226.263 77.8409 226.501 77.9394 226.749 77.9394H234.357C234.605 77.9394 234.843 77.8409 235.018 77.6655C235.193 77.4902 235.292 77.2523 235.292 77.0043C235.292 76.7563 235.193 76.5185 235.018 76.3432C234.843 76.1678 234.605 76.0693 234.357 76.0693Z" fill="white"/>
</g>
<path d="M146.543 60.5922H149.737L151.383 63.7115C151.492 63.9149 151.653 64.085 151.851 64.2036C152.049 64.3222 152.275 64.3848 152.505 64.3848C152.736 64.3848 152.962 64.3222 153.159 64.2036C153.357 64.085 153.519 63.9149 153.627 63.7115L155.273 60.5922H158.467C158.77 60.5922 159.071 60.5323 159.351 60.4161C159.631 60.2998 159.885 60.1294 160.099 59.9147C160.313 59.7 160.483 59.4451 160.598 59.1647C160.713 58.8843 160.772 58.5839 160.771 58.2807V46.3792C160.771 45.7681 160.528 45.1821 160.096 44.75C159.664 44.318 159.078 44.0752 158.467 44.0752H146.543C146.24 44.0742 145.94 44.1331 145.66 44.2486C145.38 44.364 145.126 44.5337 144.912 44.7478C144.698 44.962 144.528 45.2164 144.413 45.4963C144.297 45.7763 144.238 46.0764 144.239 46.3792V58.348C144.255 58.9486 144.504 59.5194 144.935 59.9386C145.365 60.3579 145.942 60.5924 146.543 60.5922Z" fill="#407BFF"/>
<path opacity="0.9" d="M152.513 47.6434L148.832 49.7978V56.0963H151.57V51.8699H153.463V56.0963H156.201V49.7978L152.513 47.6434Z" fill="white"/>
<path d="M182.375 231.739H179.532L177.7 228.253C177.609 228.084 177.474 227.943 177.309 227.845C177.144 227.746 176.956 227.695 176.764 227.695C176.573 227.695 176.385 227.746 176.22 227.845C176.055 227.943 175.92 228.084 175.829 228.253L173.997 231.739H171.079C170.383 231.739 169.715 232.015 169.223 232.508C168.73 233 168.454 233.668 168.454 234.364V245.66C168.454 246.356 168.73 247.024 169.223 247.517C169.715 248.009 170.383 248.286 171.079 248.286H182.375C183.071 248.286 183.739 248.009 184.231 247.517C184.724 247.024 185 246.356 185 245.66V234.364C185 233.668 184.724 233 184.231 232.508C183.739 232.015 183.071 231.739 182.375 231.739Z" fill="#407BFF"/>
<path opacity="0.9" d="M178.328 236.055C177.779 235.506 177.086 235.125 176.328 234.956C175.571 234.787 174.781 234.837 174.051 235.101C173.322 235.365 172.682 235.831 172.207 236.445C171.733 237.059 171.443 237.795 171.372 238.568C171.301 239.34 171.451 240.117 171.806 240.808C172.16 241.498 172.704 242.073 173.373 242.466C174.043 242.858 174.81 243.052 175.585 243.024C176.361 242.996 177.112 242.748 177.752 242.309C177.783 242.494 177.869 242.666 177.999 242.802L180.542 245.338C180.714 245.51 180.947 245.606 181.189 245.606C181.432 245.606 181.665 245.51 181.836 245.338C182.008 245.167 182.104 244.934 182.104 244.691C182.104 244.449 182.008 244.216 181.836 244.044L179.3 241.508C179.164 241.373 178.989 241.284 178.799 241.254C179.337 240.468 179.584 239.519 179.498 238.57C179.412 237.621 178.998 236.732 178.328 236.055ZM177.46 240.97C177.059 241.37 176.549 241.643 175.993 241.753C175.438 241.863 174.862 241.806 174.338 241.589C173.815 241.372 173.368 241.005 173.053 240.534C172.739 240.063 172.571 239.509 172.571 238.943C172.571 238.376 172.739 237.822 173.053 237.351C173.368 236.88 173.815 236.513 174.338 236.296C174.862 236.079 175.438 236.022 175.993 236.132C176.549 236.242 177.059 236.515 177.46 236.915C177.727 237.181 177.938 237.497 178.082 237.845C178.226 238.193 178.301 238.566 178.301 238.943C178.301 239.319 178.226 239.692 178.082 240.04C177.938 240.388 177.727 240.704 177.46 240.97Z" fill="white"/>
<path d="M303.178 156.515C303.178 156.515 297.081 171.625 291.112 173.256C285.142 174.887 276.151 173.563 276.151 173.563L273.368 174.311L270.637 173.907H270.54L267.466 173.832C267.355 173.841 267.244 173.819 267.145 173.767C267.047 173.715 266.965 173.636 266.91 173.539C266.855 173.443 266.829 173.332 266.834 173.221C266.84 173.11 266.877 173.003 266.942 172.912L268.042 171.416C268.134 171.293 268.262 171.202 268.408 171.154L271.341 170.212C271.456 170.186 271.576 170.186 271.692 170.212L276.18 170.922C276.18 170.922 288.635 168.88 289.907 167.728C291.179 166.576 294.927 154.495 294.927 154.495L303.178 156.515Z" fill="#EEC1BB"/>
<path opacity="0.1" d="M276.457 170.825L276.165 170.87L271.677 170.159C271.561 170.133 271.441 170.133 271.326 170.159L268.393 171.102C268.247 171.149 268.119 171.241 268.027 171.363L266.927 172.86C266.862 172.95 266.825 173.057 266.819 173.169C266.814 173.28 266.84 173.39 266.895 173.487C266.95 173.584 267.032 173.663 267.13 173.714C267.229 173.766 267.34 173.789 267.451 173.78L270.525 173.855H270.622L272.455 174.124C274.018 173.336 275.386 172.209 276.457 170.825Z" fill="black"/>
<path d="M306.858 141.546C302.43 140.095 296.198 143.424 293.812 157.367L303.006 160.083C303.006 160.083 313.187 143.626 306.858 141.546Z" fill="#407BFF"/>
<path d="M281.095 123.324C281.095 123.787 281.342 124.154 281.641 124.154C281.94 124.154 282.202 123.758 282.18 123.309C282.157 122.86 281.933 122.486 281.634 122.493C281.335 122.501 281.095 122.867 281.095 123.324Z" fill="#263238"/>
<path d="M282.905 123.78L280.729 127.378C280.729 127.378 281.477 128.231 283.115 127.603L282.905 123.78Z" fill="#D4827D"/>
<path d="M283.317 120.436C283.29 120.466 283.256 120.489 283.218 120.502C283.18 120.515 283.139 120.518 283.1 120.511C282.805 120.461 282.503 120.481 282.218 120.571C281.933 120.661 281.674 120.817 281.462 121.027C281.416 121.07 281.356 121.093 281.293 121.093C281.231 121.093 281.171 121.07 281.125 121.027C281.082 120.98 281.058 120.919 281.058 120.855C281.058 120.791 281.082 120.73 281.125 120.683C281.389 120.413 281.715 120.211 282.075 120.095C282.435 119.979 282.817 119.952 283.19 120.017C283.221 120.021 283.252 120.031 283.279 120.047C283.307 120.062 283.331 120.083 283.351 120.108C283.37 120.133 283.385 120.162 283.393 120.192C283.401 120.223 283.403 120.255 283.399 120.287C283.388 120.344 283.359 120.396 283.317 120.436Z" fill="#263238"/>
<path d="M298.697 120.062C299.033 126.144 299.31 128.717 296.625 132.173C292.338 135.876 285.037 136.467 282.883 130.61C280.946 125.373 280.721 116.299 286.346 113.165C287.301 112.633 288.35 112.295 289.435 112.169C290.52 112.044 291.62 112.133 292.67 112.433C293.721 112.732 294.702 113.236 295.557 113.914C296.413 114.593 297.127 115.434 297.657 116.389C298.279 117.518 298.635 118.775 298.697 120.062Z" fill="#EEC1BB"/>
<path d="M290.221 133.37L291.762 142.384L299.273 140.649L296.647 131.448L290.221 133.37Z" fill="#EEC1BB"/>
<path d="M284.813 120.511C285.194 116.561 283.833 121.124 282.008 115.91C280.183 110.697 288.808 106.463 290.184 107.435C291.56 108.408 290.775 109.896 295.338 110.741C296.583 110.939 297.713 111.584 298.517 112.554C299.321 113.525 299.744 114.755 299.707 116.015C299.707 116.015 302.332 117.227 301.397 122.867C300.711 126.481 299.172 129.879 296.909 132.779C296.909 132.779 295.181 130.999 292.421 132.637C291.343 131.934 290.432 131.005 289.75 129.914C288.523 128.074 288.142 126.323 286.459 126.174C282.943 125.852 284.686 121.813 284.813 120.511Z" fill="#263238"/>
<path d="M299.22 116.696C299.22 116.696 302.961 114.407 301.3 112.006C299.639 109.604 300.44 114.654 299.22 116.696Z" fill="#263238"/>
<path d="M285.883 122.808C285.053 123.735 284.625 124.954 284.693 126.196C284.798 127.842 286.414 128.134 287.685 127.236C288.957 126.338 290.161 124.588 289.428 123.144C289.266 122.829 289.027 122.56 288.733 122.361C288.439 122.163 288.1 122.041 287.747 122.008C287.394 121.974 287.039 122.03 286.713 122.17C286.387 122.309 286.102 122.529 285.883 122.808Z" fill="#FFC3BD"/>
<path opacity="0.1" d="M290.363 134.223L290.977 137.798C290.923 136.913 291.045 136.026 291.335 135.187C291.625 134.349 292.078 133.576 292.667 132.914C292.209 132.943 291.764 133.076 291.365 133.303C290.966 133.53 290.623 133.844 290.363 134.223Z" fill="black"/>
<path d="M237.559 157.472H235.412V170.137H237.559V157.472Z" fill="#407BFF"/>
<path opacity="0.7" d="M237.559 157.472H235.412V170.137H237.559V157.472Z" fill="white"/>
<path d="M222.807 132.323H217.458C216.496 132.323 215.573 132.705 214.893 133.385C214.213 134.066 213.83 134.989 213.83 135.951V160.734C213.83 161.21 213.924 161.682 214.107 162.122C214.289 162.562 214.556 162.962 214.893 163.299C215.23 163.636 215.63 163.903 216.07 164.086C216.51 164.268 216.982 164.362 217.458 164.362H222.807V132.323Z" fill="#407BFF"/>
<path d="M255.519 132.323H219.329C217.325 132.323 215.701 133.947 215.701 135.951V160.726C215.701 162.73 217.325 164.354 219.329 164.354H255.519C257.523 164.354 259.147 162.73 259.147 160.726V135.951C259.147 133.947 257.523 132.323 255.519 132.323Z" fill="#407BFF"/>
<path opacity="0.5" d="M255.519 132.323H219.329C217.325 132.323 215.701 133.947 215.701 135.951V160.726C215.701 162.73 217.325 164.354 219.329 164.354H255.519C257.523 164.354 259.147 162.73 259.147 160.726V135.951C259.147 133.947 257.523 132.323 255.519 132.323Z" fill="white"/>
<path d="M255.519 133.819H219.329C218.151 133.819 217.197 134.773 217.197 135.951V160.726C217.197 161.904 218.151 162.858 219.329 162.858H255.519C256.697 162.858 257.651 161.904 257.651 160.726V135.951C257.651 134.773 256.697 133.819 255.519 133.819Z" fill="#263238"/>
<path d="M228.672 175.448C228.735 173.418 229.585 171.491 231.044 170.077C232.502 168.663 234.454 167.873 236.485 167.873C238.516 167.873 240.468 168.663 241.927 170.077C243.385 171.491 244.236 173.418 244.298 175.448H228.672Z" fill="#407BFF"/>
<path d="M247.111 172.785H231.484V175.321H262.738V174.281L247.111 172.785Z" fill="#407BFF"/>
<path opacity="0.8" d="M247.111 172.785H231.484V175.321H262.738V174.281L247.111 172.785Z" fill="white"/>
<path d="M247.111 175.321H231.484V172.785L247.111 174.281V175.321Z" fill="#407BFF"/>
<path opacity="0.6" d="M247.111 175.321H231.484V172.785L247.111 174.281V175.321Z" fill="white"/>
<path d="M281.566 262.626H249.333C248.69 262.627 248.053 262.501 247.458 262.255C246.864 262.01 246.324 261.65 245.869 261.195C245.414 260.741 245.053 260.201 244.806 259.607C244.56 259.013 244.433 258.377 244.433 257.733V183.617C244.433 182.973 244.56 182.337 244.806 181.743C245.053 181.149 245.414 180.609 245.869 180.155C246.324 179.7 246.864 179.34 247.458 179.095C248.053 178.849 248.69 178.723 249.333 178.724H281.566C281.914 178.724 282.247 178.862 282.492 179.108C282.738 179.353 282.875 179.686 282.875 180.033C282.875 180.381 282.738 180.714 282.492 180.959C282.247 181.205 281.914 181.342 281.566 181.342H249.333C249.035 181.338 248.739 181.392 248.463 181.502C248.186 181.613 247.934 181.778 247.722 181.986C247.509 182.195 247.341 182.444 247.226 182.719C247.111 182.994 247.051 183.289 247.051 183.587V257.704C247.051 258.001 247.111 258.296 247.226 258.571C247.341 258.846 247.509 259.095 247.722 259.304C247.934 259.513 248.186 259.677 248.463 259.788C248.739 259.898 249.035 259.953 249.333 259.948H281.566C281.914 259.948 282.247 260.086 282.492 260.331C282.738 260.577 282.875 260.91 282.875 261.257C282.884 261.434 282.856 261.61 282.794 261.776C282.731 261.942 282.636 262.093 282.514 262.221C282.392 262.349 282.244 262.451 282.082 262.521C281.919 262.59 281.743 262.626 281.566 262.626Z" fill="#263238"/>
<g opacity="0.5">
<path opacity="0.5" d="M281.566 262.626H249.333C248.69 262.627 248.053 262.501 247.458 262.255C246.864 262.01 246.324 261.65 245.869 261.195C245.414 260.741 245.053 260.201 244.806 259.607C244.56 259.013 244.433 258.377 244.433 257.733V183.617C244.433 182.973 244.56 182.337 244.806 181.743C245.053 181.149 245.414 180.609 245.869 180.155C246.324 179.7 246.864 179.34 247.458 179.095C248.053 178.849 248.69 178.723 249.333 178.724H281.566C281.914 178.724 282.247 178.862 282.492 179.108C282.738 179.353 282.875 179.686 282.875 180.033C282.875 180.381 282.738 180.714 282.492 180.959C282.247 181.205 281.914 181.342 281.566 181.342H249.333C249.035 181.338 248.739 181.392 248.463 181.502C248.186 181.613 247.934 181.778 247.722 181.986C247.509 182.195 247.341 182.444 247.226 182.719C247.111 182.994 247.051 183.289 247.051 183.587V257.704C247.051 258.001 247.111 258.296 247.226 258.571C247.341 258.846 247.509 259.095 247.722 259.304C247.934 259.513 248.186 259.677 248.463 259.788C248.739 259.898 249.035 259.953 249.333 259.948H281.566C281.914 259.948 282.247 260.086 282.492 260.331C282.738 260.577 282.875 260.91 282.875 261.257C282.884 261.434 282.856 261.61 282.794 261.776C282.731 261.942 282.636 262.093 282.514 262.221C282.392 262.349 282.244 262.451 282.082 262.521C281.919 262.59 281.743 262.626 281.566 262.626Z" fill="white"/>
</g>
<path d="M249.206 175.321H203.432V179.158H249.206V175.321Z" fill="#407BFF"/>
<path opacity="0.2" d="M249.206 175.321H203.432V179.158H249.206V175.321Z" fill="white"/>
<path d="M286.152 175.321H247.111V179.158H286.152V175.321Z" fill="#407BFF"/>
<path opacity="0.5" d="M286.152 175.321H247.111V179.158H286.152V175.321Z" fill="white"/>
<path d="M272.463 235.434L274.624 257.292H269.448L264.264 236.003L272.463 235.434Z" fill="#EEC1BB"/>
<path d="M268.962 255.833L275.567 255.946C275.688 255.948 275.804 255.992 275.896 256.07C275.989 256.147 276.052 256.254 276.076 256.372L277.183 261.765C277.23 261.994 277.184 262.233 277.057 262.429C276.93 262.625 276.73 262.762 276.502 262.813H276.315C273.929 262.73 271.827 262.566 268.835 262.514C265.341 262.454 266.216 262.888 262.102 262.88C259.626 262.88 259.222 260.045 260.269 259.925C265.094 259.402 265.618 257.958 267.503 256.267C267.92 255.949 268.439 255.794 268.962 255.833Z" fill="#263238"/>
<path opacity="0.1" d="M274.063 251.584L272.463 235.434L264.264 236.003L268.057 251.584H274.063Z" fill="black"/>
<path d="M307.905 185.038L286.676 185.786C286.676 185.786 258.078 195.787 257.33 203.47C256.507 211.384 266.112 247.747 266.112 247.747H274.647C274.647 247.747 272.291 221.064 271.393 212.895C270.495 204.727 301.158 207.427 306.484 200.463C311.354 194.074 307.905 185.038 307.905 185.038Z" fill="#263238"/>
<path opacity="0.2" d="M307.905 185.038L286.676 185.786C286.676 185.786 258.078 195.787 257.33 203.47C256.507 211.384 266.112 247.747 266.112 247.747H274.647C274.647 247.747 272.291 221.064 271.393 212.895C270.495 204.727 301.158 207.427 306.484 200.463C311.354 194.074 307.905 185.038 307.905 185.038Z" fill="black"/>
<path d="M276.068 246.55L276.255 249.565H265.708L264.675 246.55H276.068Z" fill="#407BFF"/>
<path d="M252.707 236.474L253.275 257.292H248.188L245.174 236.474H252.707Z" fill="#EEC1BB"/>
<path d="M247.485 255.833L254.09 255.946C254.211 255.948 254.327 255.992 254.42 256.07C254.512 256.147 254.575 256.254 254.599 256.372L255.706 261.765C255.753 261.994 255.708 262.233 255.58 262.428C255.453 262.624 255.254 262.762 255.026 262.813H254.839C252.452 262.73 250.35 262.566 247.358 262.513C243.857 262.454 244.74 262.887 240.626 262.88C238.15 262.88 237.746 260.045 238.793 259.925C243.618 259.402 244.141 257.958 246.027 256.267C246.442 255.947 246.962 255.793 247.485 255.833Z" fill="#263238"/>
<path opacity="0.1" d="M253.118 251.57L252.707 236.474H245.174L247.365 251.585C249.004 251.592 251.255 251.577 253.118 251.57Z" fill="black"/>
<path d="M298.674 186.796C298.674 186.796 300.44 202.939 284.02 203.694C267.6 204.45 254.779 206.327 254.405 212.17C254.031 218.012 254.405 247.777 254.405 247.777H245.48C245.48 247.777 242.009 228.956 240.655 217.286C239.339 205.953 236.915 197.732 248.562 193.895C260.928 189.81 282.905 186.04 282.905 186.04L298.734 185.038L298.674 186.796Z" fill="#263238"/>
<path d="M255.721 246.55L255.16 249.565H245.361L244.328 246.55H255.721Z" fill="#407BFF"/>
<path d="M302.213 140.484C302.213 140.484 302.213 136.848 294.859 137.267C287.05 137.716 288.523 141.202 288.523 141.202L302.213 140.484Z" fill="#407BFF"/>
<path opacity="0.3" d="M302.213 140.484C302.213 140.484 302.213 136.848 294.859 137.267C287.05 137.716 288.523 141.202 288.523 141.202L302.213 140.484Z" fill="black"/>
<path d="M309.065 156.791C308.571 163.98 308.743 185.606 308.743 185.606C308.743 185.606 293.034 186.639 280.706 186.235L279.277 144.636C279.283 143.9 279.51 143.183 279.929 142.579C280.348 141.974 280.939 141.51 281.626 141.247C285.112 139.893 293.296 138.359 306.095 140.043C310.509 140.634 309.648 148.294 309.065 156.791Z" fill="#407BFF"/>
<path d="M281.798 156.515C281.798 156.515 275.694 171.625 269.732 173.256C263.77 174.887 254.771 173.563 254.771 173.563L251.988 174.311L249.266 173.907H249.168L246.086 173.832C245.975 173.841 245.864 173.819 245.766 173.767C245.667 173.715 245.586 173.636 245.531 173.539C245.476 173.443 245.449 173.332 245.455 173.221C245.461 173.11 245.498 173.003 245.563 172.912L246.67 171.416C246.762 171.293 246.89 171.202 247.036 171.154L249.961 170.212C250.08 170.186 250.202 170.186 250.32 170.212L254.809 170.922C254.809 170.922 267.264 168.88 268.528 167.728C269.792 166.576 273.555 154.495 273.555 154.495L281.798 156.515Z" fill="#EEC1BB"/>
<path opacity="0.1" d="M281.641 149.483C281.641 149.483 280.691 150.613 279.539 152.243L279.951 164.287C284.536 162.26 286.354 150.455 286.354 150.455L283.362 148.346L281.641 149.483Z" fill="black"/>
<path d="M285.479 141.546C281.05 140.095 274.812 143.424 272.425 157.367L281.626 160.053C281.626 160.053 291.807 143.626 285.479 141.546Z" fill="#407BFF"/>
<path d="M291.336 211.526H284.416V231.806H291.336V211.526Z" fill="#263238"/>
<path opacity="0.6" d="M291.336 211.526H284.416V231.806H291.336V211.526Z" fill="white"/>
<path d="M292.406 250.178V224.415H283.339V250.178L262.701 253.043V255.908L287.872 253.761L313.044 255.908V253.043L292.406 250.178Z" fill="#263238"/>
<path d="M262.401 262.932C263.909 262.932 265.132 261.71 265.132 260.202C265.132 258.694 263.909 257.472 262.401 257.472C260.893 257.472 259.671 258.694 259.671 260.202C259.671 261.71 260.893 262.932 262.401 262.932Z" fill="#407BFF"/>
<path d="M313.044 262.932C314.552 262.932 315.775 261.71 315.775 260.202C315.775 258.694 314.552 257.472 313.044 257.472C311.536 257.472 310.314 258.694 310.314 260.202C310.314 261.71 311.536 262.932 313.044 262.932Z" fill="#407BFF"/>
<path d="M287.872 262.932C289.38 262.932 290.603 261.71 290.603 260.202C290.603 258.694 289.38 257.472 287.872 257.472C286.365 257.472 285.142 258.694 285.142 260.202C285.142 261.71 286.365 262.932 287.872 262.932Z" fill="#407BFF"/>
<path opacity="0.3" d="M291.336 211.526H284.416V216.538H291.336V211.526Z" fill="black"/>
<path d="M315.229 165.559H292.682C290.91 165.56 289.202 166.223 287.892 167.416C286.582 168.61 285.764 170.25 285.598 172.014L283.698 192.384C283.488 194.629 282.476 196.723 280.848 198.283C279.221 199.843 277.086 200.766 274.834 200.882L253.073 201.974C251.8 202.039 250.6 202.591 249.721 203.515C248.843 204.439 248.353 205.666 248.353 206.941V207.397C248.353 208.49 248.787 209.539 249.56 210.312C250.333 211.085 251.382 211.519 252.475 211.519H318.745L322.313 173.368C322.409 172.38 322.297 171.383 321.985 170.44C321.672 169.498 321.166 168.631 320.499 167.895C319.832 167.16 319.019 166.572 318.111 166.17C317.203 165.767 316.222 165.559 315.229 165.559Z" fill="#407BFF"/>
<path opacity="0.3" d="M315.229 165.559H292.682C290.91 165.56 289.202 166.223 287.892 167.416C286.582 168.61 285.764 170.25 285.598 172.014L283.698 192.384C283.488 194.629 282.476 196.723 280.848 198.283C279.221 199.843 277.086 200.766 274.834 200.882L253.073 201.974C251.8 202.039 250.6 202.591 249.721 203.515C248.843 204.439 248.353 205.666 248.353 206.941V207.397C248.353 208.49 248.787 209.539 249.56 210.312C250.333 211.085 251.382 211.519 252.475 211.519H318.745L322.313 173.368C322.409 172.38 322.297 171.383 321.985 170.44C321.672 169.498 321.166 168.631 320.499 167.895C319.832 167.16 319.019 166.572 318.111 166.17C317.203 165.767 316.222 165.559 315.229 165.559Z" fill="white"/>
<path d="M263.479 188.509H266.583V204.749C266.583 205.146 266.425 205.526 266.145 205.807C265.864 206.088 265.484 206.245 265.087 206.245H264.975C264.578 206.245 264.197 206.088 263.917 205.807C263.636 205.526 263.479 205.146 263.479 204.749V188.509Z" fill="#263238"/>
<path opacity="0.2" d="M263.479 188.509H266.583V204.749C266.583 205.146 266.425 205.526 266.145 205.807C265.864 206.088 265.484 206.245 265.087 206.245H264.975C264.578 206.245 264.197 206.088 263.917 205.807C263.636 205.526 263.479 205.146 263.479 204.749V188.509Z" fill="white"/>
<path d="M278.447 183.848H271.543V189.571H278.462C278.85 189.591 279.238 189.532 279.603 189.397C279.967 189.262 280.3 189.054 280.582 188.787C280.863 188.519 281.088 188.197 281.241 187.84C281.394 187.483 281.473 187.098 281.473 186.71C281.473 186.321 281.394 185.937 281.241 185.58C281.088 185.223 280.863 184.9 280.582 184.633C280.3 184.365 279.967 184.158 279.603 184.023C279.238 183.888 278.85 183.829 278.462 183.848H278.447Z" fill="#407BFF"/>
<path opacity="0.5" d="M278.447 183.848H271.543V189.571H278.462C278.85 189.591 279.238 189.532 279.603 189.397C279.967 189.262 280.3 189.054 280.582 188.787C280.863 188.519 281.088 188.197 281.241 187.84C281.394 187.483 281.473 187.098 281.473 186.71C281.473 186.321 281.394 185.937 281.241 185.58C281.088 185.223 280.863 184.9 280.582 184.633C280.3 184.365 279.967 184.158 279.603 184.023C279.238 183.888 278.85 183.829 278.462 183.848H278.447Z" fill="white"/>
<path d="M275.687 183.848H251.502C249.978 183.848 248.742 185.084 248.742 186.609V186.818C248.742 188.343 249.978 189.579 251.502 189.579H275.687C277.211 189.579 278.447 188.343 278.447 186.818V186.609C278.447 185.084 277.211 183.848 275.687 183.848Z" fill="#407BFF"/>
<path opacity="0.3" d="M275.687 183.848H251.502C249.978 183.848 248.742 185.084 248.742 186.609V186.818C248.742 188.343 249.978 189.579 251.502 189.579H275.687C277.211 189.579 278.447 188.343 278.447 186.818V186.609C278.447 185.084 277.211 183.848 275.687 183.848Z" fill="white"/>
<path d="M320.3 211.526H287.154L290.85 172.052C291.015 170.287 291.833 168.648 293.143 167.454C294.453 166.26 296.161 165.598 297.934 165.596H320.48C321.47 165.597 322.449 165.804 323.355 166.205C324.26 166.606 325.072 167.191 325.739 167.923C326.405 168.655 326.912 169.518 327.226 170.457C327.54 171.396 327.656 172.39 327.564 173.376L324.34 207.891C324.235 208.889 323.764 209.812 323.018 210.484C322.272 211.155 321.304 211.526 320.3 211.526Z" fill="#407BFF"/>
<path opacity="0.5" d="M320.3 211.526H287.154L290.85 172.052C291.015 170.287 291.833 168.648 293.143 167.454C294.453 166.26 296.161 165.598 297.934 165.596H320.48C321.47 165.597 322.449 165.804 323.355 166.205C324.26 166.606 325.072 167.191 325.739 167.923C326.405 168.655 326.912 169.518 327.226 170.457C327.54 171.396 327.656 172.39 327.564 173.376L324.34 207.891C324.235 208.889 323.764 209.812 323.018 210.484C322.272 211.155 321.304 211.526 320.3 211.526Z" fill="white"/>
<path d="M242.87 262.626H210.636C209.993 262.627 209.356 262.501 208.762 262.255C208.167 262.01 207.627 261.65 207.172 261.195C206.717 260.741 206.356 260.201 206.11 259.607C205.863 259.013 205.736 258.377 205.736 257.733V183.617C205.736 182.973 205.863 182.337 206.11 181.743C206.356 181.149 206.717 180.609 207.172 180.155C207.627 179.7 208.167 179.34 208.762 179.095C209.356 178.849 209.993 178.723 210.636 178.724H242.87C243.217 178.724 243.55 178.862 243.795 179.108C244.041 179.353 244.179 179.686 244.179 180.033C244.179 180.381 244.041 180.714 243.795 180.959C243.55 181.205 243.217 181.342 242.87 181.342H210.636C210.338 181.338 210.043 181.392 209.766 181.502C209.489 181.613 209.237 181.778 209.025 181.986C208.813 182.195 208.644 182.444 208.529 182.719C208.414 182.994 208.355 183.289 208.355 183.587V257.704C208.355 258.001 208.414 258.296 208.529 258.571C208.644 258.846 208.813 259.095 209.025 259.304C209.237 259.513 209.489 259.677 209.766 259.788C210.043 259.898 210.338 259.953 210.636 259.948H242.87C243.217 259.948 243.55 260.086 243.795 260.331C244.041 260.577 244.179 260.91 244.179 261.257C244.187 261.434 244.159 261.61 244.097 261.776C244.035 261.942 243.94 262.093 243.817 262.221C243.695 262.349 243.548 262.451 243.385 262.521C243.222 262.59 243.047 262.626 242.87 262.626Z" fill="#263238"/>
<g opacity="0.5">
<path opacity="0.5" d="M242.87 262.626H210.636C209.993 262.627 209.356 262.501 208.762 262.255C208.167 262.01 207.627 261.65 207.172 261.195C206.717 260.741 206.356 260.201 206.11 259.607C205.863 259.013 205.736 258.377 205.736 257.733V183.617C205.736 182.973 205.863 182.337 206.11 181.743C206.356 181.149 206.717 180.609 207.172 180.155C207.627 179.7 208.167 179.34 208.762 179.095C209.356 178.849 209.993 178.723 210.636 178.724H242.87C243.217 178.724 243.55 178.862 243.795 179.108C244.041 179.353 244.179 179.686 244.179 180.033C244.179 180.381 244.041 180.714 243.795 180.959C243.55 181.205 243.217 181.342 242.87 181.342H210.636C210.338 181.338 210.043 181.392 209.766 181.502C209.489 181.613 209.237 181.778 209.025 181.986C208.813 182.195 208.644 182.444 208.529 182.719C208.414 182.994 208.355 183.289 208.355 183.587V257.704C208.355 258.001 208.414 258.296 208.529 258.571C208.644 258.846 208.813 259.095 209.025 259.304C209.237 259.513 209.489 259.677 209.766 259.788C210.043 259.898 210.338 259.953 210.636 259.948H242.87C243.217 259.948 243.55 260.086 243.795 260.331C244.041 260.577 244.179 260.91 244.179 261.257C244.187 261.434 244.159 261.61 244.097 261.776C244.035 261.942 243.94 262.093 243.817 262.221C243.695 262.349 243.548 262.451 243.385 262.521C243.222 262.59 243.047 262.626 242.87 262.626Z" fill="white"/>
</g>
<path d="M221.565 139.728L219.321 138.232C219.264 138.196 219.217 138.145 219.184 138.086C219.152 138.027 219.135 137.96 219.135 137.892C219.135 137.824 219.152 137.757 219.184 137.698C219.217 137.638 219.264 137.588 219.321 137.552L221.565 136.055C221.648 136.001 221.748 135.982 221.845 136.002C221.942 136.021 222.027 136.078 222.081 136.16C222.133 136.242 222.151 136.341 222.132 136.436C222.112 136.531 222.057 136.614 221.977 136.669L220.114 137.903L221.977 139.137C222.057 139.192 222.112 139.276 222.132 139.371C222.151 139.466 222.133 139.564 222.081 139.646C222.022 139.723 221.936 139.774 221.84 139.79C221.744 139.805 221.646 139.783 221.565 139.728Z" fill="white"/>
<path d="M226.532 139.624C226.488 139.542 226.476 139.446 226.499 139.355C226.523 139.265 226.58 139.187 226.659 139.137L228.522 137.903L226.659 136.646C226.579 136.592 226.524 136.508 226.506 136.412C226.487 136.317 226.508 136.218 226.562 136.138C226.589 136.097 226.623 136.063 226.663 136.036C226.703 136.008 226.748 135.989 226.795 135.98C226.842 135.97 226.891 135.97 226.938 135.979C226.986 135.988 227.031 136.006 227.071 136.033L229.315 137.529C229.372 137.566 229.419 137.616 229.452 137.675C229.484 137.735 229.501 137.802 229.501 137.869C229.501 137.937 229.484 138.004 229.452 138.064C229.419 138.123 229.372 138.173 229.315 138.21L227.071 139.706C227.031 139.737 226.985 139.76 226.935 139.773C226.886 139.786 226.834 139.789 226.784 139.781C226.733 139.773 226.685 139.756 226.642 139.728C226.598 139.701 226.561 139.666 226.532 139.624Z" fill="white"/>
<path d="M223.458 140.634C223.411 140.619 223.368 140.596 223.331 140.564C223.294 140.533 223.263 140.495 223.241 140.452C223.219 140.409 223.205 140.361 223.201 140.313C223.198 140.265 223.203 140.216 223.218 140.17L224.767 135.278C224.781 135.231 224.803 135.189 224.834 135.151C224.864 135.114 224.902 135.084 224.944 135.061C224.987 135.039 225.034 135.025 225.081 135.021C225.129 135.018 225.178 135.023 225.223 135.038C225.269 135.052 225.312 135.075 225.349 135.105C225.386 135.136 225.417 135.173 225.439 135.216C225.462 135.258 225.475 135.305 225.479 135.353C225.483 135.401 225.478 135.449 225.463 135.494L223.922 140.394C223.907 140.441 223.884 140.484 223.852 140.521C223.821 140.558 223.783 140.589 223.74 140.611C223.697 140.633 223.649 140.647 223.601 140.651C223.553 140.654 223.504 140.649 223.458 140.634Z" fill="white"/>
<path d="M236.16 144.374H219.501C219.45 144.374 219.4 144.364 219.353 144.344C219.306 144.324 219.264 144.296 219.228 144.259C219.193 144.223 219.165 144.18 219.146 144.133C219.127 144.086 219.118 144.036 219.119 143.985C219.118 143.934 219.127 143.884 219.146 143.837C219.165 143.789 219.193 143.746 219.228 143.71C219.264 143.674 219.306 143.645 219.353 143.626C219.4 143.606 219.45 143.596 219.501 143.596H236.16C236.263 143.596 236.362 143.637 236.435 143.71C236.508 143.783 236.549 143.882 236.549 143.985C236.549 144.036 236.539 144.086 236.519 144.134C236.5 144.181 236.471 144.224 236.435 144.26C236.399 144.296 236.356 144.325 236.309 144.344C236.261 144.364 236.211 144.374 236.16 144.374Z" fill="white"/>
<path d="M255.295 144.374H238.628C238.577 144.374 238.527 144.364 238.479 144.344C238.432 144.325 238.389 144.296 238.353 144.26C238.317 144.224 238.288 144.181 238.269 144.134C238.249 144.087 238.239 144.036 238.239 143.985C238.247 143.887 238.291 143.796 238.363 143.729C238.435 143.662 238.53 143.626 238.628 143.626H255.28C255.383 143.626 255.482 143.667 255.555 143.74C255.628 143.813 255.669 143.912 255.669 144.015C255.662 144.11 255.619 144.199 255.55 144.266C255.481 144.332 255.39 144.37 255.295 144.374Z" fill="white"/>
<path d="M229.023 147.8H219.501C219.45 147.8 219.4 147.79 219.353 147.77C219.306 147.751 219.264 147.722 219.228 147.686C219.193 147.649 219.165 147.606 219.146 147.559C219.127 147.512 219.118 147.462 219.119 147.411C219.119 147.31 219.159 147.213 219.231 147.141C219.302 147.07 219.399 147.029 219.501 147.029H229.023C229.125 147.029 229.223 147.069 229.296 147.141C229.368 147.212 229.41 147.309 229.412 147.411C229.412 147.514 229.371 147.613 229.298 147.686C229.225 147.759 229.126 147.8 229.023 147.8Z" fill="white"/>
<path d="M247.096 147.8H231.499C231.449 147.8 231.398 147.79 231.352 147.77C231.305 147.751 231.262 147.722 231.227 147.686C231.191 147.649 231.163 147.606 231.145 147.559C231.126 147.512 231.117 147.462 231.118 147.411C231.118 147.31 231.158 147.213 231.23 147.141C231.301 147.07 231.398 147.029 231.499 147.029H247.096C247.197 147.029 247.294 147.07 247.366 147.141C247.438 147.213 247.478 147.31 247.478 147.411C247.479 147.462 247.47 147.512 247.451 147.559C247.432 147.606 247.404 147.649 247.369 147.686C247.333 147.722 247.291 147.751 247.244 147.77C247.197 147.79 247.147 147.8 247.096 147.8Z" fill="white"/>
<path d="M244.875 151.233H219.501C219.399 151.231 219.302 151.19 219.23 151.117C219.159 151.044 219.119 150.946 219.119 150.844C219.118 150.794 219.127 150.743 219.146 150.696C219.165 150.649 219.193 150.606 219.228 150.57C219.264 150.534 219.306 150.505 219.353 150.485C219.4 150.466 219.45 150.455 219.501 150.455H244.875C244.978 150.455 245.077 150.496 245.15 150.569C245.223 150.642 245.263 150.741 245.263 150.844C245.263 150.948 245.223 151.047 245.15 151.119C245.077 151.192 244.978 151.233 244.875 151.233Z" fill="white"/>
<path d="M252.654 151.233H247.358C247.255 151.233 247.156 151.192 247.083 151.119C247.01 151.047 246.969 150.948 246.969 150.844C246.969 150.741 247.01 150.642 247.083 150.569C247.156 150.496 247.255 150.455 247.358 150.455H252.654C252.757 150.455 252.856 150.496 252.929 150.569C253.002 150.642 253.043 150.741 253.043 150.844C253.043 150.948 253.002 151.047 252.929 151.119C252.856 151.192 252.757 151.233 252.654 151.233Z" fill="white"/>
<path d="M231.35 154.66H219.501C219.45 154.66 219.4 154.649 219.353 154.63C219.306 154.61 219.264 154.581 219.228 154.545C219.193 154.509 219.165 154.466 219.146 154.419C219.127 154.372 219.118 154.321 219.119 154.271C219.118 154.22 219.127 154.169 219.146 154.122C219.165 154.075 219.193 154.032 219.228 153.996C219.264 153.96 219.306 153.931 219.353 153.911C219.4 153.892 219.45 153.882 219.501 153.882H231.35C231.453 153.882 231.552 153.923 231.625 153.995C231.698 154.068 231.739 154.167 231.739 154.271C231.739 154.374 231.698 154.473 231.625 154.546C231.552 154.619 231.453 154.66 231.35 154.66Z" fill="white"/>
<path d="M248.577 154.66H233.833C233.73 154.66 233.631 154.619 233.558 154.546C233.485 154.473 233.444 154.374 233.444 154.271C233.444 154.167 233.485 154.068 233.558 153.995C233.631 153.923 233.73 153.882 233.833 153.882H248.577C248.68 153.882 248.779 153.923 248.852 153.995C248.925 154.068 248.966 154.167 248.966 154.271C248.966 154.374 248.925 154.473 248.852 154.546C248.779 154.619 248.68 154.66 248.577 154.66Z" fill="white"/>
<path d="M236.16 158.086H219.501C219.45 158.086 219.4 158.075 219.353 158.056C219.306 158.036 219.264 158.007 219.228 157.971C219.193 157.935 219.165 157.892 219.146 157.845C219.127 157.798 219.118 157.747 219.119 157.697C219.119 157.595 219.159 157.498 219.231 157.427C219.302 157.355 219.399 157.315 219.501 157.315H236.16C236.21 157.314 236.261 157.323 236.308 157.342C236.355 157.361 236.398 157.389 236.434 157.424C236.471 157.46 236.499 157.502 236.519 157.549C236.539 157.596 236.549 157.646 236.549 157.697C236.549 157.8 236.508 157.899 236.435 157.972C236.362 158.045 236.263 158.086 236.16 158.086Z" fill="white"/>
<path d="M250.395 158.086H238.628C238.525 158.086 238.426 158.045 238.353 157.972C238.28 157.899 238.239 157.8 238.239 157.697C238.239 157.646 238.249 157.596 238.269 157.549C238.289 157.502 238.317 157.46 238.354 157.424C238.39 157.389 238.433 157.361 238.48 157.342C238.527 157.323 238.578 157.314 238.628 157.315H250.38C250.481 157.315 250.578 157.355 250.65 157.427C250.721 157.498 250.762 157.595 250.762 157.697C250.764 157.797 250.726 157.893 250.658 157.966C250.589 158.039 250.495 158.082 250.395 158.086Z" fill="white"/>
<path d="M105.827 91.1277C106.133 94.651 105.37 101.032 102.715 103.097C107.046 104.66 111.639 107.353 114.571 110.906C117.481 106.672 114.175 104.256 114.175 104.256C110.435 102.924 110.831 100.089 111.796 97.4786L105.827 91.1277Z" fill="#B97964"/>
<path d="M119.987 88.0905C119.943 88.5319 120.152 88.9134 120.444 88.9433C120.735 88.9732 120.997 88.6291 121.042 88.1953C121.087 87.7614 120.878 87.3724 120.586 87.3425C120.294 87.3126 120.04 87.6492 119.987 88.0905Z" fill="#263238"/>
<path d="M120.474 87.35L121.558 87.1406C121.558 87.1406 120.937 87.941 120.474 87.35Z" fill="#263238"/>
<path d="M120.137 88.5618C120.442 89.614 120.888 90.6204 121.461 91.554C121.219 91.6943 120.949 91.7803 120.67 91.8062C120.391 91.832 120.109 91.797 119.845 91.7036L120.137 88.5618Z" fill="#A24E3F"/>
<path d="M121.244 85.7641C121.313 85.7532 121.377 85.7189 121.424 85.6669C121.47 85.6171 121.496 85.5516 121.496 85.4836C121.496 85.4156 121.47 85.3502 121.424 85.3003C121.116 85.0195 120.746 84.8165 120.343 84.7085C119.941 84.6005 119.519 84.5905 119.112 84.6795C119.055 84.719 119.015 84.7787 118.999 84.8466C118.984 84.9146 118.995 84.9858 119.03 85.046C119.053 85.0844 119.086 85.1159 119.125 85.137C119.165 85.1581 119.21 85.168 119.254 85.1657C119.578 85.1039 119.911 85.1183 120.228 85.2079C120.545 85.2975 120.836 85.4598 121.08 85.6818C121.123 85.7277 121.181 85.7569 121.244 85.7641Z" fill="#263238"/>
<path d="M105.475 85.2779C105.303 90.7462 105.116 93.0726 107.555 96.1246C111.228 100.71 117.878 99.7078 119.658 94.3817C121.259 89.5867 121.274 81.418 116.24 78.7699C111.205 76.1218 105.632 79.7947 105.475 85.2779Z" fill="#B97964"/>
<path d="M105.715 95.6085C100.336 94.6884 101.877 91.2997 101.877 91.2997C96.5809 90.23 100.673 87.6418 100.673 87.6418C96.2667 85.7417 100.673 84.0361 100.673 84.0361C96.4238 80.5128 102.483 79.2935 102.483 79.2935C100.987 73.7953 106.223 76.0544 106.223 76.0544C109.066 71.3268 111.519 75.8375 111.519 75.8375C116.501 69.105 117.713 74.7828 117.713 74.7828C122.808 73.4437 120.855 78.7998 120.855 78.7998C125.044 79.9219 121.753 82.0463 121.753 82.0463C123.369 84.0885 117.526 84.4401 117.526 84.4401C117.526 84.4401 120.309 88.9284 117.526 90.1627L110.45 95.5861C110.45 95.5861 107.181 94.2545 105.715 95.6085Z" fill="#263238"/>
<path d="M111.003 91.195C111.003 91.195 114.744 82.2184 111.819 74.5583L114.287 73.713C114.287 73.713 117.511 84.8515 111.003 91.195Z" fill="#407BFF"/>
<path d="M114.736 90.2075C115.349 91.4941 115.589 92.0552 116.472 92.4516C116.744 92.6081 117.057 92.6808 117.37 92.6607C117.684 92.6407 117.985 92.5288 118.235 92.3389C118.486 92.1491 118.675 91.8897 118.779 91.5932C118.883 91.2966 118.897 90.976 118.82 90.6713C118.589 89.3846 117.601 87.4921 116.232 87.4547C115.912 87.4563 115.598 87.5438 115.323 87.7081C115.049 87.8724 114.823 88.1075 114.67 88.3887C114.517 88.67 114.443 88.9872 114.454 89.3071C114.466 89.627 114.563 89.938 114.736 90.2075Z" fill="#B97964"/>
<path d="M110.869 108.894C110.869 108.894 115.933 112.634 117.99 114.13L132.644 107.218C132.624 106.406 132.848 105.606 133.288 104.923C133.729 104.24 134.364 103.705 135.113 103.388L136.16 102.954L138.367 101.967C138.778 101.783 139.231 101.711 139.679 101.759C140.127 101.806 140.554 101.971 140.918 102.236C141.345 102.548 141.666 102.984 141.836 103.485C142.006 103.985 142.017 104.526 141.868 105.034C141.56 106.086 140.985 107.04 140.198 107.803C139.412 108.566 138.44 109.112 137.38 109.388L135.24 109.949C135.24 109.949 122.68 119.464 118.192 119.688C113.704 119.913 107.128 115.507 107.128 115.507L110.869 108.894Z" fill="#B97964"/>
<path d="M98.6904 102.588C102.558 102.588 106.882 104.996 113.651 109.41C112.679 112.592 110.871 115.454 108.415 117.698C108.415 117.698 104.675 116.696 99.7077 112.021C93.7233 106.358 96.319 102.595 98.6904 102.588Z" fill="#263238"/>
<path d="M172.149 113.794H135.494C135.186 113.799 134.88 113.738 134.597 113.616C134.314 113.493 134.06 113.313 133.852 113.085C133.644 112.857 133.487 112.588 133.391 112.295C133.295 112.002 133.262 111.691 133.295 111.385L136.056 79.8321C136.121 79.1796 136.424 78.5741 136.907 78.1301C137.389 77.6861 138.018 77.4347 138.674 77.4233H175.328C175.636 77.4183 175.942 77.4789 176.225 77.6011C176.508 77.7234 176.761 77.9045 176.968 78.1324C177.176 78.3603 177.332 78.6297 177.427 78.9228C177.522 79.2159 177.554 79.5258 177.52 79.8321L174.76 111.385C174.694 112.036 174.392 112.641 173.911 113.084C173.43 113.528 172.803 113.78 172.149 113.794Z" fill="#407BFF"/>
<path opacity="0.4" d="M172.149 113.794H135.494C135.186 113.799 134.88 113.738 134.597 113.616C134.314 113.493 134.06 113.313 133.852 113.085C133.644 112.857 133.487 112.588 133.391 112.295C133.295 112.002 133.262 111.691 133.295 111.385L136.056 79.8321C136.121 79.1796 136.424 78.5741 136.907 78.1301C137.389 77.6861 138.018 77.4347 138.674 77.4233H175.328C175.636 77.4183 175.942 77.4789 176.225 77.6011C176.508 77.7234 176.761 77.9045 176.968 78.1324C177.176 78.3603 177.332 78.6297 177.427 78.9228C177.522 79.2159 177.554 79.5258 177.52 79.8321L174.76 111.385C174.694 112.036 174.392 112.641 173.911 113.084C173.43 113.528 172.803 113.78 172.149 113.794Z" fill="white"/>
<path opacity="0.7" d="M172.284 112.297C172.532 112.293 172.769 112.198 172.951 112.029C173.133 111.861 173.247 111.632 173.271 111.385L176.031 79.832C176.044 79.716 176.032 79.5987 175.996 79.4877C175.96 79.3767 175.901 79.2747 175.822 79.1884C175.744 79.1021 175.648 79.0335 175.54 78.9871C175.433 78.9407 175.318 78.9176 175.201 78.9194H138.547C138.298 78.9236 138.059 79.0187 137.876 79.1869C137.693 79.3551 137.577 79.5846 137.552 79.832L134.799 111.385C134.786 111.501 134.798 111.618 134.834 111.729C134.87 111.84 134.93 111.942 135.008 112.028C135.087 112.115 135.183 112.183 135.29 112.23C135.397 112.276 135.512 112.299 135.629 112.297H172.284Z" fill="white"/>
<path d="M146.812 93.7458L134.844 111.071V111.385C134.831 111.501 134.843 111.618 134.879 111.729C134.915 111.84 134.974 111.942 135.053 112.028C135.131 112.115 135.227 112.183 135.335 112.23C135.442 112.276 135.557 112.299 135.674 112.297H156.44L146.812 93.7458Z" fill="#407BFF"/>
<path opacity="0.3" d="M146.812 93.7458L134.844 111.071V111.385C134.831 111.501 134.843 111.618 134.879 111.729C134.915 111.84 134.974 111.942 135.053 112.028C135.131 112.115 135.227 112.183 135.335 112.23C135.442 112.276 135.557 112.299 135.674 112.297H156.44L146.812 93.7458Z" fill="white"/>
<path d="M173.376 110.181L163.344 91.1277L148.488 112.298H172.284C172.532 112.293 172.769 112.198 172.951 112.029C173.133 111.861 173.247 111.632 173.271 111.385L173.376 110.181Z" fill="#407BFF"/>
<path d="M159.47 87.7614C159.378 88.6732 158.955 89.5197 158.281 90.1402C157.606 90.7607 156.728 91.1121 155.812 91.1277C155.38 91.1355 154.952 91.0514 154.556 90.881C154.16 90.7106 153.805 90.4577 153.514 90.1393C153.223 89.8208 153.003 89.444 152.869 89.034C152.735 88.624 152.69 88.1902 152.737 87.7614C152.827 86.8483 153.249 86.0001 153.924 85.378C154.598 84.7559 155.478 84.4035 156.395 84.3877C156.827 84.3797 157.256 84.464 157.652 84.6349C158.049 84.8057 158.405 85.0593 158.696 85.3786C158.987 85.6979 159.207 86.0756 159.34 86.4866C159.473 86.8975 159.517 87.3321 159.47 87.7614Z" fill="#407BFF"/>
<path opacity="0.4" d="M159.47 87.7614C159.378 88.6732 158.955 89.5197 158.281 90.1402C157.606 90.7607 156.728 91.1121 155.812 91.1277C155.38 91.1355 154.952 91.0514 154.556 90.881C154.16 90.7106 153.805 90.4577 153.514 90.1393C153.223 89.8208 153.003 89.444 152.869 89.034C152.735 88.624 152.69 88.1902 152.737 87.7614C152.827 86.8483 153.249 86.0001 153.924 85.378C154.598 84.7559 155.478 84.4035 156.395 84.3877C156.827 84.3797 157.256 84.464 157.652 84.6349C158.049 84.8057 158.405 85.0593 158.696 85.3786C158.987 85.6979 159.207 86.0756 159.34 86.4866C159.473 86.8975 159.517 87.3321 159.47 87.7614Z" fill="white"/>
<path d="M67.9978 241.149L64.2726 252.19L69.9802 254.524L74.446 244.336L67.9978 241.149Z" fill="#B97964"/>
<path d="M72.0298 254.248C72.0006 254.23 71.9767 254.205 71.9609 254.174C71.945 254.144 71.9378 254.11 71.9401 254.076C71.9443 254.043 71.9588 254.012 71.9817 253.988C72.0045 253.963 72.0345 253.947 72.0672 253.941C72.1869 253.941 74.8799 253.313 75.8823 253.941C76.0718 254.057 76.2087 254.242 76.2638 254.457C76.3057 254.577 76.3095 254.706 76.2747 254.828C76.2398 254.95 76.1681 255.058 76.0693 255.138C75.6878 255.407 74.7976 255.295 73.9822 255.041C73.31 254.833 72.6568 254.567 72.0298 254.248ZM72.5983 254.195C73.7728 254.719 75.4335 255.22 75.8673 254.891C75.9272 254.846 76.002 254.771 75.9421 254.539C75.9305 254.472 75.9027 254.408 75.861 254.353C75.8193 254.298 75.765 254.254 75.7028 254.225C75.6146 254.169 75.5188 254.127 75.4185 254.098C74.4808 253.951 73.5237 253.984 72.5983 254.195Z" fill="#407BFF"/>
<path d="M71.9476 254.21C71.9331 254.185 71.9255 254.157 71.9255 254.128C71.9255 254.099 71.9331 254.071 71.9476 254.046C71.9476 253.971 72.6956 252.25 73.7504 251.801C73.9009 251.739 74.0623 251.706 74.2254 251.706C74.3884 251.706 74.5499 251.739 74.7004 251.801C75.1118 251.974 75.1791 252.235 75.1417 252.415C75.052 253.2 73.0322 254.135 72.1495 254.24C72.1391 254.245 72.1276 254.248 72.1159 254.248C72.1042 254.248 72.0926 254.245 72.0822 254.24C72.0591 254.247 72.0346 254.248 72.011 254.243C71.9874 254.237 71.9656 254.226 71.9476 254.21ZM74.4834 252.093C74.2903 252.022 74.0782 252.022 73.885 252.093C73.2191 252.507 72.6967 253.115 72.3889 253.836C73.3539 253.604 74.7303 252.811 74.8275 252.34C74.8275 252.295 74.8276 252.176 74.5732 252.071H74.4834V252.093Z" fill="#407BFF"/>
<path d="M71.6408 253.118L64.4745 250.874C64.3433 250.834 64.2022 250.839 64.0745 250.889C63.9467 250.94 63.8399 251.032 63.7713 251.151L60.6744 256.582C60.6075 256.696 60.5638 256.822 60.546 256.954C60.5282 257.085 60.5366 257.218 60.5707 257.346C60.6048 257.474 60.6639 257.594 60.7446 257.699C60.8253 257.804 60.926 257.892 61.041 257.958C61.1021 257.995 61.1673 258.025 61.2355 258.048C63.8312 258.796 66.1726 259.364 69.3892 260.367C73.1893 261.534 72.0822 261.691 76.5256 263.134C79.2036 264.002 80.6399 261.092 79.5178 260.591C74.4984 258.347 74.446 256.582 73.0098 254.091C72.6849 253.613 72.199 253.268 71.6408 253.118Z" fill="#263238"/>
<path opacity="0.2" d="M66.21 246.445L72.1944 249.468L74.446 244.336L67.9978 241.149L66.21 246.445Z" fill="#263238"/>
<path d="M93.2969 139.025C93.2969 139.025 85.2554 145.167 86.9759 164.407C87.1404 166.187 87.7239 168.05 87.7239 170.084C87.7239 171.438 87.3499 172.388 86.9086 175.433C86.2652 179.861 85.0833 196.378 83.8341 198.525C82.5848 200.672 82.0761 200.291 78.5977 206.215C74.8574 212.589 69.9951 223.765 66.2324 242.705C68.7448 244.478 71.6145 245.681 74.6405 246.229C74.6405 246.229 95.1895 213.823 99.5581 201.757C103.47 190.962 108.131 156.515 108.131 156.515L108.505 141.554L93.2969 139.025Z" fill="#407BFF"/>
<path opacity="0.1" d="M102.094 164.407H96.2742C96.2742 164.407 94.3592 182.719 100.688 197.994C101.346 195.541 102.012 192.601 102.663 189.422L105.183 173.294C104.824 170.571 104.548 168.491 104.503 168.356C104.376 167.93 102.094 164.407 102.094 164.407Z" fill="black"/>
<path d="M101.137 245.593L101.174 257.33L107.794 256.888L108.812 245.593H101.137Z" fill="#B97964"/>
<path d="M108.557 256.686C108.524 256.682 108.493 256.667 108.469 256.645C108.445 256.622 108.429 256.592 108.423 256.559C108.415 256.526 108.418 256.492 108.431 256.461C108.445 256.43 108.468 256.404 108.497 256.387C108.602 256.327 110.943 254.891 112.103 255.145C112.319 255.193 112.509 255.322 112.634 255.504C112.711 255.605 112.756 255.727 112.763 255.854C112.77 255.981 112.738 256.107 112.671 256.215C112.096 256.647 111.384 256.856 110.667 256.806C109.961 256.83 109.255 256.79 108.557 256.686ZM109.081 256.454C110.36 256.567 112.073 256.492 112.395 256.035C112.44 255.976 112.477 255.878 112.35 255.676C112.315 255.618 112.267 255.567 112.21 255.53C112.153 255.492 112.088 255.468 112.021 255.459C111.919 255.444 111.816 255.444 111.714 255.459C110.78 255.616 109.885 255.954 109.081 256.454Z" fill="#407BFF"/>
<path d="M108.467 256.686C108.442 256.67 108.422 256.648 108.407 256.622C108.393 256.596 108.385 256.566 108.385 256.537C108.385 256.454 108.512 254.592 109.358 253.844C109.478 253.733 109.62 253.648 109.774 253.594C109.928 253.54 110.092 253.518 110.255 253.529C110.704 253.529 110.854 253.784 110.876 253.971C111.048 254.719 109.455 256.282 108.632 256.679C108.61 256.686 108.586 256.686 108.565 256.679C108.534 256.693 108.5 256.695 108.467 256.686ZM110.158 253.844C109.952 253.848 109.755 253.928 109.604 254.068C109.111 254.678 108.818 255.425 108.767 256.208C109.597 255.676 110.637 254.472 110.577 254.008C110.577 253.963 110.539 253.844 110.248 253.829H110.158V253.844Z" fill="#407BFF"/>
<path d="M107.824 255.751L100.344 256.021C100.207 256.027 100.076 256.079 99.9733 256.168C99.8701 256.258 99.8002 256.38 99.775 256.514L98.638 262.663C98.5875 262.924 98.6427 263.194 98.7913 263.415C98.94 263.635 99.1701 263.787 99.4309 263.838C99.503 263.845 99.5757 263.845 99.6479 263.838C102.348 263.688 104.742 263.456 108.108 263.344C112.08 263.202 111.101 263.711 115.761 263.613C118.581 263.546 118.977 260.329 117.781 260.217C112.297 259.723 111.669 258.093 109.492 256.215C109.013 255.859 108.418 255.694 107.824 255.751Z" fill="#263238"/>
<path opacity="0.2" d="M101.159 251.667L108.28 251.517L108.812 245.593H101.137L101.159 251.667Z" fill="#263238"/>
<path d="M97.7778 136.893C97.7778 136.893 89.7512 147.523 95.6982 168.312L102.431 198.675C102.431 198.675 96.0423 212.484 99.4384 248.914C102.73 249.376 106.075 249.301 109.343 248.69C109.343 248.69 116.823 210.217 117.953 197.224C119.202 182.906 118.454 139.751 118.454 139.751L97.7778 136.893Z" fill="#407BFF"/>
<path d="M102.625 102.438C102.625 102.438 101.383 97.127 109.358 99.446C117.332 101.765 116.659 106.306 116.659 106.306L102.625 102.438Z" fill="#263238"/>
<path opacity="0.4" d="M102.625 102.438C102.625 102.438 101.383 97.127 109.358 99.446C117.332 101.765 116.659 106.306 116.659 106.306L102.625 102.438Z" fill="black"/>
<path d="M122.404 115.724C122.404 117.586 121.656 120.279 120.907 123.294C120.563 124.723 120.249 126.211 120.04 127.722C118.91 135.951 118.544 144.621 118.544 144.621C114.142 145.581 109.589 145.624 105.169 144.748C100.75 143.871 96.5581 142.094 92.8556 139.527C92.8556 139.527 95.9899 136.871 95.3466 118.476C95.0548 110.188 92.0626 100.336 105.759 101.885C117.324 103.194 121.214 106.784 122.149 112.402C122.149 112.47 122.149 112.544 122.149 112.619L122.217 113.143C122.33 113.999 122.392 114.86 122.404 115.724Z" fill="#263238"/>
<path opacity="0.4" d="M122.404 115.724C122.404 117.586 121.656 120.279 120.907 123.294C117.781 119.554 114.646 112.484 114.646 112.484L117.227 108.684L121.775 110.801C121.932 111.327 122.057 111.861 122.149 112.402C122.149 112.47 122.149 112.544 122.149 112.619L122.217 113.143C122.33 113.999 122.392 114.86 122.404 115.724Z" fill="black"/>
<path d="M127.169 112.477C127.169 112.477 131.657 116.905 133.43 118.686L148.944 114.033C149.046 113.231 149.385 112.477 149.919 111.87C150.452 111.262 151.155 110.827 151.937 110.622L153.029 110.338L155.363 109.694C155.797 109.577 156.255 109.575 156.691 109.689C157.127 109.803 157.525 110.029 157.846 110.345C158.222 110.716 158.475 111.194 158.568 111.713C158.662 112.233 158.593 112.769 158.37 113.247C157.908 114.242 157.197 115.1 156.306 115.738C155.414 116.376 154.373 116.773 153.283 116.89L151.084 117.122C151.084 117.122 137.237 124.685 132.779 124.266C128.321 123.847 122.463 118.484 122.463 118.484L127.169 112.477Z" fill="#B97964"/>
<path d="M116.023 104.42C119.853 104.982 123.765 108.026 129.839 113.397C128.4 116.401 126.181 118.964 123.413 120.818C123.413 120.818 119.875 119.269 115.656 113.906C110.554 107.413 113.704 104.076 116.023 104.42Z" fill="#263238"/>
</svg>
